<svg width="73" height="73" fill="none" xmlns="http://www.w3.org/2000/svg"><circle cx="36.5" cy="36.5" r="36" stroke="#9B9B9B"/><path d="M68 36.5a31.5 31.5 0 10-12.538 25.153" stroke="#9B9B9B"/><g clip-path="url(#clip0)" fill="#CDCC42"><path d="M48.954 30.706a7.563 7.563 0 00-2.163-4.498c-2.94-2.94-7.725-2.94-10.666 0-2.192 2.191-2.75 5.407-1.675 8.12l-3.292 3.291a.38.38 0 00.537.538l3.093-3.093c.157.299.337.59.537.869L23.86 47.398l-.1-1.295c-.001-.007.001-.013.006-.017l6.676-6.676a.38.38 0 00-.537-.537l-6.676 6.676a.78.78 0 00-.227.613l.225 2.893c.03.386.332.688.718.718l2.893.224a.774.774 0 00.613-.226l2.249-2.249a.583.583 0 00.113-.657l-.534-1.13 1.128.534a.58.58 0 00.66-.114l1.233-1.233a.582.582 0 00.115-.659l-.535-1.13 1.13.534a.58.58 0 00.659-.114l2.226-2.226a.582.582 0 00.114-.658l-.534-1.13 1.13.535a.585.585 0 00.658-.115l1.406-1.406c.86.342 1.784.524 2.735.531h.055a7.495 7.495 0 005.25-2.127.38.38 0 00-.53-.545c-2.642 2.564-6.912 2.531-9.518-.074a6.791 6.791 0 010-9.593 6.791 6.791 0 019.593 0 6.756 6.756 0 01.983 8.35.38.38 0 00.646.4 7.575 7.575 0 001.071-4.789zm-11.02 7.508l-1.119 1.119-1.468-.695a.575.575 0 00-.658.116.574.574 0 00-.114.657l.694 1.468-2.048 2.048-1.468-.694a.574.574 0 00-.658.114.575.575 0 00-.115.658l.694 1.469-1.055 1.054-1.468-.693a.574.574 0 00-.658.114.574.574 0 00-.114.658l.694 1.468-2.16 2.159a.02.02 0 01-.016.006l-2.894-.224a.02.02 0 01-.019-.02l-.047-.601L35.803 36.53a7.561 7.561 0 002.132 1.683z"/><path d="M36.016 31.83c0 .206.08.4.227.547l4.379 4.379a.771.771 0 001.094 0l2.96-2.96.163 1.069a.38.38 0 00.75-.115l-.306-2.005v-.002l-.301-1.967-.28-1.831a.77.77 0 00-.648-.648l-5.806-.888a.38.38 0 00-.115.75l1.07.164-2.96 2.96a.77.77 0 00-.227.547zm2.526 1.772l1.593-1.594.855.856-1.593 1.593-.855-.855zM36.78 31.82l3.349-3.35a.014.014 0 01.01-.003h.002l3.798.58c.006.002.011.006.012.012l.291 1.903.29 1.896c0 .004-.001.009-.004.012l-3.35 3.349c0 .001-.003.004-.01.004-.005 0-.008-.003-.01-.004l-1.224-1.225 1.719-1.718a.583.583 0 000-.824l-1.106-1.106a.583.583 0 00-.824 0l-1.718 1.719-1.225-1.225a.013.013 0 01-.004-.01c0-.006.002-.009.004-.01z"/></g><defs><clipPath id="clip0"><path fill="#fff" transform="translate(23 24)" d="M0 0h26v26H0z"/></clipPath></defs></svg>