<svg width="73" height="73" fill="none" xmlns="http://www.w3.org/2000/svg"><circle cx="36.5" cy="36.5" r="36" stroke="#9B9B9B"/><path d="M68 36.5a31.5 31.5 0 10-12.538 25.153" stroke="#9B9B9B"/><g clip-path="url(#clip0)" fill="#CDCC42"><path d="M30.113 53.521a1.88 1.88 0 002.604.515l17.028-11.41a.433.433 0 00-.482-.72l-2.749 1.842-1.132-1.689 7.166-4.802c.31-.207.536-.49.675-.809l.734 1.096c.31.463.186 1.092-.277 1.402l-2.328 1.56a.433.433 0 00.483.72l2.327-1.56a1.879 1.879 0 00.514-2.604L42.91 19.502a1.879 1.879 0 00-2.604-.515l-16.71 11.197a.433.433 0 00.483.72l16.71-11.198a1.012 1.012 0 011.402.277l8.539 12.744c.31.463.186 1.092-.277 1.402L29.008 48.5a1.012 1.012 0 01-1.403-.277l-8.54-12.743a1.012 1.012 0 01.278-1.403l2.645-1.772a.433.433 0 00-.482-.72l-2.645 1.773a1.88 1.88 0 00-.515 2.604l11.767 17.56zm7.262-9.586l2.477-1.66 2.746 4.097-2.477 1.66-2.746-4.097zm-7.885 5.284l7.165-4.802 1.132 1.689-7.166 4.802a1.012 1.012 0 01-1.402-.277l-.734-1.096c.347-.007.696-.11 1.005-.316zm1.343 3.82l-.734-1.096a1.861 1.861 0 001.005-.316l7.165-4.801 1.132 1.688-7.166 4.802a1.012 1.012 0 01-1.402-.277zm12.484-7.15l-2.745-4.096 2.477-1.66 2.745 4.097-2.477 1.66zm8.749-9.351L44.9 41.339l-1.131-1.688 7.165-4.802c.31-.207.537-.49.675-.81l.734 1.096c.31.464.186 1.093-.277 1.403z"/><path d="M26.177 43.075a.433.433 0 00-.119.601l1.104 1.647a.718.718 0 00.711.31 1.96 1.96 0 011.59.437.72.72 0 00.861.047L47.75 34.442a.72.72 0 00.283-.815 1.96 1.96 0 01.201-1.637.718.718 0 00-.017-.775l-5.583-8.332a.718.718 0 00-.71-.31 1.963 1.963 0 01-1.59-.438.72.72 0 00-.862-.047L22.046 33.764a.72.72 0 00-.284.815 1.963 1.963 0 01-.2 1.637.718.718 0 00.017.776l3.08 4.595a.433.433 0 00.719-.482l-3.028-4.52a2.827 2.827 0 00.27-2.162l17.24-11.554c.597.464 1.352.67 2.104.573l5.48 8.178a2.824 2.824 0 00-.27 2.163L29.933 45.337a2.824 2.824 0 00-2.103-.573l-1.052-1.57a.433.433 0 00-.6-.119z"/><path d="M39.28 31.166a5.28 5.28 0 00-7.32-1.445 5.28 5.28 0 00-1.445 7.318 5.28 5.28 0 007.319 1.446 5.281 5.281 0 001.445-7.319zm-8.045 5.391a4.414 4.414 0 011.208-6.117 4.414 4.414 0 016.117 1.209 4.414 4.414 0 01-1.208 6.116 4.414 4.414 0 01-6.117-1.208z"/><path d="M36.852 36.283l-.422-.63a1.444 1.444 0 00.18-1.475c-.268-.594-.88-.882-1.524-.718-.338.087-.716.172-.969.154-.058-.005-.125-.072-.165-.163-.02-.05-.08-.22.036-.36.265-.322.753-.32.77-.32a.433.433 0 00.027-.866c-.023 0-.376-.01-.77.143l-.39-.582a.433.433 0 10-.72.482l.405.605a1.21 1.21 0 00-.154 1.238c.169.395.512.658.897.686.376.029.822-.069 1.248-.177.323-.083.464.111.52.235a.556.556 0 01-.198.697c-.285.194-.376.236-.687.24a.433.433 0 10.01.865c.34-.003.564-.054.79-.164l.397.592a.433.433 0 10.72-.482zm6.239-7.722a1.44 1.44 0 00-1.995-.394 1.44 1.44 0 00-.394 1.995 1.44 1.44 0 001.995.394 1.44 1.44 0 00.394-1.995zm-1.67 1.119a.573.573 0 11.952-.636.573.573 0 01-.951.636zm-12.375 8.293a1.44 1.44 0 00-1.995-.394 1.44 1.44 0 00-.395 1.995 1.44 1.44 0 001.995.394 1.44 1.44 0 00.395-1.995zm-1.67 1.119a.572.572 0 11.952-.636.572.572 0 01-.952.636z"/></g><defs><clipPath id="clip0"><path fill="#fff" transform="rotate(-33.826 61.375 -10.08)" d="M0 0h29.568v29.568H0z"/></clipPath></defs></svg>