<svg width="73" height="73" fill="none" xmlns="http://www.w3.org/2000/svg"><circle cx="36.5" cy="36.5" r="36" stroke="#9B9B9B"/><path d="M68 36.5a31.5 31.5 0 10-12.538 25.153" stroke="#9B9B9B"/><path d="M36.39 55.313h-.005a19.095 19.095 0 01-18.252-24.03.569.569 0 111.097.293 17.957 17.957 0 0017.166 22.602.568.568 0 11-.005 1.135zM20.965 26.816a.567.567 0 01-.478-.874 19.168 19.168 0 018.783-7.354 19.089 19.089 0 0120.803 4.138.568.568 0 01-.803.803 17.954 17.954 0 00-25.39 0 18.069 18.069 0 00-2.437 3.025.567.567 0 01-.478.262zM55.08 36.29a.568.568 0 01-.568-.552 17.914 17.914 0 00-2.403-8.521.568.568 0 11.981-.571 19.052 19.052 0 012.557 9.062.568.568 0 01-.552.583h-.015zm-3.223 10.966a.567.567 0 01-.467-.89c.298-.43.582-.89.845-1.366a.569.569 0 011.046.116.57.57 0 01-.053.434c-.281.51-.585 1-.904 1.46a.567.567 0 01-.467.246zm-10.483 7.429a.568.568 0 01-.114-1.125 17.921 17.921 0 007.518-4.171.566.566 0 01.908.651.569.569 0 01-.135.18 19.048 19.048 0 01-8.032 4.446.553.553 0 01-.145.02zm12.918-12.497a.575.575 0 01-.365-.13.566.566 0 01-.18-.605c.164-.531.3-1.07.408-1.615a.568.568 0 011.113.227 17.658 17.658 0 01-.434 1.724.567.567 0 01-.542.4z" fill="#CDCC42"/><path d="M49.672 23.695h-4.366a.567.567 0 010-1.135h3.798v-3.798a.567.567 0 111.135 0v4.366a.567.567 0 01-.567.567zM20.868 35.779a.568.568 0 01-.492-.284l-1.9-3.29-3.289 1.9a.568.568 0 01-.567-.983l3.78-2.183a.566.566 0 01.776.208l2.183 3.78a.569.569 0 01-.491.852zm24.281 21.086a.568.568 0 01-.284-.076l-3.78-2.182a.568.568 0 01-.209-.776l2.184-3.78a.568.568 0 01.983.567l-1.899 3.289 3.29 1.899a.567.567 0 01-.285 1.059zm-7.482-7.946H35.17a.929.929 0 01-.894-.681l-.454-1.676a10.635 10.635 0 01-2.923-1.21l-1.507.863a.926.926 0 01-1.115-.15l-1.774-1.77a.928.928 0 01-.149-1.115l.862-1.507a10.636 10.636 0 01-1.209-2.923l-1.675-.454a.929.929 0 01-.683-.899V34.9a.929.929 0 01.68-.894l1.677-.454c.255-1.03.662-2.015 1.209-2.924l-.863-1.506a.927.927 0 01.15-1.116l1.768-1.768a.926.926 0 011.116-.15l1.506.863a10.633 10.633 0 012.924-1.21l.454-1.675a.928.928 0 01.9-.688h2.497a.929.929 0 01.895.681l.454 1.676c1.029.256 2.014.663 2.923 1.21l1.507-.863a.928.928 0 011.115.15L46.33 28a.928.928 0 01.149 1.115l-.862 1.507c.546.91.954 1.895 1.209 2.924L48.5 34a.928.928 0 01.688.9v2.497a.929.929 0 01-.68.894l-1.677.454a10.635 10.635 0 01-1.209 2.924l.862 1.507a.927.927 0 01-.15 1.115l-1.77 1.773a.928.928 0 01-1.114.15l-1.507-.863c-.91.547-1.895.954-2.924 1.21l-.454 1.675a.929.929 0 01-.899.683zm-2.342-1.135h2.183l.503-1.85a.567.567 0 01.43-.406 9.494 9.494 0 003.178-1.315.567.567 0 01.59-.015l1.662.95 1.543-1.543-.95-1.662a.568.568 0 01.015-.59 9.495 9.495 0 001.314-3.178.567.567 0 01.407-.43l1.854-.505v-2.183l-1.85-.503a.566.566 0 01-.406-.43 9.494 9.494 0 00-1.315-3.178.567.567 0 01-.015-.59l.95-1.662-1.542-1.543-1.663.95a.568.568 0 01-.589-.015 9.495 9.495 0 00-3.178-1.314.567.567 0 01-.43-.406l-.506-1.852h-2.182l-.504 1.85a.567.567 0 01-.43.406 9.494 9.494 0 00-3.178 1.314.567.567 0 01-.59.015l-1.662-.95-1.543 1.543.95 1.662a.568.568 0 01-.014.59 9.495 9.495 0 00-1.315 3.178.567.567 0 01-.406.43l-1.852.505v2.183l1.85.504a.567.567 0 01.406.43 9.494 9.494 0 001.314 3.178.567.567 0 01.016.589l-.951 1.662 1.543 1.543 1.663-.95a.567.567 0 01.589.015 9.495 9.495 0 003.178 1.315.567.567 0 01.43.406l.503 1.852z" fill="#CDCC42"/><path d="M36.419 43.76a7.611 7.611 0 117.611-7.611 7.619 7.619 0 01-7.611 7.61zm0-14.087a6.476 6.476 0 106.476 6.476 6.483 6.483 0 00-6.476-6.476z" fill="#CDCC42"/></svg>