<svg width="73" height="73" fill="none" xmlns="http://www.w3.org/2000/svg"><circle cx="36.5" cy="36.5" r="36" stroke="#9B9B9B"/><path d="M68 36.5a31.5 31.5 0 10-12.538 25.153" stroke="#9B9B9B"/><g clip-path="url(#clip0)" fill="#CDCC42"><path d="M48.779 35.27l-3.348-8.561a3.284 3.284 0 001.437-4.046 3.285 3.285 0 00-4.25-1.86 3.285 3.285 0 00-1.861 4.25L19.803 33.25l6.83 17.462 13.118-5.13c1.654 3.558 5.82 5.273 9.524 3.824 3.85-1.506 5.759-5.865 4.252-9.717a7.485 7.485 0 00-4.748-4.419zm-5.82-13.594a2.347 2.347 0 013.036 1.329 2.347 2.347 0 01-1.329 3.036 2.347 2.347 0 01-3.036-1.329 2.347 2.347 0 011.329-3.036zM21.017 33.78l20.21-7.905c.24.308.532.564.856.765l-1.625 3.714a1.387 1.387 0 00-.613.089 1.384 1.384 0 00-.51.35l-1.223-.535a1.404 1.404 0 00-.089-.613 1.408 1.408 0 00-1.822-.797 1.408 1.408 0 00-.797 1.822c.079.201.202.37.35.51l-1.332 3.045a1.393 1.393 0 00-.613.088 1.408 1.408 0 00-.797 1.822c.282.722 1.1 1.08 1.821.798.723-.283 1.08-1.1.798-1.822a1.384 1.384 0 00-.351-.51l1.333-3.045c.203.014.41-.01.613-.089.201-.079.37-.202.51-.35l1.223.535c-.015.203.01.41.088.613.283.721 1.1 1.08 1.822.797.722-.282 1.08-1.1.798-1.822a1.384 1.384 0 00-.351-.51l1.626-3.714a3.26 3.26 0 001.616.034l3.115 7.964a7.44 7.44 0 00-3.862.42 7.476 7.476 0 00-4.308 4.43l-.76-1.944-2.62 1.025 2.05 5.238 1-.391c.058.306.14.611.236.914l-12.245 4.79-6.147-15.716zm19.17-2.464a.47.47 0 11.34.874.47.47 0 01-.34-.874zm-3.91-.988a.47.47 0 11.874-.34.47.47 0 01-.874.34zm-1.52 5.124a.47.47 0 11-.873.341.47.47 0 01.874-.34zm13.152 10.46a3.754 3.754 0 01-4.859-2.127 3.754 3.754 0 012.127-4.858 3.754 3.754 0 014.858 2.127 3.754 3.754 0 01-2.126 4.858zm-8.798-4.476a7.44 7.44 0 00-.053 1.394l-.354.139-1.366-3.493.873-.341.9 2.3zm4.613-4.935l.683 1.746a4.694 4.694 0 00-2.23 5.88c.25.639.628 1.189 1.09 1.64l-1.172 1.466a6.506 6.506 0 01-1.664-2.423c-1.26-3.223.215-6.846 3.293-8.31zm5.21 12.03a6.56 6.56 0 01-6.11-.708L44 46.35a4.68 4.68 0 004.25.435 4.68 4.68 0 002.826-3.203l1.864.284a6.56 6.56 0 01-4.008 4.665zm4.142-5.593l-1.856-.282a4.657 4.657 0 00-.312-1.944 4.694 4.694 0 00-5.627-2.806l-.684-1.747c3.255-1.013 6.797.647 8.057 3.87.374.956.5 1.948.422 2.909z"/><path d="M45.518 39.801a2.815 2.815 0 00-1.595 3.644 2.815 2.815 0 003.644 1.595 2.815 2.815 0 001.595-3.644 2.815 2.815 0 00-3.644-1.595zm1.708 4.366a1.877 1.877 0 01-2.43-1.064 1.877 1.877 0 011.064-2.429c.963-.376 2.052.1 2.429 1.063.377.963-.1 2.053-1.063 2.43zm-24.994-9.854l.873-.342.341.873-.873.342-.341-.873zm1.746-.683l6.111-2.39.342.872-6.112 2.39-.341-.872zm-1.063 2.429l.873-.342.341.873-.873.342-.341-.873zm1.745-.683l6.113-2.39.341.872-6.112 2.39-.341-.872zm-1.062 2.429l.873-.342.341.873-.873.342-.341-.873zm1.746-.683l6.111-2.39.342.873-6.112 2.39-.341-.873zm-1.064 2.429l.874-.341.341.873-.873.341-.341-.873zm1.747-.683l6.111-2.39.342.873-6.112 2.39-.341-.873zm1.668 9.414l2.62-1.024-1.708-4.366-2.619 1.025 1.707 4.365zm-.492-3.834l.873-.341 1.024 2.62-.873.34-1.024-2.619zm3.985 2.468l2.62-1.024-1.367-3.493-2.62 1.025 1.367 3.492zm-.151-2.96l.873-.342.683 1.746-.874.342-.683-1.747zm3.643 1.594l2.62-1.024-2.732-6.985-2.62 1.024 2.732 6.985zm-1.517-6.453l.873-.342 2.049 5.24-.873.34-2.05-5.238z"/></g><defs><clipPath id="clip0"><path fill="#fff" transform="rotate(-21.362 88.339 -32.754)" d="M0 0h30v30H0z"/></clipPath></defs></svg>