<svg width="73" height="73" fill="none" xmlns="http://www.w3.org/2000/svg"><circle cx="36.5" cy="36.5" r="36" stroke="#9B9B9B"/><path d="M68 36.5a31.5 31.5 0 10-12.538 25.153" stroke="#9B9B9B"/><path d="M48.634 31.584h-1.53v-3.502c.93.596.957.693 1.15.693a.366.366 0 00.204-.67l-6.103-4.064a.366.366 0 00-.378.025l-1.528 1.019a.366.366 0 00.406.61l1.333-.889 4.184 2.79v3.988h-.785v-2.288a1.505 1.505 0 00-3.007 0v2.288h-.785v-2.288a1.505 1.505 0 00-3.007 0v2.288h-.784v-3.99l1.255-.836a.366.366 0 00-.406-.61L36.5 27.716l-5.485-3.654v-.001a.366.366 0 00-.405 0l-6.068 4.043a.366.366 0 00.204.671c.193 0 .218-.095 1.15-.693v3.502h-1.53a.366.366 0 00-.366.366v1.517c0 .202.164.366.366.366h.392v14.8c0 .203.164.367.367.367h22.75a.366.366 0 00.367-.366V33.833h.392a.366.366 0 00.366-.366V31.95a.366.366 0 00-.366-.366zm-5.322-2.288a.772.772 0 011.543 0v2.288h-1.543v-2.288zm-3.791 0a.772.772 0 011.542 0v2.288H39.52v-2.288zm-2.25 2.288H35.73v-3.502l.561.375c.123.085.29.09.42 0l.561-.375v3.502zm-10.643-3.988l4.184-2.79 4.184 2.79v3.988h-.784v-2.288a1.505 1.505 0 00-3.007 0v2.288h-.785v-2.288a1.505 1.505 0 00-3.007 0v2.288h-.785v-3.988zm6.852 3.988h-1.543v-2.288a.772.772 0 011.543 0v2.288zm-3.792 0h-1.543v-2.288a.772.772 0 011.543 0v2.288zm-4.956.732h11.402v.784H24.732v-.784zm11.402 1.517v3.818h-.785v-1.834c0-.661-.538-1.2-1.2-1.2-.662 0-1.2.539-1.2 1.2v1.834h-.936v-1.834c0-.661-.539-1.2-1.2-1.2-.663 0-1.201.539-1.201 1.2v1.834h-.936v-1.834c0-.661-.539-1.2-1.2-1.2-.662 0-1.2.539-1.2 1.2v1.834h-.785v-3.818h10.643zm-1.517 3.818h-.936v-1.834a.469.469 0 01.936 0v1.834zm-3.337 0h-.936v-1.834a.469.469 0 01.936 0v1.834zm-3.337 0h-.936v-1.834a.469.469 0 01.936 0v1.834zm-2.452.732h10.643v9.885h-.919v-1.15a.366.366 0 00-.366-.367h-1.016V45.6a.366.366 0 00-.366-.367h-.393V41.43a2.261 2.261 0 00-4.509-.266.366.366 0 10.728.086 1.528 1.528 0 013.05.18v3.805h-3.06v-2.433a.366.366 0 10-.733 0v2.433h-.392a.366.366 0 00-.366.366v1.15h-1.017a.366.366 0 00-.366.367v1.15h-.918v-9.884zm7.61 7.584v.784h-4.577v-.784H33.1zm-5.96 2.3v-.784h7.342v.785h-7.341zm11.376 0v-.784h2.493a.366.366 0 100-.732H39.9v-.784h4.576v.784h-1.87a.366.366 0 100 .732h3.252v.785h-7.341zm5.2-3.033h-3.059V41.43c0-.843.686-1.53 1.53-1.53.843 0 1.53.687 1.53 1.53v3.805zm2.874 3.034v-1.15a.366.366 0 00-.366-.367h-1.017V45.6a.366.366 0 00-.366-.367h-.392V41.43a2.265 2.265 0 00-2.262-2.262 2.265 2.265 0 00-2.262 2.262v3.805h-.393a.366.366 0 00-.366.366v1.15h-1.016a.366.366 0 00-.367.367v1.15h-.918v-9.884H47.51v9.885h-.918zM39.319 37.65h-.936v-1.834a.469.469 0 01.936 0v1.834zm3.337 0h-.936v-1.834a.469.469 0 01.936 0v1.834zm3.337 0h-.937v-1.834a.469.469 0 01.937 0v1.834zm1.516 0h-.784v-1.834c0-.661-.539-1.2-1.2-1.2-.662 0-1.2.539-1.2 1.2v1.834h-.937v-1.834c0-.661-.538-1.2-1.2-1.2-.662 0-1.2.539-1.2 1.2v1.834h-.937v-1.834c0-.661-.538-1.2-1.2-1.2-.662 0-1.2.539-1.2 1.2v1.834h-.785v-3.818H47.51v3.818zm.759-4.55H36.866v-.785h11.402v.784z" fill="#CDCC42"/></svg>