<svg width="74" height="72" fill="none" xmlns="http://www.w3.org/2000/svg"><path fill="#fff" d="M2.912.961H73.5v70.588H2.912z"/><path fill-rule="evenodd" clip-rule="evenodd" d="M46.342 31.213H7.48l3.69-9.761a8 8 0 017.483-5.172H35.17a8 8 0 017.484 5.172l3.688 9.76zM4.432 49.22v5.577a2 2 0 002 2h5.774a2 2 0 002-2v-5.433H5.5c-.37 0-.728-.05-1.068-.144zm35.186.144v5.433a2 2 0 002 2h5.773a2 2 0 002-2V49.22a4 4 0 01-1.067.144h-8.706z" fill="#959439"/><path d="M1.5 39.213a8 8 0 018-8h34.824a8 8 0 018 8v6.151a4 4 0 01-4 4H5.5a4 4 0 01-4-4v-6.151z" fill="#CDCC42" stroke="#CDCC42" stroke-width="3" stroke-linecap="round" stroke-linejoin="round"/><rect x="8.342" y="37.638" width="5.864" height="6.05" rx="2.932" fill="#FAFAFA"/><rect width="5.864" height="6.05" rx="2.932" transform="matrix(-1 0 0 1 45.482 37.638)" fill="#FAFAFA"/></svg>