<svg width="75" height="72" fill="none" xmlns="http://www.w3.org/2000/svg"><path fill="#fff" d="M3.555.961h70.588v70.588H3.555z"/><path d="M23.06 24.777a5.825 5.825 0 00-3.157 1.61 5.892 5.892 0 00-1.652 3.15 5.954 5.954 0 00.455 3.542 5.927 5.927 0 002.396 2.64 5.848 5.848 0 003.462.774 5.822 5.822 0 003.266-1.373 5.883 5.883 0 001.878-3.02 5.943 5.943 0 00-2.761-6.6 5.857 5.857 0 00-3.888-.723zm15.16 2.027c.162.622.283 1.254.361 1.891l4.849 2.092a1 1 0 01.545 1.168l-2.016 7.616a.992.992 0 01-1.053.721l-4.406-.548a1.464 1.464 0 00-1.3.516 15.036 15.036 0 01-1.607 1.63 1.463 1.463 0 00-.49 1.291l.548 4.432c.022.236-.039.472-.171.668a1.01 1.01 0 01-.554.404l-7.57 2.028a1.013 1.013 0 01-.673-.064 1.028 1.028 0 01-.486-.474L22.46 46.07a1.492 1.492 0 00-1.088-.877 14.202 14.202 0 01-2.2-.613 1.458 1.458 0 00-1.378.206l-3.541 2.677a.983.983 0 01-1.272-.097l-5.554-5.588a1.004 1.004 0 01-.112-1.285l2.664-3.582a1.482 1.482 0 00.195-1.398 12.69 12.69 0 01-.594-2.217 1.488 1.488 0 00-.87-1.1l-4.098-1.77a1 1 0 01-.537-1.165l2.017-7.616a.983.983 0 011.053-.721l4.406.549a1.465 1.465 0 001.3-.516 15.036 15.036 0 011.607-1.63 1.463 1.463 0 00.49-1.292l-.549-4.432c-.021-.236.04-.472.172-.667a1.01 1.01 0 01.554-.404l7.57-2.029c.225-.056.462-.033.673.065.21.098.381.264.486.473l1.737 4.107a1.49 1.49 0 001.09.876c.747.145 1.483.35 2.199.613a1.459 1.459 0 001.378-.206l3.54-2.676a.983.983 0 011.273.097l5.554 5.587a1.005 1.005 0 01.112 1.285l-2.664 3.582a1.48 1.48 0 00-.2 1.4c.129.361.248.727.347 1.1z" fill="#CDCC42" stroke="#CDCC42" stroke-width="1.5" stroke-linecap="round" stroke-linejoin="round"/><path d="M49.03 48.843a3.114 3.114 0 00-1.797.37 2.99 2.99 0 00-1.25 1.307 2.881 2.881 0 00-.248 1.77c.107.6.403 1.153.846 1.584a3.07 3.07 0 001.63.822 3.12 3.12 0 001.82-.24 3.008 3.008 0 001.346-1.216 2.887 2.887 0 00-.497-3.544 3.083 3.083 0 00-1.85-.853zm7.32 2.941a6.92 6.92 0 01-.072.96l2.148 1.638a.488.488 0 01.116.635l-2.032 3.417a.51.51 0 01-.272.217.527.527 0 01-.352-.005l-2.133-.835a.785.785 0 00-.72.08 7.876 7.876 0 01-1.024.58.753.753 0 00-.282.23.726.726 0 00-.137.33l-.32 2.212a.508.508 0 01-.175.3.535.535 0 01-.332.124h-4.064a.537.537 0 01-.328-.119.51.51 0 01-.18-.291l-.319-2.208a.731.731 0 00-.141-.335.758.758 0 00-.287-.23 7.424 7.424 0 01-1.02-.58.774.774 0 00-.717-.08l-2.133.835a.528.528 0 01-.351.005.511.511 0 01-.273-.216l-2.032-3.417a.487.487 0 01.117-.635l1.815-1.386a.723.723 0 00.285-.65 6.116 6.116 0 010-1.148.72.72 0 00-.06-.357.74.74 0 00-.229-.286l-1.814-1.386a.487.487 0 01-.113-.632l2.033-3.417a.51.51 0 01.272-.216.527.527 0 01.352.004l2.133.835a.786.786 0 00.72-.08 7.874 7.874 0 011.024-.58.754.754 0 00.282-.229.727.727 0 00.137-.331l.32-2.212a.508.508 0 01.175-.3.535.535 0 01.332-.123h4.064c.12.002.236.044.328.118a.511.511 0 01.18.291l.319 2.209a.73.73 0 00.141.334.76.76 0 00.287.23c.355.167.696.36 1.02.58a.773.773 0 00.717.08l2.133-.835a.528.528 0 01.351-.005.51.51 0 01.273.216l2.032 3.418a.487.487 0 01-.117.635l-1.815 1.385a.743.743 0 00-.229.29.722.722 0 00-.058.36c.015.192.026.384.026.576zm-.262-35.411a3.114 3.114 0 00-1.797.369 2.99 2.99 0 00-1.25 1.308 2.881 2.881 0 00-.247 1.769c.107.6.402 1.154.846 1.585a3.07 3.07 0 001.63.822c.618.104 1.253.02 1.82-.24a3.009 3.009 0 001.345-1.216 2.887 2.887 0 00-.497-3.545 3.084 3.084 0 00-1.85-.852zm7.321 2.94a6.918 6.918 0 01-.072.96l2.148 1.638a.487.487 0 01.116.635l-2.032 3.418a.51.51 0 01-.272.216.527.527 0 01-.352-.005l-2.133-.834a.786.786 0 00-.721.08 7.876 7.876 0 01-1.023.58.752.752 0 00-.282.229.724.724 0 00-.137.331l-.32 2.212a.509.509 0 01-.176.3.536.536 0 01-.331.123h-4.064a.537.537 0 01-.328-.118.51.51 0 01-.18-.291l-.32-2.209a.73.73 0 00-.14-.334.758.758 0 00-.287-.23 7.431 7.431 0 01-1.02-.58.774.774 0 00-.717-.08l-2.133.835a.528.528 0 01-.352.005.51.51 0 01-.272-.217l-2.032-3.417a.487.487 0 01.116-.635l1.815-1.385a.723.723 0 00.285-.65 6.114 6.114 0 010-1.148.72.72 0 00-.06-.357.74.74 0 00-.228-.287l-1.814-1.385a.488.488 0 01-.113-.632l2.032-3.417a.511.511 0 01.273-.217.527.527 0 01.351.005l2.133.835a.786.786 0 00.721-.08 7.868 7.868 0 011.023-.58.752.752 0 00.282-.23.724.724 0 00.138-.33l.32-2.212a.509.509 0 01.175-.3.535.535 0 01.332-.124h4.063c.12.002.236.044.328.119a.511.511 0 01.18.291l.32 2.208a.731.731 0 00.14.335.758.758 0 00.287.23c.355.166.696.36 1.02.58a.774.774 0 00.718.079l2.132-.834a.528.528 0 01.352-.005.51.51 0 01.272.216l2.032 3.417a.487.487 0 01-.116.635l-1.815 1.386a.722.722 0 00-.287.65c.015.191.025.383.025.576z" fill="#959439"/></svg>