<svg width="73" height="72" fill="none" xmlns="http://www.w3.org/2000/svg"><path fill="#fff" d="M1.912.961H72.5v70.588H1.912z"/><path fill-rule="evenodd" clip-rule="evenodd" d="M30.456 7.713a4 4 0 00-2.755-1.1l-23.2-.002a4 4 0 00-4.001 4v51.294a4 4 0 004 4h40a4 4 0 004-4V26.573a4 4 0 00-1.245-2.9l-.445-.422c.554.603.131 1.602-.71 1.602H33.3a4 4 0 01-4-4V8.889c0-.827.953-1.268 1.58-.773l-.424-.403z" fill="#CDCC42"/><path d="M46.76 23.199L30.953 8.179c-.623-.593-1.653-.15-1.653.71v11.963a4 4 0 004 4h12.8c.865 0 1.288-1.057.66-1.653z" fill="#959439"/></svg>