<svg width="72" height="72" fill="none" xmlns="http://www.w3.org/2000/svg"><path fill="#fff" d="M1.412.961H72v70.588H1.412z"/><path d="M4.515 43.49a2 2 0 002.828 2.828l-2.828-2.829zm41.611-14.991a2 2 0 10-2.828-2.829l2.828 2.829zM7.343 46.318l11.584-11.584-2.828-2.829L4.515 43.49l2.828 2.829zm14.413-11.584l4.825 4.825 2.828-2.829-4.825-4.825-2.828 2.829zm13.31 4.825l11.06-11.06-2.828-2.829-11.06 11.06 2.828 2.829zm-8.485 0a6 6 0 008.485 0l-2.828-2.829a2 2 0 01-2.829 0l-2.828 2.829zm-7.654-4.825a2 2 0 012.829 0l2.828-2.829a6 6 0 00-8.485 0l2.828 2.829z" fill="#CDCC42"/><path d="M48.778 31.15l-8.132-8.131c-.82-.82-.239-2.224.921-2.224h6.434a3 3 0 013 3v6.434c0 1.16-1.403 1.741-2.223.92z" fill="#CDCC42"/><path d="M5.93 15.502v39.506a2 2 0 002 2h45.434" stroke="#959439" stroke-width="4" stroke-linecap="round" stroke-linejoin="round"/></svg>