<svg width="25" height="14" fill="none" xmlns="http://www.w3.org/2000/svg"><path d="M1.719 13H23.28M1.72 13c-.398 0-.72-.299-.72-.667m.719.667h2.855c.013-.11.02-.22.02-.333 0-1.657-1.448-3-3.235-3-.121 0-.241.006-.359.018v2.648m0 0V1.667M23.281 13c.397 0 .719-.299.719-.667m-.719.667h-2.855c-.013-.11-.02-.22-.02-.333 0-1.657 1.448-3 3.235-3 .121 0 .241.006.359.018v2.648m0 0V1.667M23.281 1H1.72m21.56 0c.397 0 .719.298.719.667M23.281 1h-2.855c-.013.11-.02.22-.02.333 0 1.657 1.448 3 3.235 3 .121 0 .241-.006.359-.018V1.667M1.719 1C1.322 1 1 1.298 1 1.667M1.719 1h2.855c.013.11.02.22.02.333 0 1.657-1.448 3-3.235 3-.121 0-.241-.006-.359-.018V1.667m8.781 4.612V7.72c0 .807.404 1.567 1.093 2.059 1.007.72 2.41.72 3.417 0 .689-.492 1.092-1.252 1.092-2.059V6.28c0-.807-.403-1.567-1.092-2.059a2.976 2.976 0 00-3.417 0c-.689.492-1.093 1.252-1.093 2.059zm-5.043.48v.481c0 .27.135.523.364.687.336.24.804.24 1.14 0a.846.846 0 00.364-.687v-.48a.846.846 0 00-.365-.687.992.992 0 00-1.139 0 .846.846 0 00-.364.687zm13.656 0v.481c0 .27.135.523.365.687a.99.99 0 001.139 0 .846.846 0 00.364-.687v-.48a.846.846 0 00-.364-.687.992.992 0 00-1.14 0 .846.846 0 00-.364.687z" stroke="#CDCC42" stroke-linecap="round" stroke-linejoin="round"/></svg>