<svg width="75" height="72" fill="none" xmlns="http://www.w3.org/2000/svg"><path fill="#fff" d="M4.054.961h70.588v70.588H4.054z"/><path fill-rule="evenodd" clip-rule="evenodd" d="M6.56 6.608h44.4v59.294H6.56V6.608z" fill="#CDCC42"/><path d="M50.96 6.608h2a2 2 0 00-2-2v2zm-44.4 0v-2a2 2 0 00-2 2h2zm44.4 59.294v2a2 2 0 002-2h-2zm-44.4 0h-2a2 2 0 002 2v-2zm-3.917-2a2 2 0 000 4v-4zm52.235 4a2 2 0 000-4v4zM2.643 4.608a2 2 0 100 4v-4zm52.235 4a2 2 0 000-4v4zm-3.918-4H6.56v4h44.4v-4zm2 61.294V6.608h-4v59.294h4zm-46.4 2h44.4v-4H6.56v4zm-2-61.294v59.294h4V6.608h-4zM2.643 67.902h52.235v-4H2.643v4zm0-59.294h52.235v-4H2.643v4z" fill="#CDCC42"/><path d="M22.407 55.196a2 2 0 012-2h8.707a2 2 0 012 2v10.706H22.407V55.196z" fill="#959439" stroke="#959439" stroke-width="4" stroke-linecap="round"/><path d="M16.76 16.49h2.824m8.47 0h2.824m8.471 0h2.823M16.76 27.784h2.824m8.47 0h2.824m8.471 0h2.823M16.76 39.078h2.824m8.47 0h2.824m8.471 0h2.823" stroke="#959439" stroke-width="4" stroke-linecap="round" stroke-linejoin="round"/></svg>