<svg width="20" height="17" fill="none" xmlns="http://www.w3.org/2000/svg"><path d="M19.452 2.614a7.773 7.773 0 01-2.229.611 3.892 3.892 0 001.707-2.148 7.75 7.75 0 01-2.465.941A3.883 3.883 0 009.85 5.56a11.024 11.024 0 01-8.002-4.057A3.883 3.883 0 003.05 6.686a3.873 3.873 0 01-1.758-.485v.05a3.883 3.883 0 003.114 3.806 3.91 3.91 0 01-1.754.067A3.884 3.884 0 006.28 12.82a7.79 7.79 0 01-4.822 1.663c-.31 0-.619-.018-.926-.054a10.979 10.979 0 005.95 1.744c7.141 0 11.046-5.915 11.046-11.045 0-.167-.005-.335-.012-.502a7.892 7.892 0 001.936-2.008l.001-.003z" fill="#9B9B9B"/></svg>