<svg width="22" height="13" fill="none" xmlns="http://www.w3.org/2000/svg"><path d="M21.228 1.14c.146-.484 0-.839-.69-.839h-2.284c-.581 0-.847.307-.993.645 0 0-1.161 2.832-2.807 4.669-.531.534-.774.703-1.064.703-.144 0-.355-.169-.355-.653V1.14c0-.582-.167-.84-.652-.84h-3.59c-.362 0-.58.269-.58.525 0 .55.822.677.907 2.227v3.363c0 .736-.133.87-.424.87-.774 0-2.658-2.842-3.775-6.096C4.703.557 4.483.302 3.9.302H1.617C.963.302.833.61.833.947c0 .606.774 3.606 3.605 7.574 1.888 2.71 4.545 4.178 6.966 4.178 1.451 0 1.63-.326 1.63-.889V9.763c0-.652.139-.784.598-.784.338 0 .919.171 2.274 1.476 1.548 1.548 1.804 2.243 2.674 2.243h2.284c.651 0 .978-.326.79-.97-.205-.64-.945-1.573-1.926-2.676-.533-.629-1.33-1.306-1.573-1.645-.338-.436-.24-.629 0-1.016.001 0 2.784-3.918 3.073-5.25z" fill="#9B9B9B"/></svg>