<svg width="21" height="17" fill="none" xmlns="http://www.w3.org/2000/svg"><path d="M19.4.224l.206.455c.263-.119.429-.056.506.02.084.08.213.32.084.836l-.002.009-.002.009-3.017 14.217v.001c-.092.44-.24.56-.31.593-.073.032-.25.056-.598-.13l-4.568-3.373-.341-.252-.304.296-2.208 2.147h-.001l-.018.018.245-3.653 8.373-7.556.002-.002c.121-.108.293-.3.303-.566a.606.606 0 00-.142-.414.665.665 0 00-.295-.199 1.01 1.01 0 00-.527-.019 1.63 1.63 0 00-.512.207h0l-.007.004L5.94 9.39 1.612 8.04h0-.002a1.015 1.015 0 01-.336-.159.552.552 0 01.06-.06 1.9 1.9 0 01.534-.3L19.58.69 19.4.224z" fill="#9B9B9B" stroke="#9B9B9B"/></svg>