<svg width="23" height="26" fill="none" xmlns="http://www.w3.org/2000/svg"><path d="M7.458 3.796a8.902 8.902 0 017.584 0A8.759 8.759 0 0119.82 9.71a8.712 8.712 0 01-1.572 7.27l-.776 1.013a11.45 11.45 0 01-1.283 1.412l-4.741 4.41a.29.29 0 01-.396 0l-4.74-4.41a11.416 11.416 0 01-1.284-1.412l-.776-1.012A8.712 8.712 0 012.68 9.71a8.759 8.759 0 014.778-5.915z" fill="#CDCC42" stroke="#CDCC42" stroke-width="4" stroke-linecap="round" stroke-linejoin="round"/><path d="M9.583 7.394a3.907 3.907 0 013.334 0l.059.027a3.772 3.772 0 012.064 2.556 3.8 3.8 0 01-.757 3.249 3.86 3.86 0 01-2.98 1.424h-.105a3.86 3.86 0 01-2.98-1.424 3.8 3.8 0 01-.758-3.249 3.772 3.772 0 012.064-2.556l.059-.027z" fill="#fff" stroke="#fff" stroke-width="4" stroke-linecap="round" stroke-linejoin="round"/></svg>