<svg width="34" height="44" fill="none" xmlns="http://www.w3.org/2000/svg"><path d="M31.4 13.922c.574 0 .87-.681.502-1.107l.16.162c.6.606.938 1.428.938 2.285V39.77c0 1.784-1.433 3.23-3.2 3.23H4.2C2.433 43 1 41.553 1 39.77V4.23C1 2.447 2.433 1 4.2 1l14.674.002c.848 0 1.662.34 2.262.946l.147.148c-.422-.354-1.083-.056-1.083.518m11.2 11.308h-8c-1.767 0-3.2-1.447-3.2-3.231V2.614m11.2 11.308c.59 0 .886-.722.469-1.143L21.33 2.14c-.417-.421-1.131-.122-1.131.474" stroke="#9B9B9B" stroke-width="2" stroke-linecap="round" stroke-linejoin="round"/><path d="M12.303 31.652s-6.486 2.635-5.112 4.73c1.826 2.782 5.112-4.73 5.112-4.73zm0 0s2.353-.974 3.833-1.39c1.598-.45 4.016-.743 4.016-.743m-7.85 2.133s1.39-2.144 2.1-3.616c.725-1.504 1.551-3.988 1.551-3.988m0 0S18.323 17 15.68 17c-2.644 0 .273 7.048.273 7.048zm0 0s.767 2.133 1.643 3.246c.822 1.043 2.556 2.225 2.556 2.225m0 0s6.663 3.71 6.845.928c.16-2.431-6.845-.928-6.845-.928z" stroke="#9B9B9B"/></svg>