<svg width="21" height="21" fill="none" xmlns="http://www.w3.org/2000/svg"><g clip-path="url(#clip0)"><path d="M20.333 5.923a2.322 2.322 0 00-.638-1.059 2.541 2.541 0 00-1.115-.618c-1.565-.413-7.835-.413-7.835-.413a63.854 63.854 0 00-7.825.392 2.633 2.633 0 00-1.115.633 2.414 2.414 0 00-.648 1.064A24.242 24.242 0 00.75 10.5c-.01 1.534.126 3.067.407 4.578.114.4.336.764.646 1.058.309.294.694.506 1.117.619 1.586.412 7.825.412 7.825.412 2.617.03 5.234-.101 7.835-.392.418-.108.802-.32 1.115-.618.308-.294.527-.66.637-1.059a23.65 23.65 0 00.418-4.579 22.148 22.148 0 00-.417-4.597zm-11.581 7.43V7.648l5.216 2.853-5.216 2.852z" fill="#9B9B9B"/></g><defs><clipPath id="clip0"><path fill="#fff" transform="translate(.75 .5)" d="M0 0h20v20H0z"/></clipPath></defs></svg>