<svg width="15" height="14" fill="none" xmlns="http://www.w3.org/2000/svg"><path d="M7.493 4.286v5.243m0 0L5 7m2.493 2.529L10 7M7.5.5l.728.04.718.123.7.202.674.279.638.352.595.422.543.486.486.543.422.595.352.638.28.673.201.7.122.72L14 7l-.04.728-.123.718-.202.7-.279.674-.352.638-.422.595-.486.543-.543.486-.595.422-.638.352-.673.28-.7.201-.72.122-.727.041-.728-.04-.718-.123-.7-.202-.674-.279-.638-.352-.595-.422-.543-.486-.486-.543-.422-.595-.352-.638-.28-.673-.201-.7-.122-.72L1 7l.04-.728.123-.718.202-.7.279-.674.352-.638.422-.595.486-.543.543-.486.595-.422.638-.352.673-.28.7-.201.72-.122L7.5.5z" stroke="#9B9B9B" stroke-linecap="round" stroke-linejoin="round"/></svg>