<svg width="13" height="13" fill="none" xmlns="http://www.w3.org/2000/svg"><path d="M6.5 0a4.808 4.808 0 00-4.802 4.802c0 .872.39 1.81.407 1.85.126.299.376.764.555 1.037l3.293 4.99c.135.204.334.321.547.321.213 0 .412-.117.547-.322L10.34 7.69a7.71 7.71 0 00.555-1.038c.017-.04.407-.977.407-1.849A4.808 4.808 0 006.5 0zm3.874 6.432a7.092 7.092 0 01-.506.946l-3.293 4.99c-.065.098-.085.098-.15 0l-3.293-4.99a7.1 7.1 0 01-.506-.946c-.005-.012-.363-.875-.363-1.63 0-2.336 1.9-4.237 4.237-4.237 2.336 0 4.237 1.9 4.237 4.237 0 .756-.359 1.621-.363 1.63z" fill="#CDCC42"/><path d="M6.5 2.26a2.545 2.545 0 00-2.542 2.543A2.545 2.545 0 006.5 7.345a2.545 2.545 0 002.542-2.542A2.545 2.545 0 006.5 2.26zm0 4.52a1.98 1.98 0 01-1.977-1.978A1.98 1.98 0 016.5 2.825a1.98 1.98 0 011.977 1.978A1.98 1.98 0 016.5 6.78z" fill="#CDCC42"/></svg>