<svg width="1920" height="1340" fill="none" xmlns="http://www.w3.org/2000/svg"><path fill="#14120B" d="M0 0h1920v1340H0z"/><path stroke="#fff" stroke-opacity=".06" d="M342.5 2.062V1340M716.5 2.062V1340m487-1337.938V1340m375-1337.938V1340"/><path d="M716.536 407.154v3.644m0 3.645v-3.645m0 0H713h7.071M1578.54 723.6v3.644m0 3.645v-3.645m0 0H1575h7.07m-379.53 576.676v3.65m0 3.64v-3.64m0 0H1199h7.07M342.536 183.477v3.644m0 3.645v-3.645m0 0H339h7.071M342.536 857.6v3.644m0 3.645v-3.645m0 0H339h7.071" stroke="#fff"/></svg>