<svg width="1192" height="615" fill="none" xmlns="http://www.w3.org/2000/svg"><g clip-path="url(#clip0)" fill-rule="evenodd" clip-rule="evenodd" fill="#9B9B9B"><path d="M946.32 122.561l-.979 2.769 2.446 1.627 2.764-1.627-.974-3.418-3.257.649zm-233.061 73.913l4.466 3.543 2.049-3.232.684-2.672-2.483-1.553-2.979-.435-1.737 4.349zm-8.689 10.504l1.426 1.8 4.964-3.045-1.117-2.982-3.103-.124-1.737 2.672-.433 1.679zm109.958-46.165l7.494.975.325 3.745-2.932.814-3.419-2.118-1.468-3.416zm19.711-12.371l1.304 6.021h3.095l.651-5.371-3.095-2.603-1.955 1.953zm6.841 5.044v6.838l7.656-1.627 7.17-3.745-2.442-5.535-4.728-.651-3.582-.813-2.608 3.908-1.466 1.625zm2.445-38.085l2.283 4.883 14.658.161 4.238-7.812-2.772-6.023-3.094 3.42-6.028-.489-1.628 2.766h-3.257l-.488 3.255-3.912-.161zm-5.702-24.417l-.976 3.582 2.933.65 1.137-3.092-3.094-1.14zm-7.82 31.577l3.425 5.209 6.352 1.303.162-7.327-2.119-3.58-7.493-.486-3.909 2.765-6.026-.976-.489 4.069 3.582 3.745-1.952 2.279-5.705-4.721-6.843.652-.487 5.533.653 5.697 3.091 3.906 1.142 4.394 6.353 1.79 5.864-.487-.486-6.186 4.237.489 3.257-5.372 3.907.814 2.607-2.929-2.607-2.605-5.699-1.627-4.56-5.372 3.743-.977zm-28.671 13.673l.979 4.395 3.908 4.557 2.444-.975-2.932-5.372-4.399-2.605zm169.04-9.682l-1.974 3.827-10.652 5.995-7.739-7.351-7.744-.772-11.039 7.157-7.548 9.286-2.713 9.477-5.031 1.547-6.198-3.094-6 .579-3.098 4.064-2.711-2.323-2.517 2.711-3.094-2.903 4.448-4.449-10.452-.775-6.003 5.224 3.292 11.22-6.003 5.801v-8.703h-4.065l-4.066 3.675-.967-4.45 6.003-5.417-6.391.389-18.973 9.671 3.678 4.448-5.42 5.224 2.129 3.868 3.874-1.935.387 5.612 4.645 5.416-7.165 1.74-2.128 2.903 1.937 4.64-5.807.969-7.745-2.322-2.323 8.703-13.168-2.32v19.343l-9.29-1.545-14.329-12.961 5.228-3.675-8.709-12.961-5.617-2.708-8.518 2.9-9.485-3.673-1.357 14.7-17.229 7.351-6.582-4.451.965-3.479-17.616-.194-4.648 6.19-1.163 4.063-1.158-5.997-3.294-2.903-3.87 4.063-5.369 2.681-.297 3.685 2.508 3.341.049.068.018.081 1.138 5.959 8.297 11.725.066.095v7.746l4.233 5.074.238.282-.288.231-9.669 7.67-.558 4.452-.013.086-.046.071-2.265 3.395-1.708 8.265-.07.325-.325-.04-4.74-.558-7.653 6.229-.029.024-.034.017-2.57 1.325 6.069 9.271.051.079.008.09 2.061 25.913.013.15-.104.118-5.336 5.895 3.519 2.708.18.136-1.483 7.108 3.12 3.401.091.1v4.956l3.679 2.543.229.162-.095.263-1.772 4.707-.02.062-.038.046-5.531 6.69-.533 4.789h9.15l.101.08 3.92 3.075 4.202-2.798.276-.182.209.258 2.357 2.941.187.242-.015.018 3.086 4.672.199.306-.308.198-3.499 2.223v4.138l3.874.299 3.229-2.26.338-.233.187.362 4.003 7.667.044.082-.003.098-.326 9.109 5.145 2.894.238.132-.063.267-2.308 9.544 2.888 6.405 6.516 1.951.381.117-.157.371-4.978 11.612-.988 14.446 5.006 5.316 5.417-4.138.086-.067.119-.004 8.135-.323 2.902-5.163.233-.411.338.332 4.395 4.391 5.719-6.662 8.985-19.288.079-.17.187-.033 6.008-1 .101-.016.091.038 11.675 4.665.156.062.053.159 2.541 7.62 6.977-3.171.184-.083.17.115 4.337 3.001.082.058.043.093 7.856 17.801 10.209 18.907 6.425-4.198.028-.021.033-.012 6.675-2.669.194-.079.167.132 5.098 4.142 2.771-2.464.246-.215.24.219 4.083 3.767 3.759-3.753.108-.113.157.004 9.34.337.12.004.094.071 5.843 4.541 11.488-4.262.197-.07.159.132 3.828 3.189 15.807-7.239.109-.053.115.025 4.566.978 4.962-1.857-.617-3.708-.046-.257.233-.122 12.231-6.354-3.059-8.616-.074-.203.15-.16 4.108-4.399-1.701-4.246-7.822-5.111-.272-.178.152-.287 4.114-7.937-7.656-5.294-.329-.229.262-.301 3.567-4.161v-17.76l.233-.09 15.013-5.7.587-6.775.03-.307.307-.022 8.902-.59 2.025-5.495-.3-5.705-.013-.242 4.511-2.103-3.233-11.448-5.98-4.188-.212-.145.07-.246 3.924-13.884-5.436-14.495-.071-.188.12-.156 3.045-3.956.159-.206.241.084 10.568 3.618 6.744-1.465 2.359-4.121.087-.151.175-.025 7.99-1.184 1.425-5.12-13.296-27.561-.051-.11.021-.115 1.348-6.739.031-.139.116-.085 8.914-6.286-3.361-6.458-.126-.242.2-.186 8.631-8.086.089-.084.12-.012 7.686-.794 4.411-4.928.781-8.596-4.989-4.46-.111-.102-.009-.15-.264-5.557-3.186-4.77-.166-.255.225-.209 3.796-3.539-4.095-4.86-.226-.263.254-.232 9.98-9.163.046-.045.063-.022 4.488-1.846 3.328-4.863-6.287-13.082h-7.94l-.071-.03-6.203-2.694-.136-.062-.053-.139-3.238-8.355-.08-.201.142-.161 12.588-14.723v-7.233l-16.47-12.345zm19.537-96.382l8.35 9.885 1.821-1.824 2.28-11.405 2.74-5.323-3.04-4.107-7.595.608-4.556 6.843v5.322z"/><path d="M1118.79 129.657l-1.9-20.944-5.81-3.287 13.75-9.48-1.94-6.383-25.56-2.13-3.09 4.064-6.97.58-.77 5.416-5.62-.387v-7.543l6.39-2.13 2.52-5.22-1.36-13.735-2.52-.966-3.1 1.933-.19-5.028-6 2.319-4.07-4.642 1.55-7.544 5.04 4.45 2.9-2.322 4.26 4.643 2.52-5.803-.58-6.964 4.64-3.87 8.13.776 13.55-10.252-3.29-3.871 6.78.968-.19-6.577-7.36 1.354-2.13-4.641-9.87-1.935 3.87-4.836-5.04-3.675 4.65-3.289-5.81-7.546-16.45 9.673-.97 7.931-4.46 5.803 11.04 4.45-6 2.708-17.81-4.835-20.72 13.733-30.97 16.828-8.33 13.542.78 4.06-5.62 1.548-7.935 7.16 5.616 6.963 5.031-1.547 7.548 4.256-.77 7.544-6.968.772-4.65 2.708-9.872-6.19v12.574l-10.069 7.546-3.886 7.519 16.712 12.524.147.108v7.856l-.089.102-12.537 14.661 3.107 8.013 5.995 2.603h8.242l.101.208 3.153 6.562 5.204.782.18.025.08.154 3.34 5.906 6.98-3.357.13-.062.14.043 6.55 2.093 4.97-4.443.09-.085.13-.009 7.68-.529 5.71-5.963-1.05-5.75-.06-.31.31-.097 5.75-1.828 1.56-5.474.07-.234.24-.025 4.9-.516 1.54-4.631.06-.191.2-.044 9.02-2.121 2.35-4.173.09-.171.2-.013 13.49-.809.26-.015.1.252 3.11 8.573 9.39-2.865.05-.017.06.001 10.26.264 8.28-23.738.13-.394.37.193 5 2.627 6.39-1.935zm63.36 106.227l3.01 3.01 5.88-4.815-2.57-.603-6.32 2.408zm-25.25 127l.47 2.26 2.92 1.882 1.41-3.576-1.6-2.635-3.2 2.069zm9.22-4.324l-.47 2.164 3.2 1.219 1.7-1.88-3.11-2.727-1.32 1.224zm-1.97 4.704l-.75 8.934 3.48 4.517 3.2-1.507-.66-8.84-2.54-2.352-2.73-.752zm4.99 19.843l-.47 3.292 1.5 3.293 4.14-1.882.57-2.16-5.74-2.543zm5.32 26.147l-1.54 2.95 2.32 3.338 2.82-2.692-1.8-3.343-1.8-.253zm.26 16.565l1.54 2.568 2.19-.769.51-4.114-2.83-.64-1.41 2.955zm1.93 6.676l-2.31 2.437 1.8 4.883 5.39-1.415-1.8-5.007-3.08-.898zm-3.6 20.289l-2.7 2.697.26 11.557.13 2.699h2.83l2.31-6.681-.51-6.547-2.32-3.725zm-8.1 22.088l2.83.129.9 3.721-2.06 3.213-2.69 3.851-.26 4.236-.77 5.265-.52 3.983-1.28-.64-1.03-6.934-.26-8.608 3.47-3.595 1.93-1.669-.26-2.952zm-10.19 45.949l1.39-.615.56-10.035 1.73-2.006.33-2.622-1.84-1.169-2.84 1.335-1.56 1.227 1.4 4.405-.51 5.689 1.34 3.791zm10.58-10.092l.95 2.171 2.84-1.002-.62-3.01-1.56-2.175-1.55 1.505-.06 2.511zm-54.59-294.861l-2.26 6.772 8.59 9.631 1.2-13.844-4.67-2.107-2.86-.452zm56.64 25.283l2.25 3.462 8.59 1.354 3.47-1.805-2.11-3.613-6.33-.752-5.87 1.354z"/><path d="M1011.42 317.365l5.18-3.414 3.49-2.903 4.84-1.161-1.55-9.863 8.52-2.709 6.58-5.803 6-.195-4.45 6.386 4.26 3.675 6.19-6.965 1.55-11.025 5.61-2.128 4.46-5.804-4.65-3.482-4.06 5.031-4.26-4.064-1.16-19.924-3.68-11.799 1.16-8.706 7.16-10.252 4.07-.192 1.94-5.803 8.32 11.414 5.81-.969.39-4.256-1.36-8.705-1.47-6.129-5.59-3.151-.15-.083-.03-.163-1.07-5.587-3.6-3.34-5.81.527-.28.026-.1-.255-3.46-9.05-4.97-1.044-.14-.031-8.05-11.688-5.63 5.878-.1.103-.14.009-7.69.531-5.04 4.497-.15.138-.2-.064-6.6-2.111-7.15 3.442-.31.145-.17-.294-3.42-6.042-4.546-.683 2.943 6.124.09.189-.117.17-3.506 5.122-.062.087-.1.041-4.525 1.863-9.681 8.887 4.316 5.119-.249.233-3.825 3.564 3.07 4.597.055.08.003.102.264 5.511 5.01 4.48.137.119-.015.18-.813 8.893-.009.12-.078.089-4.588 5.12-.09.104-.138.015-7.702.796-8.343 7.814 3.377 6.495.147.28-.258.183-9.054 6.382-1.295 6.482 13.118 27.198 6.053-4.029.145-.098.166.058 13.705 4.564.2.067.042.203 1.521 7.605.024.127-.062.116-3.257 5.923 2.462 4.923 5.445-4.005.1-.07h7.33l.1.181 3.45 6.031zm10.57 234.567l-.74 22.58 4.07 6.962-15.88 1.358-5.23 11.412 14.72 15.088.38 5.61 8.13-7.737 13.94.191 10.07-8.124 6-11.991 2.91-32.889 4.06-17.214-2.7-20.144-3.98-1.127-.22-.058-.04-.218-.96-4.819-6.62-4.723-7.41 5.551 4.4 4.762 7.01.586.38.03-.05.378-1.6 10.908-.04.3-.3.009-4.97.188.75 6.953.02.218-.18.12-7.14 4.761-.08.051-.1.009-11.74.781-2.95 3.858 2.28 4.557.21.412-.45.101-5.95 1.31z"/><path d="M1015.51 527.596l5.16 8.42-1.94 6.195 3.15 9.005 5.45-1.198-2.17-4.344-.1-.205.14-.174 3.17-4.168.1-.133.16-.007 11.82-.787 6.88-4.587-.81-7.504.39-.017 5.05-.188 1.49-10.23-6.76-.566-.14-.012-.09-.1-4.77-5.156-.27-.296.32-.237 7.94-5.952.21-.158.22.154 6.94 4.957.12.083.03.142.95 4.741 3.54 1.003 1.77-22.817-2.52-7.155-11.23-22.823-3.68-4.45-3.29-16.057-2.24-5.341-.79-.865-8.39-3.467-2.91-3.479 2.52-5.033-6.19-2.513-12.97-2.322-10.07 5.222-3.489 15.285-4.257-5.421-4.841 6.194-4.066-11.8-8.518 5.22-7.165-1.158.387-6.771 9.294-23.212 2.324-23.211 2.708-11.221-2.321-9.286 3.095-8.315-1.354-8.899 19.553-19.151 6.2 1.157.58-2.319-1.74-2.708 2.72-1.797-3.36-5.891h-6.68l-5.692 4.19-.343.252-.189-.381-2.741-5.479-.089-.167.093-.166 3.287-5.968-1.46-7.276-13.333-4.442-6.141 4.089-1.483 5.348-.067.225-.228.036-8.048 1.19-2.349 4.109-.079.14-.159.031-7.006 1.523-.097.019-.095-.031-10.415-3.565-2.764 3.588 5.41 14.419.042.112-.03.11-3.89 13.755 5.878 4.111.108.076.034.12 3.349 11.87.083.292-.274.129-4.35 2.026.29 5.539.005.076-.024.066-2.133 5.781-.08.221-.233.016-8.826.587-.583 6.694-.021.224-.213.08-14.991 5.692v17.531l-.089.101-3.395 3.957 7.589 5.249.263.184-4.261 8.206 7.644 4.995.097.062 1.87 4.669.083.214-.154.166-4.116 4.403 2.954 8.316 12.142-6.31.241-.127.192.201 4.003 4.333.163.175-.105.222-5.96 12.911.657 6.235.023.232-.201.116-4.477 2.556.299 5.102h10.193l.108.157 4.558 6.832 5.003-.313 8.16-7.504 1.313-5.56.062-.279h6.402l1.904-3.801.117-.233.258.039 4.336.665.221.033.066.218 4.003 12.331.072.209-.159.152-2.667 2.669-.081.079-.118.021-9.869 1.59 2.467 5.232.101.22-.164.179-3.931 4.255-.984 5.563-.018.096-.062.076-5.811 6.775 2.483 3.102.17.215-.166.22-3.927 5.236v6.326l10.476 5.233.08.042.049.071 8.432 11.666 5.272-4.999.11-.101.145.005 11.314.195.125.005.096.074 5.006 4.041 15.1-5.093.62-.209-.16.637-1.58 6.396z"/><path d="M972.674 538.094l5.792 9.143 6.194 5.417 13.163-6.381 1.74-5.42 9.877-11.025 5.39-2.469 1.41-5.692-14.67 4.943-.19.067-.15-.124-5.06-4.087-11.047-.196-5.433 5.153-7.016 10.671zm-105.368-34.375l13.193-6.775 10.069 3.479 12.196-1.931 17.812 17.601 22.07 22.825 8.713-3.48 5.421 2.515 3.873-1.937 7.357 2.322 3.982-.518 6.983-10.623-8.474-11.728-10.597-5.289-.2-.105v-7.005l.071-.096 3.836-5.11-2.495-3.118-.184-.233.191-.225 5.94-6.92.984-5.57.022-.108.07-.075 3.837-4.159-2.563-5.443-.206-.432.473-.076 10.222-1.648 2.434-2.43-3.865-11.908-3.858-.595-1.882 3.761-.101.204h-6.273l-1.272 5.387-.024.108-.083.074-8.34 7.668-.096.081-.125.009-5.339.338-.205.013-.117-.174-4.561-6.839h-10.489l-.021-.341-.334-5.664-.011-.227.191-.107 4.47-2.552-.645-6.098-.009-.099.042-.087 5.903-12.782-3.653-3.954-24.544 12.754.624 3.74.051.292-.281.104-5.335 1.997-.101.039-.099-.022-4.558-.974-15.9 7.279-.209.097-.17-.146-3.845-3.202-11.48 4.262-.192.071-.153-.124-5.917-4.594-9.063-.322-3.895 3.889-.242.244-.254-.237-4.099-3.774-2.757 2.446-.229.205-.237-.196-5.175-4.195-6.439 2.571-6.266 4.1 7.92 5.275.307.206-.212.303-2.363 3.302 3.654 3.65 6.61-3.671.313-.175.18.313 3.162 5.593 5.069-1.202.408-.099.033.424.746 9.946 5.164 2.952.343.196-.224.323-2.904 4.109 8.226 12.327zm173.194-66.085l-.28-.656 11.43 6.193 3.67 9.668 5.62 7.157 6.77 10.835 4.84 7.928 5.62 4.258 1.74 5.028 1.55 4.45 6.97 3.288.97 6.963 7.16 9.094.58-7.933-.97-5.998 5.62-.386 2.13-.966 5.22 2.709-4.25-8.899h-6.2l-6.58-2.9-7.55-5.42-4.84-12.377-2.71-7.934 5.8-3.288 10.85-.577-24.4-16.445-17.23-15.474-7.94-14.896-10.84-7.542-5.03-6.385-3.48 1.548-.78 3.677 6.39 4.449 3.49 5.222-1.94 2.513-3.1-.773-.97 4.45 6.2 4.64 6.19 14.123-.51-.209.79.865zm-926.151-85.55l1.617 3.07-.278 7.127 4.927 2.63.024.012 3.564 2.29 3.299-2.281.101-.071.123.009 4.998.262 5.246-3.202.571-3.991.049-.348.353.044 5.865.783 3.095-.97.292-.087.137.271 2.312 4.624 5.212 1.855 1.155-1.027.353-5.81-3.349-2.518-.135-.101-.012-.166-.24-3.749-2.13-2.011-3.246-2.376-.161-.117.012-.195.365-5.712-6.49-5.022-.113-.092-.022-.142-.597-3.825-2.462-1.174-.206-.098v-2.642l-.985-1.754-3.684-.223-.652 1.524-.076.181-.196.031-1.504.252-.207.035-.131-.164-1.02-1.245h-1.573l-2.407 2.18v4.223l-.07.097-1.422 1.972 1.221.917.135.1.009.166.127 2.008.022.398-.399-.016-2.666-.116-1.074 1.826.764 3.818-.134.136-8.307 8.404z"/><path d="M101.725 312.997l-2.795 3.469-1.355 2.128.58 2.9 2.903 1.354-.386 4.451 7.357 4.643.193 8.509 5.775 10.967 8.011-8.109-.716-3.574-.026-.133.07-.12 1.253-2.136.11-.187.217.011 2.481.109-.089-1.444-1.372-1.027-.28-.214.206-.286 1.559-2.162v-4.009l-5.334-5.46-5.281-1.107-.067-.015-.059-.037-3.76-2.509-.109-.073-.037-.126-.939-3.171-1.907-.319-1.895 1.067-.218.123-.193-.163-3.897-3.35z"/><path d="M106.78 294.195l-3.204 1.38-1.548 3.094-2.326.583-.194 3.866 3.294 1.937-.802 7.229 3.899 3.352 1.784-1.006.112-.061.124.021 2.256.376.223.037.065.218.967 3.262 3.591 2.397 5.32 1.113.107.024.077.08 5.273 5.397 2.376-2.152.103-.093h2.185l.11.132.997 1.22 1.1-.184.596-1.389-2.382-3.22-.065-.084-.009-.106-.23-3.143-2.524-.806-.153-.047-.067-.144-.752-1.629-.032-.075v-2.715l-1.179-1.534-.074-.099v-5.772l-8.471-11.06-10.547-.399zm11.996-25.843l-5.326-.439-3.871-3.675.385-3.482-3.676-.774-2.133 5.222-7.742 6.576.581 4.257 4.064-.192 3.097 2.513 1.163 5.416 3.485-.386 4.066.773v2.708l-5.055 6.645 9.586.364 11.933-8.728-.943-1.545-.055-.088v-2.176l.107-.105 1.419-1.421.033-.028.04-.026 2.028-1.194-.232-1.605-2.411-.173-1.313 1.031-.193.148-.207-.118-2.133-1.218-.091-.052-.05-.095-1.32-2.536-.036-.068-.003-.083-.104-2.332-.001-.103.052-.092 1.234-2.135-5.716-.369-.106-.006-.086-.064-.47-.345z"/><path d="M135.615 235.604l-.869 1.552-6.39 3.675-3.291 5.224-3.484 7.156-.386 5.802.967 3.484-2.517 3.094-.157 2.392.099.073 6.101.392 2.459-1.08.07-.031h.081l4.829.101 2.636-2.437.113-.105.15.009 3.552.203.255.013.07.245 1.496 5.135 1.328-.78.109-.065.125.018 2.642.406.151.025.087.126 1.303 1.855 6.91-.68 4.127-2.654 4.579-6.56.177-1.585-3.151-3.836-.065-.08-.015-.101-.473-3.491-7.757-1.374-.082-.015-.069-.05-3.754-2.739-.07-.05-.037-.072-4.975-9.33-.009-.016-.006-.013-1.572-3.735-1.492-.79-3.009.778-.076.02-.068-.011-.642-.098zm-17.592 58.71l8.421 11 .074.1v5.77l1.177 1.534.075.099v2.803l.656 1.416 2.554.812 3.908.192 1.21-2.139.036-.062.052-.04 7.399-5.995.77-6.061-3.212-2.918-.052-.048-.033-.067-1.624-3.552-.036-.077.003-.082.198-6.166-9.755-5.165-11.821 8.646z"/><path d="M143.875 310.495l-7.182 5.818-1.289 2.272-.108.194-.22-.012-3.765-.182.21 2.881 2.345 3.167 3.968.241.197.011.096.173 1.126 2.005.049.084v2.376l2.425 1.156.172.08.028.191.605 3.872 6.354 4.926 3.085-1.424.819-1.91-.483-3.087-.893-1.883-.08-.168.092-.163 1.32-2.334.059-.101.104-.047 5.43-2.514 3.197-2.903.095-3.535-.761-2.373-2.859-2.266-.077-.064-.036-.093-.936-2.528-2.723-.273-4.276 1.99-.089.039-.099-.009-3.045-.305-.147-.015-.096-.114-2.612-3.173z"/><path d="M162.263 322.831l-.015.558-.003.153-.112.102-3.349 3.044-.042.037-.05.024-5.377 2.486-1.17 2.066.833 1.762.021.043.009.057.509 3.246.015.1-.04.096-.913 2.127-.054.129-.126.057-3.212 1.482-.351 5.486 3.1 2.269.01.008.024.02 2.254 2.136.104.096.009.141.24 3.724 3.251 2.441 4.76-.826 9.518-4.905 1.201-1.661.101-7.902v-.028l.003-.025.915-5.378.018-.095.061-.074 4.163-4.935-3.343-3.7-1.977 1.258-.043.027-.046.015-1.727.508-.148.04-.134-.076-2.638-1.522-.088-.05-.049-.089-2.339-4.284-3.773-.188zm-21.945-32l-.194 6.107 1.557 3.401 3.297 2.995.138.128-.025.185-.791 6.235 2.651 3.215 2.799.28 4.274-1.988.088-.04.101.009 2.708.271.249-1.59.015-.091.049-.069 1.929-2.637.012-.015.015-.016 3.864-4.157v-2.747l.105-.104 2.314-2.315-.472-4.724-2.793-1.732-.09-.055-.046-.094-1.213-2.525-5.902.286-1.418 1.703-.2.238-.264-.16-5.133-3.119-1.438-.449-6.186 3.574z"/><path d="M163.579 303.546l-3.844 4.136-1.868 2.557-.276 1.741.947 2.559 2.867 2.269.086.068.032.104.813 2.536.018.059-.002.059-.066 2.476 3.986.2.204.009.095.178 2.387 4.375 2.42 1.393 1.529-.451 2.189-1.391.258-.165.203.227 3.695 4.092 2.484.858 2.24-.092 7.416-6.61.013-.011.021-.015 3.933-2.78-.918-2.481-1.511-4.126-7.599-12.787-4.635-.189-1.615 1.425-.209.185-.228-.153-1.829-1.218-.006-.006-1.805-1.263-.906.741-.064.049-.079.021-3.248.811-.12.031-.114-.052-1.814-.814-1.243 1.156-.099.089-.129.006-3.609.194zm-2.679-15.511l1.102-1.375 1.759-2.54v-5.967l-2.756-1.519-.077-.043-.052-.078-2.132-3.348-.04-.066-.012-.075-.525-3.407-3.796 2.441-.071.046-.088.009-7.209.71-.208.019-.12-.172-1.333-1.9-2.365-.364-1.612.948-.396.236-.132-.445-1.551-5.333-3.148-.179-2.629 2.43-.107.099-.145-.003-4.892-.101-2.36 1.039-1.409 2.441.092 2.149 1.236 2.371 1.828 1.045 1.23-.967.11-.087.139.012 2.84.203.293.021.038.289.304 2.128.037.238-.209.123-2.19 1.294-1.286 1.285v1.676l1.01 1.654 9.89 5.235 6.324-3.651.135-.08.151.047 1.626.506.037.011.04.027 4.912 2.983 1.326-1.588.101-.123.159-.006 6.131-.298z"/><path d="M158.818 269.103l.575 3.742 2.04 3.201 2.864 1.581.188.101v6.614l-.065.093-1.826 2.637-.018.019-1.077 1.344 1.178 2.439 2.855 1.773.15.092.016.177.509 5.073.016.171-.118.118-2.332 2.331v2.208l3.247-.176 1.324-1.227.177-.166.216.099 1.917.863 3.046-.762 1.058-.863.209-.173.224.156 2.023 1.415 1.599 1.065 1.518-1.339.107-.097.146.006 4.767.194 1.796-2.735 1.226-3.484-1.146-1.058-.025-.023-.017-.019-2.131-2.738-.037-.049-.022-.063-1.724-5.272-.037-.113.037-.11 1.216-3.752.024-.071.046-.055 3.96-4.564.018-.018.012-.012 2.45-2.252.55-2.758-3.125-3.693-7.444.099-.108.002-.091-.058-8.222-5.274-.177-.116.013-.207.187-3.112-.974-.488-.832.833-.083.083-.122.018-7.032.975-.071.634-.01.092-.051.074-4.587 6.575z"/><path d="M191.021 276.383l-1.976 1.815-3.895 4.489-1.158 3.57 1.669 5.102 2.077 2.669 1.297 1.194.172.16-.077.226-1.319 3.75-.015.046-.023.033-1.807 2.755 7.415 12.479 5.17-3.09.081-.047.094-.003 6.559-.219 7.209-4.344-1.507-4.218-7.058-9.036-3.491-1.527-.072-.031-.052-.055-2.68-2.903-.203-.219.18-.24 1.966-2.62.828-3.305-1.639-1.636-3.543 2.918-.26.215-.231-.245-3.355-3.574-.088-.093-.009-.129-.259-3.887z"/><path d="M200.583 281.972l.477.476.144.142-.05.2-.893 3.572-.021.07-.043.059-1.83 2.441 2.428 2.627 3.505 1.532.084.036.055.074 7.152 9.152.037.051.019.052 1.519 4.254 2.329-.464 1.689-2.43.1-.142.173-.012 4.325-.332.156-.012.115.11 1.693 1.588 2.71-1.548.787-9.399-4.263-2.341-.176-.098-.01-.2-.216-3.869-1.971-1.771-3.153 1.051-.145.048-.137-.072-10.407-5.531-6.182.686z"/><path d="M211.166 282.808l6.211 3.3 3.202-1.067.201-.066.155.139 2.234 2.01.111.099.009.149.211 3.819 4.297 2.361.204.113-.019.231-.792 9.435 12.81.109 1.575-1.048.094-.064.114.003 4.214.113.249.006.084.231 1.168 3.291 3.404 1.488.065.028.047.049 2.906 2.954 4.731-4.817.11-.111.153.003 11.492.218.212-7.236.004-.134.089-.1 2.226-2.426-2.517-2.515-6.06 1.513-.141.037-.127-.076-9.164-5.358-.086-.052-.047-.088-5.541-10.183-8.333-5.042-12.749-.658-4.368 3.056-.083.061-.106.005-4.953.214-1.464 2.298-.045.07-.073.044-5.914 3.594zm-19.131-10.682l5.478-2.476-.755-2.565-.025-.08.016-.083 1.685-9.268.059-.317.32.02 4.73.328 5.997-5.83-.785-6.918-5.858.037-.039.378-.525-.466-6.459-5.749-3.867.234-.141.009-.107-.089-4.626-3.777-.092-.076-.029-.12-.82-3.399-3.444-2.45-1.264.971-.583 3.153-.058.323-.325-.028-8.519-.73-.117-.009-.091-.082-2.856-2.5-8.314-2.172-.066-.018-.055-.039-4.382-3.168-.019-.013-.024-.024-2.313-2.321-2.246 2.244-1.315 5.479-.015.062-.033.052-2.461 3.795-.083.129-.148.029-5.774 1.115 1.448 3.432 4.925 9.24 3.619 2.639 7.938 1.407.261.045.034.261.494 3.653 3.183 3.875.098.119-.016.148-.051.452 6.728-.933.93-.93.184-.182.233.116 1.419.711.214.105-.013.237-.192 3.139 7.956 5.101 7.503-.099.171-.003.11.13 3.172 3.746z"/><path d="M227.503 273.06l-4.68-4.467-.154-.148.058-.207 1.803-6.562-3.476-4.264-3.023.16-.117.005-.095-.062-7.855-5.069-6.032 5.867-.117.113-.159-.012-4.571-.316-1.614 8.865.82 2.785.089.301-.286.127-5.839 2.641-.565 2.817.302 4.461 3.032 3.232 3.542-2.912.252-.208.23.23.882.885 6.869-.763.113-.014.095.054 3.42 1.815 6.208-3.77 1.521-2.386.102-.159.185-.008 5.036-.218 4.024-2.813zm-8.72 138.442l-.206 4.391 2.321 5.61 2.711-.579 1.936-1.744 4.067 1.935-.194 2.711-1.162 2.513 1.356 1.547 3.871 1.353 1.548 5.416 1.549 6.771-1.741 4.258 1.741 3.479 4.454-2.704 1.935.578 1.356 2.9.967 5.033 2.903 2.126 3.488-2.322 3.291.196 6.194 2.706-.194 2.9 1.355 2.322 3.099.584 2.515-2.711 2.712 2.711 3.485 2.125-.776 5.416.776 3.096 3.484 3.866 2.903.97 2.905-1.745 2.324.775 1.743 3.485 7.162 2.322 3.097-2.322 3.099-4.449-5.478-11.979-.491-.333-.096-.071-.042-.117-1.277-3.828.201-.156 2.973-2.325.72-2.152-1.47-3.183-7.676-2.347-3.571.942-1.851 4.356-.105.24-.263-.025-4.633-.448-.129-.013-.091-.092-4.221-4.216-7.805-1.783-.163-.036-.075-.151-1.696-3.275-.115-.225.173-.182 3.045-3.25-1.912-2.016-.109-.112.007-.153.113-2.032.015-.253.243-.071 2.809-.833.3-4.766-4.015.2-1.954 1.303-.489.324-.068-.582-.678-5.643-.034-.28.261-.1 1.817-.708.204-3.346-1.82-2.03-.096-.109.004-.142.224-7.891-2.192-3.062-.067-.098v-10.644l-2.115-4.671-.048-.113.028-.115.974-4.221-2.793-3.143-.117.492-.004.021-1.443 4.765-.009.033-.017.034-1.109 2.101-.049.095-.096.055-8.228 4.605-2.057 3.786-.07.129-.139.043-5.657 1.772-.028.008-.027.004-2.893.43-5.798 5.026-.089.079-.119.009-8.377.653-.221.297zm-40.688-3.381l3.696 3.517-.389 3.866-.965 3.098 2.127 3.87 4.261-1.935 2.128-4.259 2.519-2.705 6.002 1.161 3.291-2.709 2.321-.196 1.743 1.358 6.003-.387 4.452-1.162 2.993-.661.181-.242.104-2.626-.317-2.215-2.945-4.249-.074-.108.009-.129.435-5.178-3.349-4.208-.049-.063-.021-.074-1.218-4.766-.009-.029-.001-.033-.208-2.755-2.763-.92-.035-.013-.023-.012-8.208-4.433-.185-.099-.005-.209-.103-4.469-8.029-1.39-.064-.014-.056-.028-8.542-4.989-.178-.106v-2.992l-1.192-2.082-4.14-.428-.175-.016-.092-.146-6.078-9.56-8.082 4.165-.047.026-.054.008-4.683.812-.359 5.864-.009.15-.113.096-1.293 1.157.373 4.665 2.431 3.176 3.633.762.102.021.074.074 6.54 6.336.109.103v5.035l-.093.105-2.888 3.273-.17 3.083 2.331.166 2.694-1.153.482-.208.019.529.194 5.237 1.641 2.366 3.819.762.282.059.007.286.208 8.77z"/><path d="M211.539 384.27l.199 2.704 1.194 4.661 3.389 4.258.091.118-.012.135-.432 5.196 2.921 4.216.048.071.011.081.332 2.328.005.029-.003.038-.092 2.364 8.021-.625 5.787-5.018.079-.071.104-.018 2.966-.437 5.494-1.722 2.036-3.75.049-.093.089-.049 8.227-4.603 1.043-1.977 1.428-4.724.516-2.165-4.099-5.922-1.752-1.56-1.878 1.281-.06.042-.07.016-1.666.329-.23.051-.135-.196-3.337-4.791-1.008.753-4.195 4.413-.034.037-.044.025-2.439 1.439-.127.076-.146-.037-3.104-.775-.083-.02-.067-.059-4.752-4.195-3.208-2.352-2.965.317-4.939.645-1.959 2.78-.086 1.215 1.56.778.239.117-.048.262-.553 3.218-.032.191-.181.078-2.092.897z"/><path d="M200.209 373.993l.101 4.399 8.002 4.32 2.83.941 2.024-.865.476-2.761-1.535-.765-.215-.108.018-.238.11-1.552.006-.101.059-.083 2.108-2.992.092-.129.157-.02 5.101-.663.008-.004 3.106-.329.138-.015.114.081 3.326 2.441.009.003.016.018 4.702 4.148 2.88.721 2.272-1.341 4.18-4.394.019-.022.025-.021 1.031-.773-3.091-3.81-.19-.236.196-.225 1.341-1.549-.291-3.307-6.237-.426-.17-.007-.1-.142-3.559-5.066-4.482-.213-.229-.01-.089-.214-1.643-4.048-4.896-5.832-.665.815-.87 4.345-.015.071-.04.058-1.107 1.661-.154.235-.265-.094-7.508-2.605v7.946l-.091.099-1.61 1.811 1.438 2.773.073.136-.052.15-.666 1.887-.028.074-.067.062-6.093 5.765z"/><path d="M183.869 332.066l-2.17.092-.067.003-.064-.024-2.405-.833-4.143 4.91-.894 5.252-.1 7.983-.001.113-.067.094-1.32 1.825-.05.071-.076.041-.918.47 5.946 9.361 4.15.424.185.019.092.161 1.332 2.325.048.084v2.771l8.304 4.849 8.081 1.404 6.012-5.691.586-1.655-1.48-2.856-.113-.221.165-.184 1.683-1.893v-7.841l-2.883-.196-.211-.016-.093-.191-2.025-4.375-4.639-.824-1.534 1.326-.324.28-.22-.366-2.885-4.766-.044-.071-.006-.083-.418-5.323h-5.132l-.086-.24-2.216-6.209z"/><path d="M195.754 322.531l-3.894 2.751-7.318 6.522 2.135 5.991h5.293l.027.334.437 5.564 2.617 4.329 1.343-1.16.131-.115.166.03 4.989.886.189.034.078.171 2.016 4.354 2.622.179v-.122l.475.166 7.723 2.681.918-1.374.872-4.361.018-.087.058-.071.985-1.202 1.601-2.669.094-1.901-2.137-1.226-.152-.086-.026-.175-.307-2.26-1.317-.741-.705 1.146-.102.161-.192.008-5.201.213-.687 1.715-.289-.048-2.661-.443-.176-.029-.082-.155-2.774-5.21-.032-.059-.006-.076-.764-7.63-5.965-6.035zm24.297 20.916l-.105 2.131-.048.076-1.532 2.552 5.049 6.012.039.043.02.053.709 1.747 3.738-1.073.018-.007.035-.004 4.938-.63.517-3.825.024-.178.157-.087 2.552-1.441.045-.025.045-.013 5.083-1.269.519-4.244-1.393-7.493-9.676-3.115-5.537 1.567-.532 5.739-.014.163-.133.095-4.518 3.226z"/><path d="M193.695 315.32l1.422 3.878.988 2.665 6.216 6.288.089.09.012.128.77 7.683 2.658 4.994 2.198.367.559-1.395.088-.216.232-.009 5.242-.217.788-1.277.181-.295.304.171 1.772.998.156.088.026.179.307 2.259 1.978 1.129 4.336-3.097.54-5.818.024-.249.237-.067 5.623-1.589.274-8.728.334-.014 5.08-.22 2.734-2.185.198-.16.217.136 5.473 3.431 4.322-6.045.21-.295.294.215 5.142 3.713 3.578-1.577 1.565-1.856-3.047-3.965-6.265-6.368-3.484-1.522-.145-.064-.052-.148-1.136-3.201-3.852-.101-1.571 1.045-.089.061-.114-.003-13.212-.107-3.022 1.725-.231.131-.196-.183-1.768-1.661-3.997.307-1.677 2.405-.082.121-.145.029-2.711.542-7.488 4.51-.08.048-.095.005-6.563.218-5.145 3.073z"/><path d="M244.528 324.978l-5.418-3.395-2.625 2.097-.092.072-.117.008-4.862.209-.252 8.054 9.724 3.131.203.065.041.212 1.441 7.758.011.054-.006.054-.482 3.941 2.62-1.036.037-.016.046-.005 8.134-1.127.081-.012.076.025 5.762 1.805.131.043.071.117 1.803 3.004 2.946-2.746-.218-6.432-1.307-3.153-3.945-4.378-10.158-1.784-.089-.015-.075-.061-2.373-1.92-.096-.079-.027-.121-.985-4.369z"/><path d="M263.813 348.264l-2.793 2.6-.325.304-.228-.382-1.963-3.268-5.554-1.74-8.009 1.112-2.945 1.165-.004.034-.242.057-5.281 1.319-2.35 1.328-.529 3.924-.036.271-.274.038-5.18.663-3.644 1.044.594 1.47 4.428.206.177.009.102.146 3.56 5.066 6.373.432.307.021.031.308.331 3.772.012.144-.099.117-1.246 1.436 2.92 3.601.022-.018.214.304 3.413 4.903 1.363-.271 2.044-1.397.234-.159.211.187 1.996 1.774.028.024.028.038 4.214 6.097.092.133-.036.154-.235.983 3.251 3.654.126.138-.045.182-.986 4.283 1.998 4.421h.89l1.26-2.835 1.581-3.501.101-.22.244.008 2.711.113.093.003.082.05 3.552 2.195.851-1.187-.636-3.912-2.518-2.515-.126-.129.023-.178.565-3.951.052-.348.349.042 6.59.781 5.36-1.715.7-4.391-1.9-.281-.135-.023-.087-.103-1.245-1.466-.249-.295.313-.228 2.817-2.057.143-.953-2.45-.292-.256-.032-.054-.251-.339-1.58-.03-.133.067-.117 1.429-2.548-.918-.69-4.768 2.601-.116.062-.127-.025-5.65-1.127-.151-.034-.083-.133-2.373-3.838-.025-.042-.012-.037-1.469-4.628-.015-.049-.002-.06-.104-10.578z"/><path d="M265.394 361.165l.685 2.156 2.262 3.664 5.371 1.073 4.854-2.647.202-.108.185.138 1.356 1.015.252.186-.153.276-1.514 2.705.255 1.195 2.567.307.373.046-.058.366-.224 1.469-.024.146-.12.086-2.628 1.92.907 1.069 2.095.313h3.341l3.395-3.07.112-7.748.005-.382.377.029 3.103.212 3.226-3.546 2.011-5.24.025-.067.048-.049 3.115-3.338 3.605-9.277-1.821-1.416-.024-.02-.027-.028-2.125-2.446-2.846.531-.178.033-.134-.126-3.745-3.521-5.832-.208-.099 2.015v.029l-.338 2.823-.018.139-.11.093-4.179 3.499-.177.147-.208-.101-3.325-1.548-2.582-.199-2.63 9.535-.062.225-.231.033-5.671.874-2.644 6.738z"/><path d="M289.273 373.984l-3.515 3.184-.105.092h-3.333l-.742 4.665-.034.217-.212.066-5.646 1.807-.078.024-.075-.006-6.319-.75-.489 3.425 2.474 2.467.082.08.017.12.678 4.175.024.146-.085.12-1.13 1.579-.197.274-.285-.175-3.761-2.322-2.375-.101-1.482 3.28h-.001l-1.354 3.043-.095.215h-1.23v10.135l2.194 3.068.071.096-.004.12-.224 7.875 1.827 2.035.099.114-.01.148-.224 3.726-.015.228-.216.084-1.771.691.575 4.782 1.546-1.028.081-.054.101-.004 4.518-.23.403-.016-.366 5.818-.013.249-.244.075-2.806.83-.09 1.623 2.039 2.147.235.242-.235.25-3.101 3.312 1.502 2.901 7.744 1.771.104.019.07.075 4.203 4.2 4.239.411 1.815-4.274.073-.159.171-.044 3.613-.959.526-3.254.452-3.388.035-.249.241-.055 4.615-1.074.531-3.708.01-.067.037-.062 3.838-6.547.054-.083.083-.049 6.44-3.613.166-.092.174.088 3.199 1.65h1.56l1.169-4.136.053-.192.189-.058 3.212-.994 1.779-1.402-2.483-2.58-1.451.677-2.367 1.24-.136.071-.146-.049-10.278-3.384-.06-.021-.053-.043-2.372-1.921-.066-.051-.036-.082-2.713-6.095-.056-.129.044-.132 1.242-3.613.043-.124.113-.067 4.857-2.934.101-.062.116.011 2.711.226.159.011.097.131 2.148 2.821.07.095.003.117.107 4.683 1.956 1.564 2.511-1.149.087-.041.095.007 2.373.227.098.007.076.06 1.584 1.126.018.016.024.022 3.65 3.538 1.699-.946 1.206-2.414-2.236-2.98-.055-.074-.015-.092-.34-2.368-.013-.117.052-.104 2.343-4.345.504-3.534-1.904-.286-.047-.009-.043-.015-6.667-2.94-.039-.016-.041-.029-2.823-2.261-.084-.065-.033-.105-1.028-3.175-2.72.706-.237.059-.144-.196-1.243-1.694-.054-.071-.013-.087-.452-2.934h.003l-.399-1.789-3.06-.737-.254-.063-.021-.258-.314-3.975-7.136-.324-.347-.012v-5.619l-3.11.099zm21.978-61.214l-4.765 2.175-.138.063-.141-.054-13.56-5.222-4.577 5.126-.225.255-.267-.215-2.155-1.721-.137-.111v-8.284l-1.121-2.657-.086-.209.151-.17 10.86-12.131-.454-5.242-3.15-3.82-4.269.674-6.162 4.025-.097.064-.115-.005-5.491-.228-.771 1.928 3.892 3.66.265.249-.256.264-4.782 4.935-.006.009-2.361 2.572-.22 7.457-.009.359-.354-.009-11.691-.219-4.635 4.714 2.915 2.964.009.007.019.027 3.244 4.214.175.229-.186.222-1.808 2.143-.058.064-.072.034-3.842 1.693-.188.083-.168-.12-5.017-3.624-4.213 5.895.954 4.235 2.2 1.781 10.191 1.789.123.021.083.095 4.065 4.514.042.044.022.058 1.357 3.276.025.058.003.067.226 6.66.004.163-.004.004.112 11.181.411 1.295 2.396-6.105.077-.194.204-.031 5.644-.866 2.649-9.598.08-.286.292.025 2.941.224.061.004.064.03 3.18 1.485 3.893-3.264.322-2.67.113-2.352.016-.354.356.012 6.329.227.133.003.098.091 3.708 3.489 2.873-.534.199-.037.135.157 2.234 2.566 1.744 1.356 2.975-3.342 2.314-3.134-2.633-2.302-.121-.108v-4.182l.219-.093 10.029-4.218-.338-5.396-5.983-7.907zm223.841-107.621l2.698.298.499-1.795-1.799-1.997-2.196.699.798 2.795zm8.591 13.87l3.195 1.198 3.297-.6-1.399-4.889-3.997 2.195-1.096 2.096z"/><path d="M551.213 221.452l-3.901.23-1.937 6.963-6.388-5.803-1.744 5.996 6.779 7.35.388 6.383-12.392-11.026-.386-6.963 5.225-6.383.774-10.252-2.129.968-2.517 6.963-3.872 3.481-4.065 1.162-3.873 5.804.193 15.28-9.486 14.895.581 9.091h9.682l7.937 9.479v9.091l-5.617 6.771 1.55 3.094 4.454 2.515-8.324 1.934-2.324-8.705 6.194-10.831-2.708-8.126-9.488-1.354-5.228 5.031-.58 11.412-8.714 8.898-7.937 2.903-5.421 5.803-18.197-11.221v-5.416l12.196 5.609 6.39-2.512 10.261-6.578 6.969-13.929-1.161-7.543 11.81-28.05 1.353-4.834-1.353-6.384 7.744-7.351 1.55-10.252-6.002-7.931 6.164-.804-.904-7.463-6.113-.454-.453 5.428 1.306 3.293-3.874-1.547-5.809 4.45-6.969 8.898-5.421 5.221-8.131 1.937-4.261 4.06 4.261 5.609-4.645 8.318-6.39 1.936-.194 2.901 5.615 5.803-1.937 5.415.97 3.483 2.128 3.096-7.163 6.575-2.323-3.674-1.937-8.318-7.56-12.122-4.329 3.603 2.543 4.518.098.176-.098.178-5.305 9.419 2.045 6.719.052.16-.092.138-3.356 5.181-.12.042-5.282 1.759-3.521 4.105-.102.117-.156.007-13.322.593-6.783 5.596-.095.078-.127.002-4.364.069-.39 11.319-.003.108-.064.091-5.214 7.334 3.378 7.125 12.839.971.107.008.087.067 6.129 4.741.133.104.006.17.191 6.168 2.164 1.983 14.702.784.163.008.098.128 4.547 5.728.076.091.003.119.39 9.367 2.5 3.266.079.104-.003.126-.188 6.146h9.853l.1.097 8.857 8.056 12.199 5.311.107.048.057.095 4.505 7.433 7.957 4.849 8.084.771 6.61-4.858.239-.18.221.205 6.019 5.627 6.182-.191.194-.009.111.166 4.645 6.768 2.4.183.134.014 4.552 4.548 9.219-11.704.579-7.545.009-.105.057-.079 6.101-8.42-1.128-6.775-7.137-5.349.039-.216 1.743-9.861-4.626-6.356-.082-.109.015-.138 1.459-13.698-5.803-7.54-.119-.152.059-.18 2.316-6.938-2.304-5.47-.16-.382.397-.107 7.488-2.014 3.168-8.039-1.66-9.479-7.828-1.954-.123-.031-.077-.101-7.195-9.489-.104-.135.041-.169 1.439-5.751.043-.168.163-.072 10.77-4.817 1.081-4.305-4.551-9.659-.05-.102.022-.114 1.148-6.326.051-.249.247-.042 4.711-.784-4.402-9.345-.027-.055-.006-.066-.071-.762zM389.901 451.776l5.435-.099 4.451 7.546 3.594.567.111-.121 1.182-3.155.033-.083.059-.055 6.36-5.96.985-4.519.02-.093.064-.071 3.83-4.224.136-.154.197.042 4.796.957 1.244-1.952.767-3.454-1.317-3.572-4.076-1.551-.169-.067-.049-.176-.605-2.214-.049-.178.118-.145 1.943-2.333.595-5.926.014-.129.094-.09 6.847-6.639.255-.251.251.251 3.825 3.825.215.211-.175.251-2.094 2.962 2.671.501.078.012.064.046 6.933 4.948 5.293-.787.12-.016.107.062 4.96 2.773 4.829.195 6.535-4.479-11.68-8.753-.07-.053-.037-.071-5.639-11.067-.007-.017-4.158-9.294-3.248-.766-.022-.005-.031-.01-6.847-2.819-.062-.023-.05-.048-3.433-3.25-1.017 2.714-.092.241-.258-.009-5.466-.194-1.297 1.482-.045.049-.058.033-3.423 1.811-.116.057-.127-.025-2.655-.569-1.682 1.306-.098.075h-3.619l-.071-.028-4.324-1.882-1.859 3.53-.081.153-.17.034-6.129 1.199-3.943 6.805-.106.186-.218-.009-10.921-.357-2.975 6.288.181 6.132.009.279-.273.078-2.902.808-.999 4.858 2.485 5.744.006.019.01.034 1.013 3.791 4.595 1.403.079.025.057.054 4.259 3.854.114.104.004.151.126 3.966 6.271 5.477.104.09.016.143.399 3.587.003.026v.007z"/><path d="M338.159 445.09l10.904 2.525 6.194 3.871 3.68-2.902 5.421 2.902 18.199 3.484 6.615-3.018.007-.154-.382-3.424-6.28-5.492-.116-.103-.006-.154-.127-3.971-4.085-3.695-4.711-1.44-.191-.06-.052-.191-1.058-3.958-2.517-5.825-.046-.106.023-.112 1.008-4.907-5.176-2.46-3.833 1.915-.261.129-.184-.233-3.126-4.034-6.704-2.322-7.627 2.331.405 2.144.006.033-.001.042-.132 6.908-.003.18-.143.103-10.373 7.745-.243 3.734 7.792 4.67.301.182-.172.304-3.006 5.359z"/><path d="M295.354 464.063l2.21-2.905 7.36-.582.578-5.224 3.484-1.931 3.681.193 4.453 3.482 2.708-2.513-3.289-5.42-1.549-5.415 3.677-3.87 3.291-.965 5.034 5.413 10.442.658.001-.028.011-.066.034-.06 2.886-5.148-7.68-4.603-.19-.112.015-.217.267-4.12.012-.166.132-.1 10.369-7.739.129-6.695-.905-4.771-2.773-2.651-1.496.916-.127.079-.147-.033-2.661-.667-.081-.019-.066-.055-11.03-9.447-1.919.483-.533 3.712-.007.062-2.348 4.353.31 2.165 2.318 3.088.134.175-.103.2-1.355 2.709-.049.099-.098.055-2.034 1.128-.232.129-.19-.188-3.823-3.704-1.483-1.058-2.177-.206-2.625 1.202-.202.092-.171-.138-2.26-1.806-.133-.109v-.165l-.112-4.738-1.978-2.597-2.439-.203-4.643 2.804-1.156 3.36 2.619 5.882 2.252 1.821 10.077 3.318 2.235-1.171.015-.003 1.695-.791.231-.108.181.183 2.937 3.047.276.286-.313.246-2.146 1.696-.054.04-.065.022-3.086.956-1.264 4.475h-2.278l-.08-.038-3.105-1.607-6.188 3.472-3.752 6.396-.555 3.884-.035.246-.241.054-4.615 1.073-.419 3.14-.003.006-.513 3.193 7.628 2.331.156.049.067.147 1.596 3.454.061.129-.046.134-.798 2.393-.034.104-.087.066-2.859 2.24 1.038 3.112z"/><path d="M372.618 323.898l-1.888 3.235-1.356 3.1-.02.041-.024.033-6.219 8.225-.015.02-.021.023-9.33 9.139-.049.046-.057.025-7.849 3.567-.167 3.521 2.517 4.847.111.218-.16.182-3.401 3.938-.536 5.19-.012.103-.066.085-2.197 2.741-.101.125-.161.009-7.41.354-1.07 4.812-.124.078-3.112 2.011-.257.166-.206-.228-2.975-3.302-4.135 6.543-.095.151-.174.016-6.808.716-5.833 6.896 1.035 3.208 2.698 2.156 6.583 2.899 2.14.318 2.263-.569.183-.046.138.12 11.11 9.516 2.43.606 1.601-.985.236-.141.202.191 3.06 2.921.084.084.023.111.388 2.066 7.665-2.343.11-.034.11.039 6.92 2.392.103.032.063.089 3.013 3.883 3.726-1.862.158-.078.157.074 5.466 2.602 2.714-.759-.175-5.935-.001-.086.037-.075 3.109-6.58.1-.212.239.005 10.943.357 3.806-6.562-2.803-4.204-.07-.106.012-.124.365-4.025v-.016l1.065-7.268-7.487-4.812-.098-.062-.045-.108-1.28-3.293-.075-.194.133-.163 4.282-5.169-.884-4.404v-.003l-1.461-7.862-.029-.151.09-.124 3.588-5.02-.177-5.843-4.136-9.883-7.034-4.146-.133-.077-.033-.156-1.076-4.833-1.951-1.982z"/><path d="M420.824 281.627l-4.197.067-6.039 5.345-.094.083-.126.007-5.458.286-.211.012-.111-.176-1.784-2.802-8.801 7.83-1.408 5.064-.03.105-.077.07-9.296 8.285-10.197 17.45 2.161 2.195.069.074.024.101 1.062 4.783 7.002 4.126.104.061.047.109 4.21 10.057.022.059.003.068.182 6.033.003.12-.069.099-3.57 4.994 1.435 7.707.915 4.568.033.171-.11.129-4.256 5.139 1.161 2.985 7.588 4.874.193.124-.031.228-1.098 7.497-.354 3.871 2.726 4.083 5.883-1.149 1.933-3.67.156-.297 4.866 2.115h3.228l1.716-1.332.132-.104.164.034 2.691.578 3.249-1.719 1.368-1.56.111-.129.171.007 5.381.193 1.115-2.978.191-.506.393.375 3.778 3.575 6.753 2.776 3.401.799.174.041.072.162 4.223 9.441 5.603 10.995 11.821 8.862 6.504-3.721.76-3.984.029-.15.129-.087 3.956-2.568.11-.071.127.017 4.647.558 4.061-12.948.031-.11.095-.069 5.731-4.345.147-.113.172.05 6.129 1.782.059.012.04.028 8.217 5.474 12.542.2h.118l.094.067 8.705 6.379 10.471-6.006.2-.115.191.133 5.419 3.869 6.14-.764 6.732-2.884 1.218-3.127-7.642-4.391-.181-.104v-9.735l-4.544-4.54-2.435-.188-.172-.012-.101-.145-4.634-6.752-6.127.193-.147.002-.109-.099-5.911-5.527-6.483 4.765-.108.081-.138-.014-8.303-.79-.082-.009-.071-.043-8.105-4.94-.079-.045-.043-.075-4.487-7.408-12.153-5.287-.055-.025-.044-.037-8.791-8.002h-10.316l.012-.371.194-6.394-2.494-3.257-.067-.089-.006-.116-.389-9.363-4.374-5.508-14.665-.783-.128-.006-.095-.087-2.371-2.174-.113-.104-.006-.151-.193-6.15-5.909-4.57-12.939-.978-.209-.018-.088-.188-3.561-7.508-.089-.191.123-.17 5.273-7.419.385-11.175zm-252.388-82.05l-1.748 1.398-1.057 2.744.221 9.086.009.267-.256.083-6.713 2.163-.417 3.123-.037.286-.288.025-2.208.203-.605 2.214-.024.096-.068.064-.975.976 2.293 2.297 4.307 3.114 8.329 2.175.083.021.063.058 2.832 2.478 8.076.693.547-2.966.027-.135.11-.086 1.581-1.217.212-.164.216.155 3.772 2.681.108.077.034.133.824 3.412 4.419 3.613 3.876-.236.151-.007.11.098 6.047 5.38.286-2.759-1.05-3.386-2.745-2.986-.189-.205.152-.234 2.61-4.035-.467-4.439-2.404-4.691-.058-.114.025-.122.653-3.279-2.295-.313-.242-.033-.059-.237-.541-2.172-4.109-.113-.206-.006-.098-.179-1.217-2.195-.095-.17.09-.171 1.046-1.977-.215-2.584-3.177-1.063-.941 1.255-.123.165-.204-.022-2.191-.245-.114-.012-.086-.075-2.19-1.962-3.485.465-.24.031-.12-.21-2.013-3.555-2.298-1.094-3.976 1.992-.38.188-.124-.406-1.061-3.354z"/><path d="M210.258 251.78l7.852 5.066 3.089-.161.18-.011.117.144 3.709 4.548.118.145-.051.177-1.796 6.534 4.745 4.527 12.829.662.092.006.074.045 8.492 5.137.084.048.048.089 5.539 10.184 8.948 5.231 6.116-1.527.2-.047.142.141 2.646 2.647 4.281-4.42-3.806-3.578-.178-.168.09-.228.958-2.392.097-.237.255.01 5.629.236 5.964-3.899v-4.129l-4.107-2.054-.29-.143 1.418-3.781-3.819-1.274-2.506 1.139-.348.157-.137-.355-3.026-7.672-7.425-.233-.159-.006-.102-.118-4.754-5.461-4.504-2.843-.03-.02-.025-.023-4.31-4.067-.009-.006-.013-.017-12.691-14.357-.109-.123.02-.16.959-7.178.014-.107 4.744-5.418-3.076-1.025-.251-.083v-5.157l-3.813.046-2.575 2.458-.11.108-.153-.006-5.354-.243-.144-.008-.102-.104-2.511-2.632-2.403-.058-3.539 1.181-5.721 4.295-3.734 7.842-.107.225-.248-.02-6.225-.48-3.473 1.855-2.474 3.832 2.609 2.84.053.06.027.079 1.094 3.533.021.069-.009.073-.322 3.134 6.102-.038.324-.002.035.322.825 7.244zm-42.916-69.986l-3.75.425-6.001 4.643-3.485 4.836-6.775-.387-4.066 6.771-4.84.581-.194 5.221-7.162 4.643.387 6.77 2.904 3.676-3.291 4.063.774 3.289 4.644 1.16.968 4.835-1.463 2.612.304.044 3.073-.791.133-.034.122.063 1.614.854 5.935-1.143 2.342-3.619 1.328-5.518.023-.104.07-.07 3.732-3.728.645-2.362.067-.24.249-.024 2.171-.197.41-3.063.028-.227.216-.07 6.675-2.15-.218-8.886-.002-.069.025-.067 1.119-2.906.034-.09.076-.061 2.149-1.719 2.152-6.66-2.818-4.55-.049-.078-.005-.095-.25-5.578z"/><path d="M204.065 172.311l-6.397.237-7.939 2.902-.386 6.383.772 2.901-2.322 1.936-1.744-4.451-3.097-.192-4.839-4.645-6 3.871-4.055.46.251 5.533 2.855 4.612.089.142-.054.157L169 198.97l1.056 3.344 3.76-1.88.159-.079.157.076 2.555 1.218.101.046.055.102 1.95 3.444 3.412-.458.163-.019.123.11 2.226 1.994 1.872.208 1.126-1.504.246.081 3.652 1.22.227.072.019.239.243 2.924.009.103-.05.092-1.005 1.902 1.024 1.842 4.175.118.274.005.066.266.55 2.201 2.432.331.382.053-.778 3.909 2.372 4.639.033.06.006.066.431 4.097 3.18-1.697.094-.052.102.009 6.082.469 3.665-7.696.037-.077.073-.055 5.841-4.386.047-.036.055-.019 3.649-1.218.059-.018h.061l5.105.118 2.665-2.134-4.934-6.433-3.15-.585-.215-.04-.066-.21-1.496-4.957-1.97.188-.331 2.999-.046.402-.393-.089-1.582-.366-.153-.037-.077-.135-1.199-2.07-1.555.459-.226 3.526-.028.419-.409-.092-2.193-.486-.17-.039-.076-.158-1.24-2.593-6.096.117-.194.004-.111-.161-2.446-3.619h-5.943l-.108-.132-1.583-1.952-.185-.228.185-.227 9.893-11.956-.576-12.238zm85.303-24.087l1.615-9.916 2.326 3.289-.97 6.965 2.904 6.19.774 10.252 4.066 6.19.965 6.383 15.103 9.093 9.293-1.742 6.971-9.478 1.932-10.059-3.095-11.994.387-17.409-1.934-6.383-4.841-7.739-.775-5.997 2.129-1.353 2.905 4.062 2.904-1.934-2.711-5.221-10.261-6.966-14.713-1.353-2.905 2.128-7.357 4.256.193 5.802-5.034 8.124-9.872.194-3.29 4.133 7.323 9.752-.034.157-1.141 5.712 5.977 2.987.097.046.053.094 1.016 1.735z"/><path d="M271.319 188.488l-.47-3.173.581-2.707-2.52-3.483 2.327-4.256 7.161-8.898 6.004-1.935 3.483-5.997 1.309-8.695-1.407-2.399-6.133-3.062-.246-.124.055-.27 1.165-5.824-7.011-9.342-8.254 10.374-4.258-.195-5.422 3.676-3.87-.194-1.55 3.869-1.741 3.288-3.099 2.322 1.742 3.289-2.129 2.126-7.165-1.16-1.934 6.769-1.357 10.252-4.26 1.743-18.971-2.515-8.564.317.258 5.521 4.641-.919.057-.01.061.008 6.084.852.155.023.089.126 2.433 3.411.07.098-.003.12-.121 4.265-.003.127-.085.098-2.097 2.448.236 4.732.004.037-.006.031-.608 4.144-.019.143-.119.088-3.083 2.375-.881 2.318 1.197 2.508 1.607.358.215-3.358.018-.252.243-.069 2.068-.611.27-.077.141.243 1.261 2.18 1.035.24.32-2.888.033-.291.293-.029 2.556-.243.294-.026.084.28 1.52 5.03 3.068.569.136.025.085.109 4.83 6.302.724-1.987-.483-6.017-.006-.099.047-.093 2.191-4.264.022-.043.034-.037 7.91-8.527.144-.157.203.048 4.623 1.098.158.035.075.144 1.461 2.679.059.108-.02.12-.73 4.629-.021.121-.083.083-3.404 3.284-5.769 6.503-1.555 5.55 3.842-.045.365-.006v5.369l3.122 1.039 2.236-2.459.109-.118h2.979l1.136-5.218.021-.099.071-.074 5.316-5.543-1.295-2.157-.003-.005-1.676-2.872-.074-.13.039-.144 1.198-4.307.027-.093.064-.067 5.186-5.183.46-2.754.067-.391.383.101 3.568.953 2.198.438 2.735-2.961.046-.05.065-.031.432-.203zm81.534 39.185l-7.142 9.21 2.492 3.852.116.179-.098.187-1.611 2.989 1.164 4.893.063.258-.233.136-4.548 2.632-.191.11-.182-.119-5.893-3.767-5.635.234-.298.014-.068-.295-.926-4.178-14.2-10.93-1.573 2.362 3.951 6.503.074.123-1.226 5.638-.024.107-3.469 3.466 1.535 2.632.043.073.006.078.239 2.871.032.373-.378.017-5.575.231-4.38 5.758-.218 3.465 5.265 2.192 2.222-2.667.067-.079.098-.033 5.029-1.674.295-.097.14.278 3.242 6.48-.227.182-11.605 9.228-.232 5.1-.008.169-.135.1-4.068 3.112-.165.123-.19-.077-5.069-2.073-3.646 2.958-10.795 12.058 1.061 2.518.031.07-.001.07v8.009l1.75 1.404 4.515-5.06.166-.185.233.089 13.651 5.258 4.759-2.172 2.676-6.614.102-.252.267.026 9.051.863.139.012.097.106 6.707 7.558 7.352 3.815 10.305 1.129 4.068-2.242.214-.119 11.317 9.277 6.843.957 12.379-21.179.028-.049.043-.039 9.259-8.254 1.408-5.067.028-.102.077-.07 9.196-8.181.318-.282.226.357 1.897 2.98 5.126-.269 6.047-5.349.098-.09.132-.001 9.286-.146 6.776-5.595.093-.075.122-.005 13.289-.592 3.486-4.06.065-.076.095-.031 5.256-1.752 3.127-4.828-2.044-6.707-.045-.15.076-.131 2.441-4.337-2.555-.465-1.661 2.491-.109.16h-3.337l-4.082 3.785-.137.131-.189-.043-4.868-1.145-3.739 4.313-.098.114-.148.01-11.054.895-.131.012-.106-.078-47.961-34.228-4.613 1.44-.068.022-.072-.009-20.725-2.224zm-73.232-52.592l1.492 1.639 2.02-1.349-.577-2.359-1.54-1.156-1.201 1.636-.194 1.589zm143.996 5.397l2.492-1.811v-4.069l-2.944-.679.452 6.559z"/><path d="M463.493 238.525l-3.689-6.786-9.681-10.446h-7.356l-.966 4.255-.194 6.386-5.23 3.094-2.905-.58-1.933 2.901-3.678-2.901 4.258-3.869v-4.254l-13.745-.195-6.776-5.029-10.455.967-3.679-5.029 6.197-.581 3.291-6.383-8.326-1.935-3.872 4.644-1.937-3.484-21.294-5.222-2.711 2.709-3.098-2.903-11.228 6.578-5.81-5.612 1.743-5.027-1.743-5.031 6.97-2.321 6.389 4.449 3.097-5.028-.194-9.093-8.518-9.283-2.516 9.092-11.617 7.541-.966 5.803-5.551 5.009 2.178 11.601 6.093 9.131 5.582.697.163.021.09.136 3.017 4.407 20.684 2.22 4.71-1.471.169-.054.148.104 47.997 34.256 10.779-.874 3.786-4.364.146-.166.209.049 4.894 1.151 4.042-3.749.105-.098h3.234l1.686-2.525.129-.197.233.041 3.035.553 2.466-4.378-2.591-4.601-.145-.259.228-.193 4.656-3.874z"/><path d="M446.479 218.472l-4.301.452-3.394-5.654.905-5.201 5.431-1.358 1.584 5.88-.225 5.881zm-66.461-26.653l3.332 4.381 7.846.207.905-2.919-.488-4.379-4.166-4.519-5.97 2.087-1.459 5.142zm58.313 5.846l1.812-17.187 1.357-6.559 5.657-6.105 6.793-2.262 2.714-3.845-1.584-4.75 4.979 3.168 4.527-.453 1.135-3.392 2.941.225.224-3.392 3.623 1.357.68-3.392 2.715 2.94 2.038-2.713.678-4.072 3.85 2.714 2.488-2.261 5.207 1.131 4.301-4.975 33.046-.68 7.923-4.295.903-5.882-3.393-4.069-7.923 2.033-1.359 2.942-13.58-1.131-5.884-4.976-5.207 2.94-5.206-2.262-6.564 4.298h-5.432l-2.715 2.26-3.623-3.844-1.813 7.916-4.074.227-.451 3.164-10.183 3.167-3.624-1.581-2.263 2.712 2.943 2.94-4.076 3.845-6.565-2.713-.905 4.975-4.752-.226-.225 3.845-6.565 3.392-4.074-1.358-4.528 3.392-.224 4.975 4.298 4.298.225 6.557-4.072 4.073 3.168 7.009 3.622.454.227 3.165 4.074.906 2.716 1.355zm-103.186 3.862l-5.829 5.26-2.711-5.031 3.872-.772-4.841-9.092-7.355 1.159-7.358-2.514-9.098 1.355-5.034 12.574-3.68-2.128-5.226-12.189.777-9.478-8.52.969-2.324 8.124 3.679 4.45-3.486 4.64-5.612-3.094-.969-6.53-.172.08-2.825 3.061-.138.149-.199-.04-2.395-.478-.02-.005-3.211-.858-.414 2.481-.017.115-.08.082-5.203 5.199-1.131 4.066 1.599 2.742 1.436 2.387.139.234-.189.199-5.436 5.668-1.175 5.403-.062.285h-3.246l-2.287 2.512-.013.017-4.939 5.639-.92 6.907 12.565 14.213 4.279 4.037 4.519 2.851.046.03.032.042 4.687 5.382 7.504.234.237.009.089.219 2.972 7.54 2.29-1.038.128-.058.133.046 4.312 1.434.353.119-1.453 3.873 4.02 2.01.199.098v4.348l4.134-.652.203-.031.131.158 3.352 4.065.072.089.012.11.417 4.825 3.303-2.679.165-.135.197.08 5.078 2.074 3.773-2.883.232-5.094.009-.164.127-.103 11.505-9.149-2.843-5.682-4.636 1.546-2.327 2.792-.171.204-.245-.1-5.747-2.395-.237-.098.017-.255.239-3.828.008-.106.066-.089 4.548-5.981.105-.135.168-.009 5.37-.222-.203-2.419-1.633-2.798-.142-.241.197-.194 3.517-3.517 1.143-5.258-3.994-6.575-.119-.197.125-.19 1.916-2.869.217-.322.304.234 14.606 11.245.104.082.028.127.893 4.012 5.448-.227.11-.004.096.06 5.802 3.711 4.126-2.389-1.136-4.764-.031-.133.065-.12 1.577-2.923-2.517-3.888-.141-.215.156-.2 7.263-9.363-2.873-4.194-5.584-.699-.166-.021-.091-.137-6.265-9.389-.014-.076-2.108-11.239zM528.767 69.508l2.405 2.253 3.305-2.851-1.651-2.401-2.404.6-1.655 2.4zm5.259 1.955l1.802 1.498 3.156-1.65.902-3.753-2.407-.599-3.453 4.504zm8.562-.452l3.155 2.853 6.308-3.154-1.201-3.6-4.356-1.801-3.756 3.15-.15 2.552zm6.758-6.755l2.705 1.35 1.804-2.1-2.255-2.102-2.254 2.852zm11.868-7.503l.903 2.852 2.704-1.051-1.053-3.452-2.554 1.651zm-9.013-7.053l1.503 1.35 1.951-1.502-2.852-2.701-1.501 1.202.899 1.65zm-8.11 1.8l.449 2.251 3.007 1.952L549.346 53l-1.651-3.301-3.604 1.8zm-5.86 2.4l5.71 5.105-.754 4.35-5.708-1.951-3.753-4.35 4.505-3.153zm15.925 16.361l.75 3.302 6.308-.15 2.554-4.202-2.103-3.453-2.704 3.903-4.055-1.05-.75 1.65zm-17.277 7.503l1.653 2.402 1.504-1.951-1.504-2.55-1.653 2.1zm-15.622-16.509l2.554 4.351 3.005-2.85-1.506-3.602-4.053 2.101zm7.36-1.349l.602 2.55 1.651-1.2-1.352-2.852-.901 1.502zm-2.703-14.258l1.953 2.7 1.802-1.8-3.004-2.702-.751 1.802zm-17.725-5.405l.9 3.603 2.706 2.1 3.905-.298 2.404 1.95 1.501-1.802-3.005-2.702-2.704.826-5.707-3.677zm.749 9.156l-.298 3.152 2.853 2.85 2.855 3.603.899-1.652-.75-3.451 3.906-.9 4.957 1.651 3.156-3.152-2.856-3.303-2.403-.9-2.554 1.95-3.456.452-2.1.901-4.209-1.201zm6.161 11.856l-.602 2.1 2.254 1.352.15-2.851-1.802-.6zM69.643 155.128l13.1 28.298 8.145-4.243.707-15.566-3.893-6.012-1.772 7.074-3.895-2.478-3.183-9.196-3.898 2.477-5.311-.354zm46.013 207.952l-.079 1.938-5.998-.19-2.326 3.479-3.098.388-3.675 6.575-6.196 2.324-4.454-6.577-10.455-1.357-4.84 5.032 10.454 6.19-3.097 2.125-5.42-3.288-3.106 2.444 1.855 3.661h3.98l.11.134 4.572 5.64.15.187-3.496 6.717 4.423 5.458.146.178-.105.209-1.043 2.085-.255 4.353 2.599 3.189 2.573-2.957.234.089 4.021 1.507 1.46-2.432.16-.266.286.121 3.228 1.341.222.091v5.118l3.824 1.786.209.096v4.96l1.982 3.215 4.694-.492 1.522-2.792.103-.187h7.851l4.629-5.136-.228-2.511-4.282-.502-.299-.034-.019-.3-.261-3.658-3.976-5.561-.097-.136.045-.167 2.106-7.634-2.597-3.896-.215-.32 5.983-3.417.239-.132.196.191 2.036 2.035 3.933-.245 2.28-4.555-.796-7.69-.024-.218.185-.12 6-3.908-1.018-9.419-4.682-.246-3.394 2.348-.195.137-.204-.129-3.761-2.418-4.599-2.451z"/><path d="M156.083 420.374l6.542-2.159.967-5.028 5.617-3.098 6.001-1.547 2.16-.658-.195-8.224-3.681-.737-.141-.028-.083-.122-1.783-2.572-.061-.086-.003-.104-.178-4.821-2.293.983-.081.033-.086-.009-2.774-.196-.354-.024.022-.354.197-3.562.005-.126.084-.095 2.879-3.259v-4.467l-6.351-6.154-3.66-.771-.132-.028-.082-.105-2.573-3.367-.066-.083-.01-.104-.377-4.717-5.329-1.901-.133-.049-.067-.13-2.238-4.474-2.877.899-.076.02-.079-.008-5.59-.744-.544 3.803-.024.166-.144.089-5.293 3.23 1.048 9.713.027.221-.188.121-6 3.908.785 7.574.01.104-.047.093-2.421 4.836-.09.187-.209.013-4.303.27-.162.009-.116-.117-1.954-1.952-5.073 2.897 2.474 3.708.092.133-.043.162-2.106 7.626 3.84 5.373 9.509 1.027.978-2.693.094-.257.274.02 3.228.27.267.022.055.267 1.021 4.852 3.654.487 3.239-2.043.124-.08.141.034 11.489 2.372.163.033.08.142 3.004 5.356z"/><path d="M127.895 464.558l6.078 2.212 16.262-.388-1.356-6.386 4.065-.773 3.1-17.41-2.712-3.675-4.067-.965.583-3.288 5.034-4.646-4.486-6.226 2.163-1.124 2.845-1.251-2.873-5.125-11.185-2.31-2.978 1.878 2.046 5.369.038.094-.024.104-2.124 10.082 2.624 4.72.08.142-.052.148-2.658 7.7 1.055 4.734.106.49-.5-.053-4.743-.529-2.505 1.093-.276.122-.166-.249-1.714-2.574-1.533 1.84 2.492 5.935.101.245-.206.172-3.368 2.773-.03.023-.028.014-3.007 1.588 3.919 5.494z"/><path d="M115.154 467.027l6.041.128 5.773-2.66-3.816-5.346-.238-.334.364-.195 3.337-1.765 3.131-2.576-2.472-5.891-.085-.2.141-.166 1.98-2.375.308-.371.27.399 1.814 2.718 2.314-1.008.091-.041.092.013 4.342.483-.967-4.349-.022-.101.03-.091 2.638-7.642-2.609-4.695-.065-.121.028-.128 2.127-10.106-2.036-5.343-3.819-.512-.256-.033-.052-.25-1.02-4.84-2.685-.221-.98 2.692-.098.267-.28-.03-9.522-1.026.218 3.033 4.274.502.29.034.026.291.27 2.955.014.156-.104.115-4.841 5.378-.107.117h-7.745l-1.512 2.767-.092.166-.187.021-5.111.536-.225.027-.119-.196-2.15-3.491-.054-.089v-4.711l-3.825-1.782-.207-.094v-5.097l-2.72-1.13-1.451 2.418-.154.256-.282-.102-4.07-1.523-2.326 2.67 2.633 3.226 2.75-.499.225-.042.134.193 1.808 2.58 3.64 1.04.177.049.064.172 1.602 4.267 3.818 6.538-.024.129-1.056 6.322 3.973 7.146.027.046.009.045 1.347 5.645.01.045-.001.05-.261 5.751 6.072 6.07.052.054.029.074 1.363 3.588z"/><path d="M77.759 487.142l-2.062 2.065.389 5.801 5.42 7.737-.386 8.124-.97 3.873 4.84 5.997 2.323-.971 1.356-2.317 2.903 1.544 3.1.969 3.678-2.322v-10.251l2.517-14.509 9.292-8.899.776-9.286-.97-4.062 4.503-3.388-1.322-3.479-5.909-5.901-2.168 1.685-.103.078-.133-.004-6.32-.262-3.43 2.694 1.213 2.423.145.295-.278.17-3.052 1.892 3.877 5.537 4.161.778.225.043.058.219 1.345 5.107.08.304-.289.12-3.23 1.342-.078.033-.086-.004-3.26-.251-4.193 8.117-.204.398-.347-.29-3.228-2.727-1.917 2.156-.12.134-.182-.017-7.964-.695z"/><path d="M76.066 479.891l1.375 3.705.574 2.842 7.591.666 2.032-2.281.233-.267.269.23 3.15 2.665 4.096-7.93.107-.212.239.021 3.411.262 2.857-1.19-1.207-4.584-4.078-.764-.144-.026-.087-.12-5.544-7.918-4.313-.253-2.066.917 2.349 8.836.079.292-.275.128-10.648 4.981z"/><path d="M73.48 476.183l.087 1.611 2.045 1.515 10.525-4.925-2.243-8.435-1.89.836-1.82 5.756-.032.104-.09.066-2.688 2.152-.05.039-.06.02-3.784 1.261z"/><path d="M65.337 464.001l.292 6.634 7.745 3.675.063 1.128 3.538-1.178 2.552-2.039 1.836-5.802.049-.153.151-.066 4.315-1.915-3.382-2.727-1.27 2.191-.135.232-.26-.066-8.775-2.124-6.57 2.101-.15.109z"/><path d="M59.62 450.665l4.075 4.496.193 6.188 1.235 1.915.028-.019.055-.023 6.725-2.147.095-.034.1.025 8.61 2.085 2.745-4.731-1.217-3.896h-4.176l-.104-.097-7.97-7.165-5.659-.258-4.736 3.661z"/><path d="M49.65 432.115l4.75 7.958v4.837l4.736 5.223 4.887-3.779.104-.08.13.004 5.525.251-.252-5.786-.01-.204.169-.112 2.957-1.969-4.226-7.961-1.434 2.868-.113.223-.249-.025-5.108-.536-.158-.021-.097-.124-2.799-3.818-8.813 3.051z"/><path d="M47.924 423.842l-.267-4.566-.022-.347-.018-.344.344-.034.346-.032 4.727-.475v-2.842h-.002v-.363l.147-.108.147-.108 5.334-3.938-3.403-2.126h-.003l-.046-.03-.044-.03-.037-.04-.039-.046v-.004l-4.304-5.104-.102-.12-.104-.121.022-.157.02-.159.538-4.028.06-.446.058-.437.418.147.419.148 3.766 1.344.115.043.117.041.069.108.066.104 3.014 4.769h4.855l.02.342.02.337.25 4.257 2.986 2.486.136.117.141.111-.009.181-.007.174-.27 5.913-.01.226-.067.087-.07.09-4.304 5.645-.534.7-.532.702-.113-.876-.11-.874-.61-4.895-6.743 7.436-.183.2-.18.196-.237-.113-.243-.111-5.108-2.418-.193-.094-.193-.09-.014-.212-.014-.216zm-6.882-35.802l-2.13 2.513.969 2.902 3.097 2.322-.193 4.835 1.743 7.739-.58 7.153-1.357 11.801 1.55 2.13 3.096-1.356 2.035 3.408 9.205-3.188.25-.087.158.212 2.863 3.903 4.703.495 3.448-6.886 3.747-1.5-1.37-2.048-.118-.178 2.121-3.97-2.21-1.962-.286-.253.273-.27 2.601-2.601.254-2.29.02-.204.189-.083 2.957-1.346.299-.134.163.286 1.94 3.392 2.506-2.048.258-4.412.006-.07.034-.071.972-1.941-4.426-5.464-.15-.182.108-.209 3.39-6.509-4.317-5.323h-4.084l-.1-.2-2.349-4.637-7.084-6.439-.968 9.286-3.871-1.936-7.36.387-2.71 3.484-5.189-10.925-4.491 5.701.388 6.773z"/><path d="M83.285 411.41l-2.679 2.193-.33.265-.211-.366-1.99-3.478-2.472 1.122-.26 2.345-.09.087-2.419 2.414 2.136 1.897.21.188-.133.249-2.051 3.843 1.495 2.239.248.37-.413.162-3.908 1.562-1.603 3.204 4.619 8.708.154.286-.273.179-3.055 2.035.252 5.827 7.852 7.059h4.43l.079.254 1.345 4.299.044.15-.078.137-1.323 2.286 3.838 3.091 4.457.264.172.011.101.141 1.27 1.816 2.806-1.74-1.198-2.393-.131-.263.231-.184 3.763-2.953.104-.084.133.008 6.325.263 2.185-1.699.256-5.693-1.321-5.547-4.008-7.21-.059-.112.018-.122 1.054-6.322-3.699-6.338-.013-.021-.012-.034-1.55-4.124-3.59-1.028-.121-.033-.076-.108-1.75-2.497-2.732.499-.208.037-.133-.166-5.688-6.975zm-34.908 7.823l.27 4.566 5.11 2.418 7.268-8.015.528-.581.807 6.449 4.301-5.645.27-5.908-3.105-2.585-.122-.103-.009-.156-.26-4.41h-4.572l-.104-.168-3.122-4.94-3.764-1.34-.539 4.029 4.301 5.103h.002v.004l3.852 2.405.45.28-.424.312-5.759 4.254-.003.003v3.492l-.325.034-5.051.502zm604.491 141.511l16.413 6.609 15.102 3.484 3.095 11.995 11.035 5.802 7.744-.196 11.039-6.575 8.518 2.709 8.902-.583 2.324 4.061 5.123.222 1.679-6.206.043-.154.141-.075 4.912-2.568-5.266-5.744-.258-.283.295-.237 5.136-4.154-1.949-5.852-.159-.474h10.268l5.987-4.985.124-.101.156.021 5.373.732 10.027-13.272.095-.129.163-.014 6.415-.49 1.932-3.142.063-.096.114-.046 5.494-2.247 4.185-5.166.479-5.51-4.39-2.926-.159-.108v-5.694l.143-.108 9.568-7.296 3.261-7.521.062-.146.147-.049 8.368-2.951-.474-6.685-5.145-4.648-5.731-.996-.214-.037-.071-.208-4.789-14.363-2.979-2.726-.232-.214.182-.256 2.966-4.204-.412-4.117-3.512 3.949-.132.147-.193-.028-2.978-.46-1.697 6.531-.049.205-.205.053-15.987 4.308-.237.067-.146-.2-2.683-3.653h-3.711l-.084-.048-3.457-1.843-1.88 4.457-.062.151-.153.049-7.614 2.536-.118.04-.115-.04-3.929-1.387-.929 4.416-.055.255-.253.028-7.744.969.675 3.809 4.719 3.97.275.234-.233.274-3.987 4.733-.741 7.151 2.57 6.043.412-1.208 1.575-9.843.008-.062.034-.058 2.569-4.542.121-.207.235.023 3.361.398.271.032.04.271.598 3.754.007.062-.007.054-1.575 8.845.587 8.615 1.369 4.699.039.117-.046.113-1.808 4.619-2.787 2.584-.887 1.595.946 3.013.037.12-.05.121-1.188 2.964-.067.17-.178.046-2.904.724-.183 3.292-.008.088-.046.078-3.757 6.124-.072.115-.129.043-5.619 1.739-3.686 5.041-.12.166-.2-.018-4.222-.37-1.124 6.394-.019.1-.067.075-3.162 3.558-.055.058-.071.03-10.126 4.477-1.338 4.579-.055.179-.177.062-6.524 2.173-.37.12-.092-.374-.933-3.728-6.89-1.341-.262-.051-.028-.262-.585-5.035-4.77-6.102h-6.472l-.1-.08-13.243-10.466-.042-.035-.026-.037-4.14-5.635-6.631 4.727-.095.071-.119-.004-3.789-.086.191.836.046.191-.139.142-2.034 2.032.742 2.958.047.183-.124.143-2.805 3.174 2.511 4.858z"/><path d="M559.182 588.709l24.915-9.361 8.905-.578 1.548 2.318 13.359 2.901.969 5.998 5.034 2.513 14.132 1.549 5.615.775 2.902 2.709 4.455-1.549 4.065-3.484 2.903-7.155-4.837-5.801.578-8.899 3.099-.97.194-4.062 4.065-.191 1.138-4.361-2.616-5.062-.113-.221.162-.182 2.841-3.218-.746-2.977-.049-.198.144-.141 2.035-2.036-.479-2.074-5.826.375-.123.009-.104-.075-14.581-10.159-.875 4.016-.056.262-.264.021-17.735 1.56-1.124 4.682-.049.213-.209.055-3.456.906.36 3.248.026.219-.189.122-4.788 3.061-.185 3.178-.015.266-.264.063-3.279.769-5.863 4.881-.122.104-.157-.019-13.639-1.777-.089-.013-.072-.049-8.377-5.895-3.854-.295-2.5 6.56-.084.215-.232.018-9.692.624.608 6.688 5.807 10.308.161.289-.271.187-4.034 2.793.928 6.347zm-11.913-36.126l4.294-1.537 3.162-1.578 5.319-5.314-1.219-3.35-.037-.105.025-.108.951-3.804-1.274-5.099-.045-.174.107-.138 3.536-4.49 1.815-5.44-5.185-1.832-.172-.058-.053-.174-.975-3.247-.052-.175.11-.145 4.095-5.349-2.237-5.431.026-.108.974-4.216.039-.171.16-.075 5.456-2.568 2.695-2.689-5.72-11.117-.063-.116.029-.126.827-3.859-6.176 2.646-.144.062-.144-.062-8.021-3.526-9.175 1.264-3.481 4.11-.106.129h-.17l-9.437-.048-.196 25.389 3.423-.442.358-.045.044.362.635 5.07 4.789 5.102.052.059.024.066 1.585 4.438 4.452 3.174.317.228-.251.298-3.368 3.978 2.711 3.01.128.14-.046.187-1.296 5.187-.038.138-.12.078-3.414 2.173-.289 6.08 7.881.237.156.005.105.117 2.624 2.989z"/><path d="M505.399 569.019l.678 6.654 6.192 3.484.194 6.576 6.197 1.352 2.516 3.097 6.971-3.676 1.354 4.837 4.452 6.576 6.973.774 2.127-4.644 9.295-.387 6.161-4.578-1.003-6.84-.031-.22.186-.129 3.948-2.731-5.681-10.092-.037-.067-.007-.078-.594-6.485-4.996 3.82-.287.217-.218-.283-4.544-5.835-.104-.137.037-.162 1.584-6.968-2.554-2.909-7.741-.23-.003.105-.276.054-4.869.973-.162.033-.132-.104-4.017-3.155-.269 3.226-.009.092-.049.079-3.896 5.836-.119.179-.213-.022-7.068-.639-5.658 1.884-2.281 3.134 3.515 1.757.153.075.038.163.973 4.216.089.389-.4.052-6.415.737z"/><path d="M456.455 511.479l9.352 44.849 5.032-.774 3.486-5.028 3.291 1.353.968 5.224 10.647 5.806 8.325-3.097 4.452 1.934 3.188 6.573 6.137-.708-.847-3.657-3.742-1.874-.381-.188.249-.345 2.599-3.567.066-.092.112-.037 5.842-1.943.071-.026.076.008 6.923.629 3.727-5.584.318-3.797.055-.67.525.415 4.414 3.464 4.431-.887.319-6.713.159-.099 3.448-2.195 1.217-4.865-2.793-3.1-.209-.233.203-.237 3.318-3.923-4.226-3.012-.095-.067-.037-.107-1.596-4.471-4.819-5.132-.081-.087-.015-.116-.604-4.828-3.358.429-4.345 3.949-.119.104-.159-.015-8.316-.793-2.507 1.928-.222.17-.218-.17-2.572-2.018-7.226 7.021-.251.244-.249-.244-5.637-5.431-.08-.076-.023-.099-.992-4.154-4.628-6.169-19.084 6.556-.132.046-.126-.055-4.047-1.736-1.85 1.294-.196.138-.2-.124-3.039-1.897-3.929 2.306z"/><path d="M441.849 492.461l10.019.225-4.067 4.258 8.389 13.851 4.02-2.356.19-.108.184.112 3.019 1.89 1.818-1.273.166-.117.183.078 4.1 1.758 19.202-6.593.248-.088.157.212 4.832 6.439.049.063.016.071.981 4.119 5.311 5.12 7.204-7 .224-.222.247.197 2.599 2.039 2.395-1.839.113-.089.142.013 8.297.79 4.198-3.811.197-25.635h-3.334l-4.732 3.939-.287.24-.227-.296-2.014-2.617-.085-.107.009-.135.581-9.689-13.925-.391-.208-.009-.098-.178-2.514-4.637-7.23.196-.284.009-.072-.276-1.395-5.16-4.532-5.91-24.379-11.593v8.087l-.178.105-4.598 2.68 1.342 5.17.128.483-.499-.034-5.959-.394-4.639 1.929-2.71 4.833.599 13.985.006.074-.031.08-3.168 7.512z"/><path d="M404.15 459.959l2.802.812.191 5.027-1.741 1.937 1.162 3.484-3.872 4.447.775 3.289 8.325 1.932.387 4.449 4.065.195 3.097.774 3.097 3.48-4.452 3.675v3.097l4.452-1.353 3.873 2.128 3.484-.775 2.905-2.513 8.34-1.516 3.281-7.783-.599-14.011-.006-.099 2.867-5.119.064-.108.114-.05 4.832-2.011.08-.033.083.008 5.544.366-1.284-4.947-.07-.262.238-.138 4.652-2.713v-19.571l-3.326-3.516-.217-.233.202-.242 3.527-4.313-.313-2.675-6.557 4.494-.1.067-.117-.004-5.037-.205-.087-.003-.076-.041-4.924-2.755-5.319.787-.141.02-.12-.084-6.983-4.985-3.144-.589-.55-.102.323-.459 2.241-3.17-3.362-3.36-6.5 6.302-.587 5.905-.012.11-.073.081-1.892 2.273.509 1.856 4.056 1.544.154.058.057.155 1.41 3.825.034.095-.022.105-.805 3.621-.012.062-.037.053-1.409 2.214-.132.209-.242-.049-4.837-.966-3.622 4-.986 4.536-.024.108-.08.08-6.386 5.98-1.168 3.113z"/><path d="M539.297 408.896l-5.241-3.746-10.478 6.009-.201.117-.189-.136-8.807-6.452-12.534-.196-.11-.004-.086-.055-8.261-5.505-5.898-1.711-5.496 4.166-4.118 13.127-.09.288-.295-.038-4.815-.579-3.713 2.414-.763 3.995-.031.168-.145.083-6.642 3.799.374 3.184.016.151-.098.12-3.425 4.179 3.209 3.392.096.105v11.381l24.766 11.776.079.037.052.071 4.632 6.034.044.058.02.067 1.334 4.958 7.17-.192.22-.005.103.193 2.522 4.649 14.089.394.372.009-.619 10.301 1.703 2.209 4.546-3.782.104-.087h4.315v.004l9.268.045 3.462-4.087.089-.108.136-.017 9.414-1.298.099-.012.094.042 7.972 3.503 6.464-2.771.314-6.584.009-.166.13-.101 6.722-5.12.85-3.114-5.836-1.839-.085-.028-.064-.062-4.307-4.305-.015-.125-.648-5.514-.02-.187.143-.126 7.353-6.388.286-3.724-4.85-.609-.194-.024-.088-.175-5.434-11.184-18.638-2.888-.307-.046v-5.624l.08-.099 2.48-3.096-2.59-9.119zm24.035 91.095l-2.237 1.052-.906 3.934 2.228 5.405.077.193-.125.163-4.108 5.369.869 2.892 5.344 1.884.334.117-2.06 6.172-.018.062-.037.048-3.462 4.403 1.255 5.014.022.088-.022.087-.948 3.788 1.259 3.463.082.215-5.681 5.673-.038.043-.055.024-3.247 1.624-.028.012-.013.004-4.357 1.558-1.541 6.775 4.22 5.418 5.234-3.998.519-.397.027.3 9.481-.607 2.514-6.598.095-.249.268.021 3.972.304 2.817-5.935.062-.134.138-.05 5.053-1.892 1.528-3.364v-4.03l.191-.099 4.66-2.485-.304-3.941-1.931-5.794-.01-.034-.005-.015-.959-5.444-4.18-6.422-.11-.166.083-.18 1.817-3.933-3.195-2.031-5.394.633-.024.005h-6.115l-.084-.246-2.955-8.699zm-8.863-287.059l3.295 4.29 2.298-.997-.702-5.988-2.296-1.196-2.595 3.891zm9.188-27.242l1.697 2.196 1.796-1.895-.797-2.995-2.297.699-.399 1.995zm63.126-105.755l7.247 1.328-1.691-5.427-5.071.119-.485 3.98zm6.039 13.635l3.984-5.308-.967-4.707 3.864-2.532 3.864-3.862 4.347 3.862 2.414 6.875 1.451 3.018-3.985 2.17v3.74l-9.901 4.464-5.071-4.585V93.57zm-3.623 5.91l7.607 2.896-1.087 3.619-3.502 1.931-5.071-3.499-.847-3.377 2.9-1.57zm6.761 12.066l3.381-8.327 9.298-4.583 1.689 6.396 2.415-.725.362-2.774 4.227 4.1-.362 5.429-3.138 5.066 2.654 3.138-.723 4.705-3.381 1.811-6.882-4.707-6.159-5.308-3.502-1.57.121-2.651zm24.27 4.704l-.844 10.858-4.107 7.479 1.572 5.67 6.761-5.428 7.122-.483 3.744-3.739.483-8.687-3.985-5.067-3.38 3.379-1.813-1.931.243-5.188-5.796 3.137zm19.921 15.685l.604 2.894 5.315 1.206-.241-2.051-5.316-3.256-.362 1.207zm-40.328 21.714l2.778 2.051 2.053-1.206-1.448-3.016-3.383 2.171zm-24.509-3.98l3.5 1.929.242-2.774-2.292-2.654-1.691 1.446.241 2.053zm21.612 11.581l1.329 1.448 1.69-1.571-1.93-2.048-1.089 2.171zm-58.988 36.414l2.697 2.494 1.797-1.795-.7-2.794-2.296-.599-1.498 2.694zm6.493 3.194l1.498 1.098.995-1.896-1.697-1.895-.796 2.693zm3.894-7.284l1.498.997.899-1.697-2.297-1.495-.1 2.195zm2.697-3.991l1.698 1.297 1.598-2.296-2.598-1.895-1.398.997.7 1.897zm-12.087-13.771l1.9 1.298 2.796-1.699-1.597-2.793-2.399-.696-2.296 1.993 1.596 1.897zm5.994-9.78l-.699 1.697 1.498 2.095 1.596-1.695.101-1.898-2.496-.199zm-4.513-68.672l-.438 2.267 2.338 2.345 3.291.072-.149-2.928-2.264-3.001-2.778 1.245zm14.622-17.641l3.069.95 3.365-.876-1.975-4.393-2.487-1.978-1.754 1.685-.364 2.782.146 1.83zm90.219 462.016l-.679-3.563-.058-.315.304-.097 3.453-1.089-1.49-5.212-.092-.315.313-.117 4.127-1.549.304-.116.147.291 3.216 6.427 8.018-4.77.283-.166.191.266 2.771 3.874.003.005 2.376 2.172 3.098-1.16.067-.025h4.54l.11.17 2.127 3.371.138.212-.159.2-8.331 10.592-.208.271-.278-.196-5.063-3.558-6.202.583-.12.011-.104-.066-3.637-2.293-.021-.012-4.344-3.159-4.475-.375-.271-.021-.054-.271zM720.27 363.55l-2.341 2.597-.08.088-.116.024-5.565 1.169-5.041 2.24.279 5.59 1.453 3.772.055.141-.064.136-2.864 6.303 2.845 4.548.046.075.008.083.587 6.771.009.104-.046.093-4.423 8.54-.047.091-.082.05-7.361 4.529 2.765 4.699.121.205-.142.189-3.133 4.276 1.663 5.536 6.298 2.001.2.062.046.205.884 4.124.04.184-.129.137-4.628 4.91-.261 3.41 2.953.803.184.049.062.184 1.475 4.42.071.208-.16.158-3.469 3.468-1.45 5.205-.124.455-.405-.237-6.482-3.83-.094-.058-.051-.105-3.091-6.737-5.979 2.714-.857 5.692-.012.114-.075.077-13.155 14.315.576 6.613.022.262-.245.101-3.536 1.473-.319.133-.145-.312-5.056-10.941-3.466 4.527-.104.136-.169.005-13.647.583-5.402 9.94 6.077 9.537.081.126-.034.146-1.179 5.298-.053.246-.246.034-6.007.856-3.416 6.54-1.173 17.596-.024.371-.371-.039-5.796-.578-4.123 1.919v3.443l9.921 8.877 14.901 10.384 6.004-.392.307-.015.067.3.234 1.006 3.848.092 6.824-4.87.289-.209.211.289 4.322 5.888 13.102 10.359h6.579l.107.138 4.945 6.323.063.08.008.102.566 4.87 6.858 1.332.224.046.055.221.895 3.574 5.978-1.99 1.194-4.098h-6.468l-.1-.208-1.384-2.964-.138-.291.281-.166 2.966-1.783.062-.037.072-.008 4.068-.581 8.174-5.641 2.923-4.482.025-.039.037-.033 6.058-5.465 1.352-4.057.014-.037.021-.03 3.556-6.126.009-.014 4.328-6.679 3.738-10.231 2.794-8.211-2.923-6.868-.034-.087.008-.092.763-7.353.009-.108.072-.088 3.828-4.542-4.547-3.825-.099-.086-.023-.124-.762-4.314-.067-.375.38-.045 7.865-.982.961-4.566.084-.403.388.136 4.199 1.482 7.339-2.442 1.967-4.669.154-.364.345.187 3.729 1.982h3.899l.107.151 2.646 3.604 15.551-4.193 1.719-6.642.083-.315.321.049 3.109.475 3.927-4.416.547-.612.561 5.611 9.478 1.456 5.573-3.875.241-7.23-5.932-4.2-.146-.099-.006-.174-.509-9.127-.009-.188.15-.116 3.299-2.535.093-.071.116-.005 8.093-.235-7.605-17.232-4.084-2.826-7.156 3.25-.362.167-.125-.384-2.616-7.836-11.431-4.566-5.716.948-8.926 19.163-.021.042-.032.037-6.003 7-.255.295-.28-.272-4.331-4.329-2.766 4.914-.1.175-.204.009-8.223.329-5.581 4.266-.258.196-.223-.239-5.339-5.664-.109-.117.012-.154 1-14.667.004-.057.027-.06 4.843-11.295-6.286-1.882-.157-.049-.067-.149-3-6.665-.049-.112.025-.12 2.274-9.402-5.104-2.864-.191-.108.008-.221.334-9.239-3.77-7.217-3.004 2.097-.103.076-.125-.009-4.337-.333-.336-.026v-5.197l.17-.105 3.362-2.138-2.783-4.213z"/><path d="M685.35 538.352l.566 2.98 4.199.35.099.007.101.009.083.062.08.058 4.343 3.155 3.518 2.219 6.08-.571.133-.01.135-.014.107.079.109.074 4.778 3.359 7.961-10.126-1.887-2.984h-4.024l-3.037 1.136-.21.076-.203.079-.163-.15-.162-.145-2.37-2.174h-.004l-.028-.029-.03-.025-.021-.032-.021-.03-2.577-3.608-7.737 4.598-.333.2-.333.196-.172-.346-.175-.345-3.068-6.135-3.517 1.316 1.4 4.895.101.336.095.338-.338.104-.333.106-3.145.992zm101.31 27.319l1.776-4.564.078-.2.08-.205.217-.025.212-.025 10.015-1.223 2.874-5.981.208-.437.209-.437.357.329.358.327 2.296 2.099 2.391-5.652.074-.178.075-.175.189-.039.187-.037 5.074-1.016v.004l.138-.028.14-.03.121.076.12.079v-.005l6.091 3.804.212.134.209.129-.092.483-.762 4.057-.041.23-.046.233-.23.054-.224.054-2.992.699 5.087 4.661h.005l.386.357.391.36-.477.228-.475.233-21.067 10.139-.18.088-.178.087-.166-.103-12.347-7.712-.254-.161-.254-.157.107-.28.108-.274zM742.9 588.3l3.243.138 3.291 6.193 25.359 2.318 17.038-10.251 5.424-.192 1.741-5.61 8.322-7.737 11.618-.582 3.483 3.288 4.839-4.45 20.525 3.293 2.902-7.933 6.971-4.837-2.904-7.155 3.098-19.345 5.229-5.223-3.487-9.286-7.357-.774 5.23-9.671 9.221-6.394-8.481-12.711.141-.2 2.816-3.986-4.985-2.847-.163-.098-.018-.19-.728-9.718-4.92 1.169-.262.062-.134-.237-3.119-5.523-6.544 3.632-.238.131-.19-.193-4.058-4.053-.217-.215.175-.25 2.325-3.247-8.065-5.374-.075-.046-.042-.083-10.302-19.075-8.29.246-3.052 2.347.487 8.766 5.944 4.212.159.112-.005.192-.261 7.787-.146.104-5.837 4.059-.121.078-.137-.02-9.681-1.485-2.733 3.869 2.812 2.573.067.062.029.092 4.757 14.246 5.623.978.101.017.078.072 5.332 4.814.106.1.011.142.509 7.1.016.275-.258.091-8.482 2.989-3.235 7.463-.038.086-.072.059-9.501 7.242v4.957l4.408 2.933.175.119-.018.211-.508 5.836-.008.107-.069.087-4.317 5.324-.054.071-.088.034-5.474 2.237-1.97 3.198-.095.158-.184.013-6.435.495-10.052 13.309-.129.167-.209-.029-5.427-.737-5.966 4.965-.103.089h-9.524l1.872 5.609.078.237-.191.155-5.037 4.07 5.328 5.806.313.341-.413.222-5.189 2.714-1.598 5.896z"/><path d="M789.106 561.369l-1.774 4.561 12.179 7.607 21.067-10.142h-.005.005l-5.591-5.119-.504-.458.666-.158 3.649-.858.762-4.058-6.088-3.804-5.074 1.015-2.596 6.122-.2.471-.375-.345-2.67-2.442-2.958 6.159-.088.179-.195.025-10.21 1.245zm-75.373-198.106l-.216.146-4.232-3.323h-9.709l.632-5.701.012-.108.067-.083 5.566-6.725 1.645-4.392-3.598-2.489-.155-.108v-5.057l-3.15-3.43-.125-.136.038-.181 1.428-6.843-3.962-3.044.264-.291 5.494-6.067-2.045-25.667-6.425-9.877 3.217-1.658 7.74-6.301.12-.097.147.017 4.57.538 1.657-8.016.013-.07.037-.056 2.259-3.38.562-4.514.019-.144.113-.093 9.498-7.534-4.081-4.892-.085-.101v-7.779l-8.276-11.695-.046-.061-.016-.078-1.135-5.956-2.541-3.382-.083-.11.014-.133.27-3.386-5.107 2.55-5.807 4.449-7.939 2.322-3.096 5.415.192-7.737 16.07-16.635 8.907-16.055 4.065-14.314-12.392-14.123-11.613-.385-4.066 5.802-4.648.775 3.485-9.867-9.486-1.16 3.097-4.449-5.807-4.835-5.228 1.935-8.325 12.378 1.937 7.351-8.905.581.193 2.32 3.289 4.837-6.386-1.354-3.293 3.094-7.357-1.353-.965-3.288-10.457.193.195 5.997-12.587 1.74-8.518 6.769-6.581.196-4.841 4.256-2.13 8.703 4.066 7.352-6.195 1.547-16.456-2.709-9.487-.192-2.904 5.222-.387 13.54 6.001 5.805 2.906 6.769h-8.326l-7.163-13.347-5.254.308.062.674 4.579 9.72.2.431-.467.077-4.929.82-1.087 5.963 4.555 9.671.055.117-.031.125-1.15 4.6-.044.169-.16.072-10.773 4.815-1.355 5.414 7.012 9.248 7.934 1.982.227.056.041.233 1.737 9.918-.507 1.283v-.008l-2.803 7.107-.067.172-.178.047-7.262 1.955 2.195 5.213.054.125-.042.127-2.3 6.888 5.78 7.503.089.114-.015.143-1.461 13.702 4.633 6.366.091.124-.025.152-1.731 9.792 6.898 5.171.113.081.024.147 1.177 7.061.028.151-.089.125-6.13 8.453-.581 7.555-.009.108-.067.087-9.459 12.011v9.35l7.724 4.435.27.154-.113.288-1.384 3.553-.056.143-.139.062-6.919 2.964-.045.016-.05.007-5.908.737 2.557 9.019.051.176-.118.146-2.517 3.141v4.757l18.519 2.874.189.028.081.172 5.432 11.17 5 .624.344.042-.028.341-.325 4.216-.012.151-.111.095-7.321 6.363.612 5.199 4.07 4.066 6.083 1.919.327.104-.09.334-.975 3.565-.031.122-.096.071-6.685 5.09-.316 6.642-.009.224-.037.013-.907 4.236 5.784 11.236.12.232-.185.187-2.924 2.916-.04.048-.057.023-2.469 1.162 2.894 8.532h5.571l5.492-.645.126-.016.109.071 3.568 2.267.269.171-.135.284-1.863 4.036 4.111 6.319.042.062.013.071.97 5.493 1.936 5.807.014.046.002.042.326 4.215.02.234-.21.113-4.678 2.487v3.755l-.031.069-1.622 3.569-.061.136-.143.055-5.054 1.894-2.729 5.756 8.136 5.723 13.397 1.749 5.811-4.842.066-.053.082-.022 3.1-.728.181-3.088.01-.184.156-.099 4.752-3.038-.405-3.641.301-.08 3.551-.933 1.133-4.727.061-.255.258-.025 17.726-1.556.887-4.078-9.898-8.858-.12-.112v-4.212l.208-.099 4.42-2.062.092-.041.095.009 5.524.554 1.153-17.299.007-.071.034-.071 3.538-6.771.086-.167.182-.024 5.943-.849 1.091-4.911-6.108-9.59-.113-.179.099-.188 5.601-10.304.098-.179.205-.009 13.679-.581 3.73-4.87.364-.476.249.541 5.158 11.168 2.973-1.236-.567-6.51-.012-.159.108-.115 13.184-14.347.859-5.718-.038-.184 7.066-3.247.149.329 3.195 6.959 5.982 3.534 1.35-4.845.025-.095.062-.067 3.382-3.374-1.341-4.022-3.058-.833-.287-.079.021-.296.295-3.828.014-.126.086-.095 4.587-4.865-.804-3.739-6.281-1.997-.184-.058-.055-.18-1.769-5.887-.051-.172.109-.145 3.099-4.225-2.824-4.803-.179-.304.3-.187 7.576-4.657 4.325-8.353-.571-6.59-2.904-4.637-.1-.161.08-.175 2.887-6.343-1.421-3.688-.021-.054-.005-.057-.295-5.885-.009-.248.226-.099 5.302-2.355.037-.016.039-.009 5.482-1.153 2.37-2.63-1.959-2.447-4.149 2.759zm453.687-8.882l-1.55-19.345-2.13-8.899-6.39-6.383.58-9.478 3.29-2.709-11.03-12.767.19-8.898 4.65-5.029-1.16-5.028-9.3-2.709-9.48-16.829 2.32-1.549 2.91 4.062 4.64-2.901-7.16-6.77-3.87 2.128-6.19-4.01-.1.117-3.2-7.521h-6.39l-.77 4.449-4.07-.387-13.16-26.307.77-8.318 5.23-1.16-3.87-15.475 8.32 6.577.19-18.571 6.59-6.77 9.87-.192-5.61-13.736-2.69-29.586-6.39 1.936-.14.043-.13-.07-4.75-2.5-8.23 23.592-.09.249-.26-.008-10.46-.267-9.65 2.947-.33.101-.11-.323-3.15-8.641-13.02.781-2.33 4.14-.08.138-.16.039-8.97 2.109-1.56 4.66-.07.22-.23.023-4.88.514-1.55 5.426-.06.185-.18.058-5.63 1.791 1.01 5.541 8.09 11.755 5.02 1.055.2.04.07.184 3.43 8.98 5.71-.521.16-.014.11.11 3.81 3.53.09.08.02.117 1.06 5.537 5.25 2.962 3.63-3.389-9.87-11.799 2.32-7.739 9.49-3.288-5.04 7.546 1.17 5.803 7.55 5.222 3.48.193-.19 5.415 3.29.776-3.1 15.475 3.49 5.801 1.16 17.991 2.71 11.606 3.68 11.607-4.26 4.643 1.35 4.449-2.32 3.095 6 6.962.97 11.026 8.24 9.295v-.002l9.77 11.02 53.43 35.787zm-804.243-28.068l-.098-.013-.078-.064-11.02-9.032-3.951 2.18-.101.056-.113-.013-10.855-1.233.011-.074-7.24-3.757-.06-.03-.044-.052-6.658-7.501-8.643-.823-2.554 6.31 6.103 8.062.064.086.006.11.362 5.759.016.253-.237.098-10.044 4.226v3.38l2.757 2.41.251.215-3.155 4.218-.007-.029-2.744 3.08-3.704 9.53-.025.067-.046.049-3.118 3.334-2.006 5.242-.026.062-.044.053-3.389 3.72-.116.13-.176-.009-2.897-.198-.102 7.141 3.242-.099.371-.013v5.672l7.109.322.318.016.026.316.319 4.028 3.019.729.22.053.047.218.451 2.035.008.022.439 2.847 1.044 1.425 2.704-.702 5.983-7.072.09-.112.147-.014 6.777-.71 4.297-6.802.258-.403.316.354 3.088 3.43 2.727-1.765 1.067-4.791.06-.27.273-.012 7.523-.359 2.028-2.529.538-5.199.012-.113.074-.084 3.315-3.837-2.447-4.718-.045-.089.005-.095.182-3.838.012-.221.199-.09 7.994-3.63 9.262-9.078 6.184-8.176 1.157-2.648-6.712-.941zM44.195 373.564l-4.329-9.644-7.722-.66-4.29-6.911 6.697-3.765-.788-4.751 1.63-3.995-3.249-8.329-.688-5.34h-4.954l-2.725 2.174-9.022-4.174-8.503-.663-1.087 2.663 5.06 5.34-.577 4.247 2.696 2.493-6.092 5.584H2.648L.75 350.358l5.502 8.205 9.452-.729 5.354 6.086 4.488-.66 4.965 2.541-.553 4.292 6.826 5.473 7.41-2.002z"/></g><defs><clipPath id="clip0"><path fill="#fff" transform="translate(.75)" d="M0 0h1191v615H0z"/></clipPath></defs></svg>