<svg width="26" height="32" fill="none" xmlns="http://www.w3.org/2000/svg"><path fill-rule="evenodd" clip-rule="evenodd" d="M18.055 1.619A12.384 12.384 0 00.422 10.037l-.108.491a13.438 13.438 0 002.251 10.783l1.08 1.486a17.532 17.532 0 001.9 2.205l6.69 6.572a.401.401 0 00.563 0l6.691-6.572a17.527 17.527 0 001.9-2.205l1.08-1.487a13.439 13.439 0 002.252-10.782l-.108-.491a12.384 12.384 0 00-6.558-8.418zm-3.09 5.361a5.492 5.492 0 00-7.811 3.733l-.049.22a5.67 5.67 0 001.047 4.684l.076.099a5.415 5.415 0 008.577 0l.077-.1a5.67 5.67 0 001.046-4.684l-.048-.22a5.492 5.492 0 00-2.915-3.732z" fill="#fff"/></svg>