<svg width="11" height="19" fill="none" xmlns="http://www.w3.org/2000/svg"><path d="M3.42 11.089l-.88 2.902c-.08.27-.25.507-.48.678L.536 15.797a1.29 1.29 0 00-.252 1.855 1.41 1.41 0 001.928.242l1.523-1.127a3.97 3.97 0 001.445-2.035l.287-.946-.969-1.306a3.632 3.632 0 01-1.078-1.391z" fill="#9B9B9B"/><path d="M3.995 4.84A2.838 2.838 0 015.6 4.345c1.12 0 2.13.65 2.556 1.647l.478 1.117c.12.28.336.513.613.658l1.035.544c.667.35.912 1.154.549 1.795-.364.642-1.199.878-1.866.528l-1.035-.543a4.13 4.13 0 01-.704-.467L6.95 11.23l1.084 1.46c.3.406.52.862.645 1.345l.733 2.821c.184.71-.264 1.428-1 1.605-.737.177-1.484-.254-1.668-.963l-.733-2.82a1.302 1.302 0 00-.215-.449L4.5 12.48a3.571 3.571 0 01-1.373-2.75l-.38.651c-.373.637-1.211.863-1.873.505C.21 10.528-.024 9.72.349 9.084L1.595 6.95a4.026 4.026 0 011.198-1.285l1.202-.826zm1.386-.94c.51.236 1.103.236 1.613 0s.88-.683 1.005-1.214a1.738 1.738 0 00-.359-1.513A1.886 1.886 0 006.187.5c-.565 0-1.1.248-1.452.673a1.738 1.738 0 00-.36 1.513c.127.531.497.978 1.006 1.214z" fill="#9B9B9B"/></svg>