<svg width="73" height="73" viewBox="0 0 73 73" fill="none" xmlns="http://www.w3.org/2000/svg">
<circle cx="36.5" cy="36.5" r="36" stroke="#9B9B9B"/>
<path d="M68 36.5C68 29.4007 65.6018 22.5095 61.1944 16.944C56.787 11.3785 50.6287 7.46503 43.7183 5.8382C36.8079 4.21137 29.5506 4.96659 23.1232 7.98139C16.6958 10.9962 11.4753 16.0938 8.3082 22.4475C5.14112 28.8012 4.2132 36.0385 5.67492 42.9857C7.13664 49.9329 10.9023 56.1827 16.3612 60.7215C21.8201 65.2602 28.6522 67.8219 35.7495 67.9911C42.8468 68.1602 49.7931 65.9269 55.4621 61.6533" stroke="#9B9B9B"/>
<path d="M48.6338 31.5837H47.1041V28.0823C48.0333 28.6782 48.0614 28.7751 48.2542 28.7751C48.3726 28.7751 48.4888 28.7178 48.5593 28.612C48.6715 28.4437 48.626 28.2163 48.4576 28.1042C48.4524 28.1007 42.3606 24.0444 42.3548 24.0405C42.2288 23.9756 42.0835 23.992 41.9774 24.0663L40.4489 25.0848C40.2806 25.197 40.2351 25.4243 40.3472 25.5926C40.4593 25.7608 40.6868 25.8064 40.855 25.6943L42.1876 24.8063L46.3716 27.5957V31.5836H45.5873V29.2956C45.5873 28.4664 44.9128 27.7918 44.0836 27.7918C43.2544 27.7918 42.5798 28.4664 42.5798 29.2956V31.5836H41.7955V29.2956C41.7955 28.4664 41.121 27.7918 40.2918 27.7918C39.4627 27.7918 38.7881 28.4664 38.7881 29.2956V31.5836H38.0038V27.5943L39.2591 26.7579C39.4274 26.6457 39.4729 26.4184 39.3608 26.25C39.2487 26.0818 39.0213 26.0363 38.8529 26.1484L36.5 27.7162L31.0153 24.0616C31.015 24.0614 31.0148 24.0612 31.0144 24.061C30.892 23.9799 30.7331 23.9798 30.6105 24.0607C30.6101 24.061 30.6096 24.0613 30.6092 24.0616L24.5423 28.1042C24.374 28.2163 24.3285 28.4437 24.4406 28.612C24.5112 28.7178 24.6273 28.7751 24.7457 28.7751C24.9386 28.7751 24.9641 28.6798 25.8959 28.0823V31.5837H24.3662C24.164 31.5837 24 31.7476 24 31.9499V33.4666C24 33.6689 24.164 33.8328 24.3662 33.8328H24.7584V48.6338C24.7584 48.8361 24.9223 49 25.1246 49H47.8754C48.0777 49 48.2416 48.8361 48.2416 48.6338V33.8328H48.6338C48.836 33.8328 49 33.6689 49 33.4666V31.9499C49 31.7476 48.836 31.5837 48.6338 31.5837ZM43.3123 29.2956C43.3123 28.8703 43.6583 28.5243 44.0836 28.5243C44.5089 28.5243 44.8549 28.8703 44.8549 29.2956V31.5837H43.3123V29.2956ZM39.5205 29.2956C39.5205 28.8703 39.8665 28.5243 40.2918 28.5243C40.7171 28.5243 41.0631 28.8703 41.0631 29.2956V31.5837H39.5205V29.2956ZM37.2713 31.5837H35.7287V28.0823L36.2903 28.4566C36.4128 28.542 36.5804 28.5469 36.7099 28.4564L37.2713 28.0823V31.5837ZM26.6283 27.5957L30.8123 24.8064L34.9962 27.5957V31.5837H34.2119V29.2957C34.2119 28.4665 33.5374 27.7919 32.7082 27.7919C31.879 27.7919 31.2045 28.4665 31.2045 29.2957V31.5837H30.4202V29.2957C30.4202 28.4665 29.7456 27.7919 28.9164 27.7919C28.0872 27.7919 27.4127 28.4665 27.4127 29.2957V31.5837H26.6283V27.5957ZM33.4795 31.5837H31.9369V29.2957C31.9369 28.8704 32.2829 28.5243 32.7082 28.5243C33.1335 28.5243 33.4795 28.8704 33.4795 29.2957V31.5837ZM29.6877 31.5837H28.1451V29.2957C28.1451 28.8704 28.4911 28.5243 28.9164 28.5243C29.3417 28.5243 29.6877 28.8704 29.6877 29.2957V31.5837ZM24.7324 32.3161H36.1338V33.1004H24.7324V32.3161ZM36.1338 33.8328V37.6506H35.3495V35.8175C35.3495 35.1556 34.811 34.6171 34.1491 34.6171C33.4872 34.6171 32.9487 35.1556 32.9487 35.8175V37.6506H32.0128V35.8175C32.0128 35.1556 31.4743 34.6171 30.8124 34.6171C30.1504 34.6171 29.612 35.1556 29.612 35.8175V37.6506H28.6759V35.8175C28.6759 35.1556 28.1374 34.6171 27.4755 34.6171C26.8135 34.6171 26.2751 35.1556 26.2751 35.8175V37.6506H25.4908V33.8328H36.1338ZM34.6171 37.6506H33.6811V35.8175C33.6811 35.5595 33.891 35.3495 34.1491 35.3495C34.4071 35.3495 34.617 35.5595 34.617 35.8175V37.6506H34.6171ZM31.2802 37.6506H30.3443V35.8175C30.3443 35.5595 30.5542 35.3495 30.8123 35.3495C31.0703 35.3495 31.2802 35.5595 31.2802 35.8175V37.6506ZM27.9434 37.6506H27.0075V35.8175C27.0075 35.5595 27.2175 35.3495 27.4755 35.3495C27.7335 35.3495 27.9434 35.5595 27.9434 35.8175V37.6506ZM25.4908 38.383H36.1338V48.2676H35.2155V47.1171C35.2155 46.9148 35.0515 46.7509 34.8493 46.7509H33.8328V45.6004C33.8328 45.3981 33.6688 45.2342 33.4666 45.2342H33.0744V41.4295C33.0744 40.1821 32.0596 39.1673 30.8123 39.1673C29.6648 39.1673 28.699 40.0256 28.5657 41.1638C28.5421 41.3647 28.6859 41.5466 28.8868 41.5702C29.0875 41.5936 29.2696 41.45 29.2932 41.2491C29.3833 40.4798 30.0364 39.8998 30.8124 39.8998C31.6558 39.8998 32.3421 40.586 32.3421 41.4295V45.2342H29.2827V42.8009C29.2827 42.5986 29.1187 42.4347 28.9165 42.4347C28.7142 42.4347 28.5503 42.5986 28.5503 42.8009V45.2342H28.1581C27.9559 45.2342 27.7919 45.3981 27.7919 45.6004V46.7509H26.7753C26.5731 46.7509 26.4091 46.9148 26.4091 47.1171V48.2676H25.4908V38.383ZM33.1003 45.9665V46.7508H28.5242V45.9665H33.1003ZM27.1415 48.2676V47.4833H34.483V48.2676H27.1415ZM38.517 48.2676V47.4833H41.0105C41.2127 47.4833 41.3767 47.3194 41.3767 47.1171C41.3767 46.9148 41.2127 46.7509 41.0105 46.7509H39.8996V45.9666H44.4757V46.7509H42.6065C42.4043 46.7509 42.2403 46.9148 42.2403 47.1171C42.2403 47.3194 42.4043 47.4833 42.6065 47.4833H45.8585V48.2676H38.517ZM43.7174 45.2341H40.658V41.4294C40.658 40.5859 41.3443 39.8997 42.1877 39.8997C43.0312 39.8997 43.7174 40.5859 43.7174 41.4294V45.2341H43.7174ZM46.5909 48.2676V47.1171C46.5909 46.9148 46.4269 46.7509 46.2247 46.7509H45.2082V45.6004C45.2082 45.3981 45.0442 45.2342 44.842 45.2342H44.4498V41.4294C44.4498 40.1821 43.435 39.1673 42.1877 39.1673C40.9404 39.1673 39.9256 40.1821 39.9256 41.4294V45.2342H39.5334C39.3312 45.2342 39.1672 45.3981 39.1672 45.6004V46.7509H38.1507C37.9485 46.7509 37.7845 46.9148 37.7845 47.1171V48.2676H36.8662V38.383H47.5092V48.2676H46.5909V48.2676ZM39.3189 37.6506H38.3829V35.8175C38.3829 35.5595 38.5929 35.3495 38.8509 35.3495C39.1089 35.3495 39.3189 35.5595 39.3189 35.8175V37.6506H39.3189ZM42.6557 37.6506H41.7198V35.8175C41.7198 35.5595 41.9297 35.3495 42.1877 35.3495C42.4458 35.3495 42.6557 35.5595 42.6557 35.8175V37.6506ZM45.9925 37.6506H45.0565V35.8175C45.0565 35.5595 45.2664 35.3495 45.5245 35.3495C45.7825 35.3495 45.9925 35.5595 45.9925 35.8175V37.6506ZM47.5092 37.6506H46.7249V35.8175C46.7249 35.1556 46.1864 34.6171 45.5245 34.6171C44.8626 34.6171 44.3241 35.1556 44.3241 35.8175V37.6506H43.3881V35.8175C43.3881 35.1556 42.8497 34.6171 42.1877 34.6171C41.5258 34.6171 40.9873 35.1556 40.9873 35.8175V37.6506H40.0513V35.8175C40.0513 35.1556 39.5129 34.6171 38.8509 34.6171C38.189 34.6171 37.6505 35.1556 37.6505 35.8175V37.6506H36.8663V33.8328H47.5093V37.6506H47.5092ZM48.2676 33.1004H36.8662V32.3161H48.2676V33.1004Z" fill="#CDCC42"/>
</svg>
