<svg width="73" height="73" viewBox="0 0 73 73" fill="none" xmlns="http://www.w3.org/2000/svg">
<circle cx="36.5" cy="36.5" r="36" stroke="#9B9B9B"/>
<path d="M68 36.5C68 29.4007 65.6018 22.5095 61.1944 16.944C56.787 11.3785 50.6287 7.46503 43.7183 5.8382C36.8079 4.21137 29.5506 4.96659 23.1232 7.98139C16.6958 10.9962 11.4753 16.0938 8.3082 22.4475C5.14112 28.8012 4.2132 36.0385 5.67492 42.9857C7.13664 49.9329 10.9023 56.1827 16.3612 60.7215C21.8201 65.2602 28.6522 67.8219 35.7495 67.9911C42.8468 68.1602 49.7931 65.9269 55.4621 61.6533" stroke="#9B9B9B"/>
<path d="M36.3905 55.3126H36.3849C33.473 55.2832 30.6064 54.5882 28.0045 53.2808C25.4025 51.9733 23.1341 50.088 21.3727 47.7691C19.6113 45.4502 18.4037 42.7591 17.8422 39.9018C17.2806 37.0444 17.3801 34.0965 18.133 31.2835C18.1508 31.21 18.1831 31.1408 18.228 31.0799C18.2729 31.019 18.3296 30.9678 18.3946 30.9291C18.4596 30.8904 18.5317 30.8652 18.6066 30.8548C18.6815 30.8444 18.7578 30.849 18.8309 30.8685C18.904 30.888 18.9724 30.9219 19.0322 30.9682C19.092 31.0145 19.142 31.0723 19.1791 31.1382C19.2163 31.2041 19.2398 31.2768 19.2485 31.3519C19.2572 31.4271 19.2507 31.5032 19.2296 31.5758C18.5212 34.2216 18.4275 36.9943 18.9555 39.6819C19.4835 42.3695 20.6192 44.9007 22.2759 47.0818C23.9325 49.263 26.066 51.0363 28.5133 52.2662C30.9606 53.496 33.6568 54.1498 36.3956 54.1775C36.5462 54.1782 36.6903 54.2386 36.7962 54.3455C36.9022 54.4524 36.9613 54.5971 36.9607 54.7476C36.96 54.8981 36.8995 55.0422 36.7926 55.1482C36.6857 55.2541 36.5411 55.3133 36.3905 55.3126Z" fill="#CDCC42"/>
<path d="M20.9646 26.8155C20.8628 26.8155 20.7628 26.788 20.6752 26.736C20.5877 26.684 20.5157 26.6094 20.4669 26.52C20.4181 26.4306 20.3942 26.3297 20.3978 26.2279C20.4014 26.1262 20.4323 26.0272 20.4873 25.9415C21.2323 24.7796 22.1006 23.7016 23.0771 22.7262C24.8496 20.9536 26.954 19.5475 29.27 18.5881C31.5859 17.6288 34.0682 17.135 36.575 17.135C39.0818 17.135 41.5641 17.6288 43.88 18.5881C46.196 19.5475 48.3004 20.9536 50.0729 22.7262C50.1763 22.8333 50.2335 22.9766 50.2322 23.1254C50.2309 23.2743 50.1712 23.4166 50.066 23.5218C49.9607 23.6271 49.8184 23.6868 49.6696 23.6881C49.5208 23.6893 49.3774 23.6321 49.2704 23.5288C47.6032 21.8616 45.624 20.5391 43.4457 19.6368C41.2674 18.7345 38.9327 18.2701 36.575 18.2701C34.2173 18.2701 31.8826 18.7345 29.7043 19.6368C27.526 20.5391 25.5468 21.8616 23.8796 23.5288C22.9611 24.4467 22.1442 25.4609 21.4431 26.5539C21.3917 26.6342 21.321 26.7002 21.2373 26.7459C21.1537 26.7917 21.0599 26.8156 20.9646 26.8155Z" fill="#CDCC42"/>
<path d="M55.08 36.2905C54.932 36.2905 54.7898 36.2327 54.6838 36.1295C54.5777 36.0262 54.5162 35.8856 54.5124 35.7376C54.4369 32.741 53.6106 29.8113 52.1093 27.2168C52.0698 27.1523 52.0437 27.0806 52.0323 27.0058C52.0209 26.9311 52.0245 26.8548 52.043 26.7815C52.0615 26.7082 52.0945 26.6394 52.1399 26.579C52.1854 26.5186 52.2425 26.4679 52.3078 26.4299C52.3731 26.3918 52.4454 26.3672 52.5204 26.3575C52.5953 26.3478 52.6715 26.3531 52.7444 26.3732C52.8172 26.3934 52.8854 26.4278 52.9447 26.4746C53.0041 26.5214 53.0535 26.5796 53.0901 26.6458C54.6872 29.405 55.5664 32.521 55.647 35.7081C55.6509 35.8586 55.595 36.0044 55.4914 36.1136C55.3879 36.2228 55.2452 36.2864 55.0947 36.2905H55.08Z" fill="#CDCC42"/>
<path d="M51.8567 47.2559C51.7532 47.2559 51.6516 47.2275 51.5631 47.1739C51.4745 47.1203 51.4022 47.0435 51.3542 46.9518C51.3061 46.86 51.2841 46.7569 51.2904 46.6536C51.2968 46.5502 51.3313 46.4506 51.3902 46.3654C51.6876 45.9352 51.972 45.4761 52.2347 45.0004C52.2704 44.9344 52.3187 44.876 52.377 44.8288C52.4353 44.7815 52.5024 44.7463 52.5745 44.7251C52.6465 44.704 52.722 44.6973 52.7966 44.7056C52.8712 44.7138 52.9434 44.7367 53.0091 44.7731C53.0748 44.8094 53.1326 44.8584 53.1792 44.9172C53.2258 44.976 53.2603 45.0435 53.2807 45.1158C53.301 45.188 53.3068 45.2636 53.2978 45.3381C53.2888 45.4126 53.265 45.4846 53.228 45.5498C52.947 46.0606 52.6428 46.5499 52.3244 47.0108C52.2722 47.0865 52.2023 47.1483 52.1208 47.191C52.0394 47.2338 51.9487 47.256 51.8567 47.2559Z" fill="#CDCC42"/>
<path d="M41.3738 54.6854C41.232 54.687 41.0948 54.6355 40.989 54.541C40.8833 54.4466 40.8168 54.3159 40.8026 54.1749C40.7883 54.0338 40.8274 53.8925 40.9121 53.7788C40.9968 53.6651 41.121 53.5872 41.2603 53.5605C44.0677 52.8006 46.6479 51.3689 48.7783 49.3889C48.8325 49.3363 48.8967 49.2951 48.967 49.2677C49.0374 49.2402 49.1125 49.2271 49.188 49.2291C49.2634 49.231 49.3378 49.248 49.4066 49.2791C49.4754 49.3101 49.5374 49.3546 49.5888 49.4099C49.6402 49.4651 49.6801 49.5301 49.7061 49.601C49.7321 49.6719 49.7437 49.7473 49.7402 49.8227C49.7367 49.8981 49.7182 49.9721 49.6858 50.0403C49.6533 50.1085 49.6076 50.1695 49.5513 50.2198C47.2763 52.3347 44.5186 53.8611 41.5185 54.6661C41.4713 54.6789 41.4227 54.6854 41.3738 54.6854Z" fill="#CDCC42"/>
<path d="M54.2922 42.1881C54.2345 42.1882 54.1771 42.1796 54.1219 42.1626C54.0507 42.1406 53.9845 42.1048 53.9272 42.0572C53.8698 42.0096 53.8223 41.9511 53.7876 41.8852C53.7528 41.8192 53.7313 41.7471 53.7244 41.6729C53.7175 41.5986 53.7253 41.5238 53.7473 41.4526C53.9106 40.9216 54.0468 40.3826 54.1554 39.8378C54.1855 39.6903 54.273 39.5608 54.3986 39.4778C54.5242 39.3948 54.6776 39.365 54.8252 39.3951C54.9727 39.4252 55.1022 39.5127 55.1852 39.6383C55.2682 39.7639 55.298 39.9173 55.2679 40.0649C55.1419 40.6892 55 41.2511 54.8342 41.7891C54.7983 41.9048 54.7263 42.0059 54.6287 42.0777C54.5312 42.1494 54.4133 42.1882 54.2922 42.1881Z" fill="#CDCC42"/>
<path d="M49.6716 23.6951H45.3058C45.1553 23.6951 45.011 23.6353 44.9045 23.5288C44.7981 23.4224 44.7383 23.278 44.7383 23.1275C44.7383 22.977 44.7981 22.8326 44.9045 22.7262C45.011 22.6197 45.1553 22.5599 45.3058 22.5599H49.104V18.7618C49.104 18.6113 49.1638 18.4669 49.2703 18.3605C49.3767 18.254 49.5211 18.1942 49.6716 18.1942C49.8221 18.1942 49.9665 18.254 50.0729 18.3605C50.1794 18.4669 50.2392 18.6113 50.2392 18.7618V23.1275C50.2392 23.278 50.1794 23.4224 50.0729 23.5288C49.9665 23.6353 49.8221 23.6951 49.6716 23.6951Z" fill="#CDCC42"/>
<path d="M20.8676 35.7785C20.7679 35.7786 20.6699 35.7524 20.5835 35.7026C20.4971 35.6528 20.4254 35.5811 20.3755 35.4947L18.4764 32.2057L15.1874 34.1053C15.0571 34.1794 14.9028 34.1989 14.7581 34.1597C14.6135 34.1204 14.4902 34.0255 14.4153 33.8957C14.3404 33.7659 14.3198 33.6118 14.3581 33.4669C14.3964 33.322 14.4905 33.1981 14.6198 33.1223L18.4004 30.9394C18.4649 30.9021 18.5362 30.8778 18.6102 30.8681C18.6841 30.8583 18.7593 30.8632 18.8314 30.8825C18.9034 30.9018 18.971 30.9351 19.0301 30.9805C19.0893 31.0259 19.139 31.0826 19.1762 31.1472L21.3585 34.9277C21.4083 35.014 21.4345 35.1118 21.4346 35.2114C21.4346 35.311 21.4084 35.4088 21.3587 35.495C21.3089 35.5813 21.2374 35.653 21.1512 35.7028C21.065 35.7527 20.9672 35.779 20.8676 35.7791V35.7785Z" fill="#CDCC42"/>
<path d="M45.1487 56.8649C45.0491 56.8649 44.9512 56.8387 44.8649 56.7889L41.0844 54.6066C41.0197 54.5694 40.963 54.5197 40.9175 54.4606C40.8721 54.4014 40.8387 54.3339 40.8193 54.2618C40.8 54.1898 40.795 54.1146 40.8048 54.0406C40.8145 53.9666 40.8387 53.8953 40.8761 53.8307L43.0595 50.0501C43.1348 49.9197 43.2588 49.8245 43.4042 49.7855C43.5497 49.7465 43.7046 49.7669 43.8351 49.8421C43.9655 49.9174 44.0607 50.0414 44.0997 50.1868C44.1387 50.3323 44.1184 50.4873 44.0431 50.6177L42.144 53.9068L45.4331 55.8058C45.5413 55.8683 45.6258 55.9647 45.6736 56.0802C45.7214 56.1956 45.7298 56.3236 45.6975 56.4443C45.6651 56.5649 45.5939 56.6716 45.4948 56.7476C45.3957 56.8237 45.2742 56.8649 45.1493 56.8649H45.1487Z" fill="#CDCC42"/>
<path d="M37.6675 48.919H35.1702C34.9673 48.9187 34.77 48.852 34.6086 48.729C34.4471 48.606 34.3304 48.4335 34.2763 48.2379L33.8223 46.5619C32.7929 46.3069 31.8075 45.8994 30.8987 45.3529L29.3918 46.2151C29.2153 46.316 29.0104 46.356 28.8088 46.3289C28.6073 46.3018 28.4202 46.2092 28.2766 46.0652L26.5035 44.2956C26.3599 44.1517 26.2675 43.9646 26.2405 43.7631C26.2136 43.5616 26.2535 43.3569 26.3542 43.1803L27.2164 41.6734C26.6699 40.7646 26.2624 39.7792 26.0074 38.7499L24.332 38.2958C24.1352 38.2419 23.9616 38.1247 23.8381 37.9623C23.7146 37.7999 23.648 37.6014 23.6486 37.3973V34.9C23.6489 34.6971 23.7156 34.4998 23.8386 34.3384C23.9616 34.1769 24.1341 34.0602 24.3297 34.0061L26.0057 33.5521C26.2607 32.5227 26.6682 31.5373 27.2147 30.6285L26.3525 29.1216C26.2517 28.945 26.2117 28.7402 26.2388 28.5387C26.2659 28.3371 26.3585 28.1501 26.5024 28.0064L28.2703 26.2378C28.414 26.0939 28.6011 26.0013 28.8027 25.9743C29.0043 25.9473 29.2091 25.9875 29.3856 26.0886L30.8925 26.9507C31.8013 26.4042 32.7867 25.9967 33.816 25.7418L34.2701 24.0663C34.3232 23.8684 34.4403 23.6936 34.6031 23.5692C34.7659 23.4448 34.9653 23.3777 35.1702 23.3784H37.6675C37.8705 23.3787 38.0678 23.4454 38.2292 23.5684C38.3907 23.6914 38.5074 23.8639 38.5615 24.0595L39.0155 25.7355C40.0449 25.9905 41.0303 26.398 41.9391 26.9445L43.4459 26.0823C43.6226 25.9816 43.8274 25.9417 44.0289 25.9688C44.2304 25.9958 44.4175 26.0884 44.5612 26.2322L46.3298 28.0001C46.4734 28.144 46.5657 28.3311 46.5927 28.5326C46.6197 28.734 46.5797 28.9388 46.479 29.1154L45.6169 30.6223C46.1634 31.5311 46.5709 32.5165 46.8258 33.5458L48.5013 33.9999C48.6992 34.053 48.874 34.1701 48.9984 34.3329C49.1228 34.4957 49.1899 34.6951 49.1892 34.9V37.3973C49.1889 37.6003 49.1222 37.7976 48.9992 37.959C48.8762 38.1205 48.7037 38.2372 48.5081 38.2913L46.8321 38.7453C46.5771 39.7747 46.1696 40.7601 45.6231 41.6689L46.4853 43.1757C46.5861 43.3523 46.6261 43.5572 46.599 43.7587C46.5719 43.9603 46.4793 44.1473 46.3354 44.291L44.5658 46.0641C44.4219 46.2078 44.2349 46.3002 44.0333 46.3272C43.8318 46.3542 43.627 46.3142 43.4505 46.2134L41.9436 45.3512C41.0348 45.8977 40.0494 46.3052 39.0201 46.5602L38.566 48.2356C38.5121 48.4324 38.3949 48.606 38.2325 48.7295C38.0701 48.853 37.8716 48.9196 37.6675 48.919ZM35.3252 47.7838H37.5081L38.0115 45.9341C38.0388 45.8334 38.0934 45.7423 38.1692 45.6706C38.245 45.5989 38.3391 45.5495 38.4411 45.5278C39.5718 45.2868 40.6489 44.8413 41.6195 44.2133C41.7069 44.157 41.8081 44.1258 41.9119 44.1231C42.0158 44.1204 42.1185 44.1463 42.2087 44.1979L43.8711 45.1486L45.4143 43.6054L44.4636 41.943C44.412 41.8528 44.3861 41.7502 44.3888 41.6463C44.3915 41.5424 44.4227 41.4412 44.4789 41.3539C45.1069 40.3833 45.5524 39.3061 45.7934 38.1755C45.8151 38.0734 45.8645 37.9793 45.9362 37.9035C46.0079 37.8277 46.0991 37.7732 46.1998 37.7458L48.054 37.2401V35.0573L46.2043 34.5538C46.1036 34.5265 46.0124 34.4719 45.9408 34.3961C45.8691 34.3203 45.8197 34.2262 45.798 34.1242C45.557 32.9935 45.1115 31.9164 44.4835 30.9458C44.4272 30.8584 44.396 30.7573 44.3933 30.6534C44.3906 30.5495 44.4165 30.4469 44.4681 30.3567L45.4188 28.6943L43.8756 27.151L42.2132 28.1017C42.123 28.1533 42.0204 28.1792 41.9165 28.1765C41.8126 28.1738 41.7114 28.1426 41.6241 28.0864C40.6535 27.4584 39.5763 27.0129 38.4457 26.7719C38.3436 26.7502 38.2495 26.7008 38.1737 26.6291C38.0979 26.5574 38.0434 26.4662 38.016 26.3655L37.5103 24.5136H35.3275L34.824 26.3633C34.7967 26.4639 34.7421 26.5551 34.6663 26.6268C34.5905 26.6985 34.4964 26.7479 34.3944 26.7696C33.2637 27.0106 32.1866 27.4561 31.216 28.0841C31.1286 28.1404 31.0275 28.1715 30.9236 28.1742C30.8197 28.1769 30.7171 28.1511 30.6269 28.0995L28.9645 27.1488L27.4212 28.692L28.3719 30.3544C28.4235 30.4446 28.4494 30.5472 28.4467 30.6511C28.444 30.755 28.4128 30.8561 28.3566 30.9435C27.7286 31.9141 27.2831 32.9913 27.0421 34.1219C27.0204 34.224 26.971 34.318 26.8993 34.3938C26.8276 34.4696 26.7364 34.5242 26.6357 34.5516L24.7838 35.0573V37.2401L26.6335 37.7436C26.7341 37.7709 26.8253 37.8255 26.897 37.9013C26.9687 37.9771 27.0181 38.0712 27.0398 38.1732C27.2808 39.3039 27.7263 40.381 28.3543 41.3516C28.4106 41.439 28.4417 41.5401 28.4444 41.644C28.4472 41.7479 28.4213 41.8505 28.3697 41.9407L27.419 43.6031L28.9622 45.1463L30.6246 44.1957C30.7148 44.144 30.8174 44.1182 30.9213 44.1209C31.0252 44.1236 31.1263 44.1547 31.2137 44.211C32.1843 44.839 33.2615 45.2845 34.3921 45.5255C34.4942 45.5472 34.5883 45.5966 34.664 45.6683C34.7398 45.74 34.7944 45.8312 34.8218 45.9319L35.3252 47.7838Z" fill="#CDCC42"/>
<path d="M36.419 43.7598C34.9136 43.7598 33.4421 43.3134 32.1905 42.4771C30.9388 41.6408 29.9633 40.4521 29.3872 39.0613C28.8112 37.6706 28.6604 36.1402 28.9541 34.6638C29.2478 33.1874 29.9727 31.8313 31.0371 30.7668C32.1015 29.7024 33.4577 28.9775 34.9341 28.6838C36.4105 28.3902 37.9408 28.5409 39.3316 29.117C40.7223 29.693 41.911 30.6686 42.7473 31.9202C43.5837 33.1718 44.03 34.6434 44.03 36.1487C44.0279 38.1666 43.2254 40.1013 41.7985 41.5282C40.3716 42.9551 38.4369 43.7577 36.419 43.7598ZM36.419 29.6727C35.1381 29.6727 33.8861 30.0525 32.8211 30.7641C31.7561 31.4757 30.9261 32.4871 30.436 33.6704C29.9458 34.8538 29.8176 36.1559 30.0674 37.4121C30.3173 38.6683 30.9341 39.8222 31.8398 40.7279C32.7454 41.6336 33.8993 42.2503 35.1556 42.5002C36.4118 42.7501 37.7139 42.6218 38.8972 42.1317C40.0805 41.6415 41.0919 40.8115 41.8035 39.7465C42.5151 38.6816 42.8949 37.4295 42.8949 36.1487C42.8931 34.4317 42.2102 32.7856 40.9962 31.5715C39.7821 30.3574 38.1359 29.6745 36.419 29.6727Z" fill="#CDCC42"/>
</svg>
