<svg width="73" height="73" viewBox="0 0 73 73" fill="none" xmlns="http://www.w3.org/2000/svg">
<circle cx="36.5" cy="36.5" r="36" stroke="#9B9B9B"/>
<path d="M68 36.5C68 29.4007 65.6018 22.5095 61.1944 16.944C56.787 11.3785 50.6287 7.46503 43.7183 5.8382C36.8079 4.21137 29.5506 4.96659 23.1232 7.98139C16.6958 10.9962 11.4753 16.0938 8.3082 22.4475C5.14112 28.8012 4.2132 36.0385 5.67492 42.9857C7.13664 49.9329 10.9023 56.1827 16.3612 60.7215C21.8201 65.2602 28.6522 67.8219 35.7495 67.9911C42.8468 68.1602 49.7931 65.9269 55.4621 61.6533" stroke="#9B9B9B"/>
<g clip-path="url(#clip0)">
<path d="M48.9542 30.706C48.7666 29.0127 47.9984 27.4154 46.7914 26.2083C43.8508 23.2678 39.0656 23.2678 36.1245 26.2083C33.9333 28.3994 33.3753 31.6146 34.4496 34.328L31.158 37.6195C31.0097 37.7679 31.0097 38.0083 31.158 38.1565C31.2321 38.2307 31.3293 38.2677 31.4264 38.2677C31.5236 38.2677 31.6208 38.2307 31.6949 38.1565L34.7877 35.0638C34.9453 35.3629 35.1247 35.6531 35.3253 35.933L23.8601 47.3983L23.7594 46.1027C23.759 46.0964 23.7612 46.0904 23.7658 46.0858L30.442 39.4097C30.5902 39.2613 30.5902 39.0209 30.442 38.8727C30.2937 38.7244 30.0532 38.7244 29.905 38.8727L23.2287 45.5489C23.067 45.7106 22.9845 45.934 23.0022 46.1616L23.227 49.0547C23.2567 49.441 23.5587 49.7429 23.9447 49.7727L26.838 49.9975C26.8583 49.9991 26.8786 49.9999 26.8988 49.9999C27.1052 49.9999 27.3036 49.9182 27.4508 49.771L29.6998 47.522C29.8716 47.3486 29.9171 47.0844 29.813 46.8646L29.2792 45.7352L30.4074 46.2685C30.6294 46.3742 30.8948 46.3281 31.0666 46.1548L32.3004 44.9215C32.4728 44.7491 32.5189 44.4849 32.4147 44.2633L31.8803 43.1332L33.0095 43.6667C33.2295 43.7716 33.494 43.7264 33.6689 43.553L35.8949 41.327C36.0673 41.1546 36.1134 40.8904 36.0092 40.6689L35.4752 39.5391L36.6056 40.0737C36.8263 40.1774 37.0905 40.1314 37.2628 39.9591L38.6687 38.5531C39.5283 38.8948 40.4525 39.0774 41.4039 39.0842C41.4223 39.0843 41.4407 39.0844 41.4592 39.0844C43.4308 39.0844 45.2931 38.33 46.7083 36.9568C46.8588 36.8108 46.8624 36.5704 46.7164 36.4199C46.5704 36.2695 46.33 36.2658 46.1795 36.4118C43.5366 38.9764 39.2668 38.9433 36.6615 36.3384C34.0169 33.6934 34.0169 29.39 36.6614 26.7455C39.3064 24.101 43.6098 24.1009 46.2543 26.7455C48.4871 28.9783 48.8912 32.4121 47.2369 35.0959C47.1269 35.2744 47.1825 35.5083 47.3609 35.6184C47.5393 35.7283 47.7733 35.6729 47.8834 35.4944C48.7588 34.074 49.1391 32.3736 48.9542 30.706ZM37.9341 38.2137L36.8152 39.3327L35.3466 38.6381C35.1222 38.5326 34.8639 38.5779 34.6887 38.7535C34.5136 38.9291 34.4689 39.1873 34.5749 39.4112L35.2687 40.8791L33.2212 42.9266L31.7529 42.2329C31.5288 42.1269 31.2705 42.1715 31.0949 42.3467C30.9193 42.5219 30.874 42.7801 30.9799 43.0052L31.6742 44.4736L30.6189 45.5284L29.1512 44.8346C28.9268 44.7284 28.6684 44.7732 28.4929 44.9488C28.3174 45.1243 28.2725 45.3827 28.3787 45.6069L29.0726 47.0752L26.9139 49.234C26.9093 49.2386 26.9033 49.241 26.897 49.2403L24.0034 49.0155C23.9931 49.0147 23.985 49.0067 23.9842 48.9961L23.9375 48.3948L35.8016 36.5308C35.9051 36.6481 36.0124 36.7632 36.1245 36.8753C36.6657 37.4164 37.2756 37.865 37.9341 38.2137Z" fill="#CDCC42"/>
<path d="M36.0164 31.8299C36.0164 32.0365 36.0968 32.2308 36.2429 32.3769L40.6218 36.7558C40.768 36.9019 40.9622 36.9824 41.1688 36.9824C41.3754 36.9824 41.5697 36.9019 41.7158 36.7558L44.6753 33.7963L44.8387 34.8649C44.8674 35.0527 45.0292 35.1872 45.2135 35.1872C45.2326 35.1872 45.2519 35.1858 45.2714 35.1828C45.4787 35.1511 45.6211 34.9574 45.5894 34.7501L45.2829 32.745C45.2828 32.7442 45.2828 32.7435 45.2827 32.7427L44.9819 30.7758L44.7019 28.9445C44.6506 28.6086 44.3904 28.3484 44.0544 28.2969L38.2482 27.4089C38.0411 27.3773 37.8472 27.5196 37.8154 27.7269C37.7837 27.9342 37.9261 28.1279 38.1334 28.1596L39.2026 28.3232L36.2429 31.2828C36.0968 31.4291 36.0164 31.6233 36.0164 31.8299ZM38.5416 33.6016L40.1348 32.0084L40.9903 32.8639L39.3971 34.4571L38.5416 33.6016ZM36.7799 31.8199L40.129 28.4708C40.1317 28.4681 40.1353 28.4666 40.1389 28.4666C40.1397 28.4666 40.1404 28.4667 40.1411 28.4668L43.9392 29.0477C43.9453 29.0487 43.9501 29.0534 43.951 29.0595L44.242 30.9624L44.5318 32.8581C44.5323 32.8623 44.5309 32.8666 44.5279 32.8696L41.1788 36.2188C41.1775 36.2201 41.1747 36.2229 41.1688 36.2229C41.163 36.2229 41.1602 36.2201 41.1589 36.2188L39.9341 34.994L41.6526 33.2756C41.8795 33.0486 41.8795 32.6792 41.6526 32.4521L40.5465 31.346C40.3194 31.1191 39.9501 31.1192 39.723 31.346L38.0046 33.0646L36.7799 31.8398C36.7785 31.8385 36.7757 31.8357 36.7757 31.8299C36.7757 31.824 36.7785 31.8213 36.7799 31.8199Z" fill="#CDCC42"/>
</g>
<defs>
<clipPath id="clip0">
<rect width="26" height="26" fill="white" transform="translate(23 24)"/>
</clipPath>
</defs>
</svg>
