<svg width="73" height="73" viewBox="0 0 73 73" fill="none" xmlns="http://www.w3.org/2000/svg">
<circle cx="36.5" cy="36.5" r="36" stroke="#9B9B9B"/>
<path d="M68 36.5C68 29.4007 65.6018 22.5095 61.1944 16.944C56.787 11.3785 50.6287 7.46503 43.7183 5.8382C36.8079 4.21137 29.5506 4.96659 23.1232 7.98139C16.6958 10.9962 11.4753 16.0938 8.3082 22.4475C5.14112 28.8012 4.2132 36.0385 5.67492 42.9857C7.13664 49.9329 10.9023 56.1827 16.3612 60.7215C21.8201 65.2602 28.6522 67.8219 35.7495 67.9911C42.8468 68.1602 49.7931 65.9269 55.4621 61.6533" stroke="#9B9B9B"/>
<g clip-path="url(#clip0)">
<path d="M48.779 35.2693L45.4307 26.7086C46.8259 25.9173 47.4692 24.1994 46.8684 22.6632C46.2095 20.9786 44.3024 20.1435 42.6173 20.8026C40.9323 21.4617 40.0978 23.369 40.7567 25.0537L19.8025 33.2494L26.6323 50.7113L39.751 45.5802C41.4047 49.1392 45.571 50.8538 49.2746 49.4052C53.1258 47.8989 55.0338 43.5398 53.5274 39.6885C52.6671 37.4888 50.8748 35.9268 48.779 35.2693ZM42.9588 21.6757C44.1624 21.205 45.5245 21.8012 45.9953 23.0047C46.466 24.2083 45.8698 25.5704 44.6663 26.0412C43.4627 26.5119 42.1006 25.9157 41.6298 24.7122C41.1591 23.5086 41.7553 22.1465 42.9588 21.6757ZM21.0171 33.781L41.227 25.8764C41.4676 26.1839 41.759 26.4399 42.0833 26.6412L40.4577 30.3554C40.2545 30.3403 40.0466 30.3647 39.8449 30.4436C39.6432 30.5225 39.4739 30.6456 39.3353 30.7944L38.1117 30.2588C38.1264 30.0558 38.1019 29.8479 38.023 29.6462C37.7406 28.9241 36.9232 28.5664 36.2012 28.8488C35.4791 29.1312 35.1213 29.9486 35.4038 30.6707C35.4826 30.8723 35.6057 31.0416 35.7546 31.1802L34.4216 34.2258C34.2185 34.2111 34.0106 34.2355 33.809 34.3144C33.0869 34.5968 32.7291 35.4142 33.0115 36.1363C33.294 36.8583 34.1114 37.2161 34.8334 36.9337C35.5555 36.6513 35.9132 35.8339 35.6308 35.1118C35.5519 34.9101 35.4288 34.7408 35.28 34.6022L36.613 31.5567C36.8161 31.5714 37.0239 31.547 37.2256 31.4681C37.4273 31.3892 37.5966 31.2661 37.7352 31.1173L38.9589 31.6529C38.9442 31.8559 38.9686 32.0638 39.0475 32.2655C39.3299 32.9875 40.1473 33.3453 40.8694 33.0629C41.5914 32.7805 41.9492 31.963 41.6668 31.241C41.5879 31.0393 41.4648 30.87 41.316 30.7314L42.9421 27.0171C43.4586 27.1603 44.0121 27.1779 44.5577 27.0505L47.673 35.0153C46.4103 34.8201 45.0838 34.9378 43.8108 35.4357C41.7241 36.2519 40.2147 37.9083 39.5033 39.8651L38.743 37.9212L36.1237 38.9457L38.1726 44.1842L39.1732 43.7929C39.2306 44.0991 39.3121 44.404 39.4095 44.7071L27.1639 49.4967L21.0171 33.781ZM40.1864 31.3167C40.4269 31.2226 40.6994 31.3415 40.7937 31.5825C40.8879 31.8235 40.7684 32.0957 40.5279 32.1898C40.2874 32.2839 40.0149 32.165 39.9206 31.924C39.8263 31.683 39.9459 31.4108 40.1864 31.3167ZM36.2769 30.3292C36.1826 30.0882 36.3021 29.816 36.5427 29.7219C36.7832 29.6278 37.0557 29.7467 37.1499 29.9877C37.2442 30.2287 37.1247 30.5009 36.8841 30.595C36.6436 30.6891 36.3711 30.5701 36.2769 30.3292ZM34.7577 35.4533C34.852 35.6943 34.7325 35.9665 34.4919 36.0606C34.2514 36.1547 33.9789 36.0358 33.8846 35.7948C33.7904 35.5538 33.9099 35.2816 34.1504 35.1875C34.391 35.0934 34.6635 35.2123 34.7577 35.4533ZM47.9087 45.9128C45.9831 46.666 43.8035 45.712 43.0503 43.7864C42.2972 41.8608 43.2511 39.6812 45.1767 38.9281C47.1023 38.1749 49.2819 39.1289 50.0351 41.0545C50.7882 42.9801 49.8343 45.1597 47.9087 45.9128ZM39.1114 41.4368C39.0498 41.8958 39.0328 42.362 39.0583 42.8312L38.7042 42.9696L37.3383 39.4773L38.2114 39.1358L39.1114 41.4368ZM43.7244 36.5018L44.4074 38.248C42.2907 39.3296 41.2935 41.8683 42.1772 44.1279C42.427 44.7666 42.8053 45.3167 43.2669 45.7674L42.0946 47.2341C41.3853 46.5814 40.8052 45.7674 40.4311 44.8109C39.1706 41.5883 40.6463 37.9655 43.7244 36.5018ZM48.9331 48.5321C46.8316 49.3541 44.5574 49.0139 42.8235 47.8238L44.0006 46.3512C45.2242 47.14 46.7938 47.3555 48.2502 46.7859C49.7065 46.2163 50.7133 44.993 51.077 43.5834L52.9409 43.8666C52.4746 45.9173 51.0347 47.7101 48.9331 48.5321ZM53.0763 42.9388L51.2199 42.6567C51.2533 42.0125 51.158 41.3517 50.9082 40.713C50.0244 38.4534 47.5692 37.2645 45.2805 37.9065L44.5975 36.1603C47.8519 35.1472 51.3939 36.8074 52.6544 40.03C53.0285 40.9865 53.1546 41.9781 53.0763 42.9388Z" fill="#CDCC42"/>
<path d="M45.5182 39.8012C44.0737 40.3662 43.3584 42.0004 43.9234 43.445C44.4884 44.8895 46.1226 45.6048 47.5672 45.0398C49.0117 44.4748 49.727 42.8406 49.162 41.396C48.597 39.9515 46.9628 39.2362 45.5182 39.8012ZM47.2257 44.1667C46.2627 44.5433 45.1732 44.0665 44.7965 43.1035C44.4199 42.1405 44.8967 41.051 45.8597 40.6743C46.8227 40.2976 47.9122 40.7745 48.2889 41.7375C48.6656 42.7005 48.1887 43.79 47.2257 44.1667Z" fill="#CDCC42"/>
<path d="M22.2317 34.3127L23.1048 33.9713L23.4463 34.8443L22.5732 35.1858L22.2317 34.3127Z" fill="#CDCC42"/>
<path d="M23.9779 33.6296L30.0895 31.2392L30.431 32.1123L24.3194 34.5027L23.9779 33.6296Z" fill="#CDCC42"/>
<path d="M22.9147 36.0588L23.7878 35.7173L24.1293 36.5904L23.2562 36.9319L22.9147 36.0588Z" fill="#CDCC42"/>
<path d="M24.6609 35.3757L30.7725 32.9853L31.114 33.8584L25.0023 36.2488L24.6609 35.3757Z" fill="#CDCC42"/>
<path d="M23.5977 37.8049L24.4707 37.4634L24.8122 38.3365L23.9391 38.678L23.5977 37.8049Z" fill="#CDCC42"/>
<path d="M25.3438 37.1221L31.4555 34.7316L31.797 35.6047L25.6853 37.9952L25.3438 37.1221Z" fill="#CDCC42"/>
<path d="M24.2806 39.5513L25.1537 39.2098L25.4952 40.0829L24.6221 40.4244L24.2806 39.5513Z" fill="#CDCC42"/>
<path d="M26.0268 38.8682L32.1384 36.4777L32.4799 37.3508L26.3683 39.7413L26.0268 38.8682Z" fill="#CDCC42"/>
<path d="M27.6955 48.2822L30.3148 47.2577L28.6073 42.8923L25.9881 43.9167L27.6955 48.2822ZM27.2027 44.4484L28.0757 44.1069L29.1002 46.7261L28.2271 47.0676L27.2027 44.4484Z" fill="#CDCC42"/>
<path d="M31.1879 46.9162L33.8072 45.8917L32.4412 42.3994L29.8219 43.4238L31.1879 46.9162ZM31.0365 43.9554L31.9096 43.6139L32.5926 45.3601L31.7195 45.7016L31.0365 43.9554Z" fill="#CDCC42"/>
<path d="M34.6803 45.5502L37.2995 44.5257L34.5676 37.541L31.9483 38.5654L34.6803 45.5502ZM33.1629 39.097L34.036 38.7555L36.085 43.9941L35.2119 44.3356L33.1629 39.097Z" fill="#CDCC42"/>
</g>
<defs>
<clipPath id="clip0">
<rect width="30" height="30" fill="white" transform="translate(18 29.9277) rotate(-21.3618)"/>
</clipPath>
</defs>
</svg>
