<svg width="73" height="73" viewBox="0 0 73 73" fill="none" xmlns="http://www.w3.org/2000/svg">
<circle cx="36.5" cy="36.5" r="36" stroke="#9B9B9B"/>
<path d="M68 36.5C68 29.4007 65.6018 22.5095 61.1944 16.944C56.787 11.3785 50.6287 7.46503 43.7183 5.8382C36.8079 4.21137 29.5506 4.96659 23.1232 7.98139C16.6958 10.9962 11.4753 16.0938 8.3082 22.4475C5.14112 28.8012 4.2132 36.0385 5.67492 42.9857C7.13664 49.9329 10.9023 56.1827 16.3612 60.7215C21.8201 65.2602 28.6522 67.8219 35.7495 67.9911C42.8468 68.1602 49.7931 65.9269 55.4621 61.6533" stroke="#9B9B9B"/>
<g clip-path="url(#clip0)">
<path d="M30.1134 53.5213C30.6895 54.381 31.8577 54.6117 32.7174 54.0357L49.7452 42.6254C49.9439 42.4922 49.997 42.2232 49.8639 42.0245C49.7307 41.8258 49.4617 41.7726 49.263 41.9058L46.5141 43.7478L45.3824 42.059L52.5481 37.2573C52.8571 37.0502 53.0843 36.7665 53.2226 36.4483L53.9567 37.5439C54.2669 38.0068 54.1427 38.6358 53.6797 38.946L51.3523 40.5056C51.1536 40.6388 51.1005 40.9078 51.2336 41.1065C51.3668 41.3053 51.6358 41.3584 51.8345 41.2253L54.162 39.6656C55.0217 39.0895 55.2525 37.9214 54.6763 37.0617L42.9091 19.5012C42.3331 18.6415 41.1649 18.4107 40.3052 18.9869L23.5955 30.1839C23.3968 30.3171 23.3436 30.5862 23.4768 30.7849C23.61 30.9836 23.879 31.0367 24.0777 30.9036L40.7874 19.7065C41.2503 19.3963 41.8793 19.5205 42.1895 19.9834L50.729 32.7272C51.0392 33.1901 50.915 33.8191 50.4521 34.1293L29.0075 48.4993C28.5446 48.8094 27.9155 48.6852 27.6053 48.2223L19.0658 35.4786C18.7556 35.0157 18.8799 34.3866 19.3428 34.0764L21.9883 32.3037C22.187 32.1705 22.2401 31.9015 22.107 31.7028C21.9738 31.5041 21.7048 31.4509 21.5061 31.5841L18.8606 33.3568C18.0009 33.9329 17.7701 35.1011 18.3462 35.9608L30.1134 53.5213ZM37.375 43.9349L39.8522 42.275L42.5977 46.3722L40.1205 48.0321L37.375 43.9349ZM29.4897 49.2189L36.6554 44.4171L37.787 46.1059L30.6213 50.9077C30.1584 51.2179 29.5294 51.0936 29.2192 50.6307L28.485 49.5351C28.8319 49.5282 29.1807 49.4259 29.4897 49.2189ZM30.833 53.0391L30.0989 51.9435C30.4458 51.9366 30.7945 51.8343 31.1035 51.6273L38.2693 46.8256L39.4009 48.5144L32.2352 53.3161C31.7723 53.6262 31.1432 53.502 30.833 53.0391ZM43.3173 45.8899L40.5718 41.7928L43.049 40.1328L45.7945 44.23L43.3173 45.8899ZM52.0659 36.5377L44.9002 41.3394L43.7685 39.6506L50.9342 34.8489C51.2433 34.6418 51.4705 34.3581 51.6087 34.0399L52.3429 35.1355C52.6531 35.5985 52.5288 36.2275 52.0659 36.5377Z" fill="#CDCC42"/>
<path d="M26.1771 43.0754C25.9783 43.2086 25.9252 43.4776 26.0584 43.6763L27.1618 45.3231C27.3189 45.5574 27.598 45.6793 27.8732 45.6336C28.443 45.539 29.0224 45.6981 29.4627 46.0702C29.7054 46.2754 30.0597 46.2948 30.3243 46.1175L47.7486 34.4415C48.0132 34.2642 48.1299 33.9291 48.0325 33.6266C47.8557 33.0779 47.9288 32.4816 48.233 31.9905C48.3798 31.7535 48.3733 31.4489 48.2163 31.2146L42.6333 22.8829C42.4763 22.6487 42.1972 22.5267 41.9221 22.5723C41.3519 22.6666 40.7724 22.5074 40.3322 22.1353C40.0895 21.9302 39.7352 21.9107 39.4706 22.088L22.0462 33.7641C21.7816 33.9414 21.6649 34.2764 21.7623 34.5789C21.939 35.1276 21.866 35.7242 21.562 36.2156C21.4152 36.4526 21.4218 36.7572 21.5788 36.9915L24.6582 41.587C24.7914 41.7857 25.0604 41.8388 25.2591 41.7057C25.4578 41.5725 25.511 41.3035 25.3778 41.1048L22.3496 36.5856C22.7255 35.9279 22.8223 35.1508 22.6197 34.4226L39.8615 22.8689C40.4579 23.3332 41.2134 23.5391 41.9647 23.4416L47.4453 31.6204C47.0692 32.2779 46.9722 33.0548 47.175 33.7831L29.9332 45.3368C29.3367 44.8723 28.5812 44.6665 27.8302 44.7644L26.778 43.1941C26.6448 42.9953 26.3758 42.9422 26.1771 43.0754Z" fill="#CDCC42"/>
<path d="M39.2795 31.1664C37.6603 28.75 34.3772 28.1015 31.9609 29.7207C29.5447 31.3398 28.8961 34.6229 30.5153 37.0392C32.1345 39.4556 35.4176 40.1041 37.8338 38.485C40.2501 36.8658 40.8987 33.5827 39.2795 31.1664ZM31.2349 36.557C29.8816 34.5375 30.4237 31.7936 32.4432 30.4403C34.4627 29.087 37.2066 29.629 38.5599 31.6486C39.9132 33.6681 39.3712 36.4121 37.3516 37.7653C35.3322 39.1186 32.5882 38.5766 31.2349 36.557Z" fill="#CDCC42"/>
<path d="M36.8523 36.2828L36.4303 35.653C36.7857 35.2074 36.8076 34.6157 36.6103 34.1783C36.3422 33.5841 35.7295 33.2956 35.0857 33.4604C34.7484 33.5467 34.3696 33.6324 34.1172 33.6135C34.0593 33.6092 33.9916 33.5422 33.9524 33.4505C33.9316 33.4018 33.8725 33.2318 33.988 33.0913C34.2531 32.7688 34.741 32.7708 34.7574 32.771C34.9951 32.778 35.1943 32.5915 35.2027 32.3534C35.2112 32.1144 35.0243 31.9137 34.7852 31.9052C34.7618 31.9044 34.4088 31.895 34.0146 32.0481L33.6245 31.4659C33.4914 31.2672 33.2224 31.214 33.0237 31.3472C32.825 31.4804 32.7718 31.7494 32.905 31.9481L33.3101 32.5527C33.0349 32.8961 32.9755 33.3691 33.156 33.7912C33.3246 34.1856 33.6682 34.4485 34.0526 34.4773C34.4289 34.5055 34.8748 34.4085 35.3006 34.2996C35.6236 34.2169 35.7651 34.4113 35.8207 34.5345C35.9143 34.742 35.8925 35.0487 35.6232 35.2317C35.3379 35.4265 35.247 35.4679 34.9359 35.4713C34.6967 35.4739 34.505 35.67 34.5076 35.9092C34.5102 36.1484 34.7063 36.3401 34.9455 36.3375C35.2854 36.3338 35.5098 36.2833 35.736 36.1729L36.1328 36.7649C36.2659 36.9636 36.535 37.0168 36.7337 36.8836C36.9323 36.7505 36.9854 36.4815 36.8523 36.2828Z" fill="#CDCC42"/>
<path d="M43.0912 28.5611C42.6498 27.9024 41.7547 27.7256 41.096 28.167C40.4373 28.6084 40.2605 29.5035 40.7019 30.1622C41.1433 30.8209 42.0383 30.9977 42.6971 30.5563C43.3558 30.1149 43.5326 29.2199 43.0912 28.5611ZM41.4215 29.68C41.2459 29.4181 41.3163 29.0622 41.5782 28.8866C41.8401 28.7111 42.196 28.7814 42.3715 29.0434C42.547 29.3053 42.4768 29.6612 42.2148 29.8367C41.9529 30.0122 41.597 29.9419 41.4215 29.68Z" fill="#CDCC42"/>
<path d="M29.0457 37.973C28.6043 37.3142 27.7092 37.1374 27.0505 37.5789C26.3918 38.0203 26.215 38.9153 26.6564 39.5741C27.0978 40.2328 27.9928 40.4095 28.6515 39.9681C29.3103 39.5267 29.4871 38.6317 29.0457 37.973ZM27.376 39.0918C27.2005 38.8299 27.2708 38.474 27.5327 38.2985C27.7947 38.1229 28.1506 38.1933 28.3261 38.4552C28.5016 38.7171 28.4313 39.073 28.1693 39.2485C27.9074 39.424 27.5515 39.3538 27.376 39.0918Z" fill="#CDCC42"/>
</g>
<defs>
<clipPath id="clip0">
<rect width="29.5678" height="29.5678" fill="white" transform="translate(16 32.4595) rotate(-33.8259)"/>
</clipPath>
</defs>
</svg>
