<svg width="51" height="57" viewBox="0 0 51 57" fill="none" xmlns="http://www.w3.org/2000/svg">
<path d="M28.5552 1.00002C24.9324 1.00002 21.3452 1.71357 17.9982 3.09995C14.6512 4.48632 11.61 6.51836 9.04831 9.08005C6.48663 11.6417 4.4546 14.6829 3.06823 18.0299C1.68186 21.3769 0.968307 24.9642 0.968313 28.587C0.968319 32.2097 1.68188 35.797 3.06826 39.144C4.45464 42.491 6.48668 45.5322 9.04837 48.0938C11.6101 50.6555 14.6512 52.6875 17.9982 54.0739C21.3452 55.4603 24.9325 56.1738 28.5553 56.1738" stroke="#CDCC42"/>
<path d="M17.6298 29.1332H50.9526M17.6298 29.1332L26.6014 20.1196M17.6298 29.1332L26.6014 38.1467" stroke="#CDCC42"/>
</svg>
