<svg width="51" height="57" viewBox="0 0 51 57" fill="none" xmlns="http://www.w3.org/2000/svg">
<path d="M22.413 1.00003C26.0358 1.00003 29.6231 1.71359 32.9701 3.09996C36.3171 4.48634 39.3582 6.51838 41.9199 9.08006C44.4816 11.6417 46.5136 14.6829 47.9 18.0299C49.2864 21.3769 49.9999 24.9642 49.9999 28.587C49.9999 32.2097 49.2863 35.797 47.9 39.144C46.5136 42.491 44.4815 45.5322 41.9199 48.0939C39.3582 50.6555 36.317 52.6876 32.97 54.0739C29.623 55.4603 26.0357 56.1738 22.4129 56.1738" stroke="white"/>
<path d="M33.3384 29.1332H0.0156555M33.3384 29.1332L24.3669 20.1196M33.3384 29.1332L24.3669 38.1467" stroke="white"/>
</svg>
