<svg width="51" height="57" viewBox="0 0 51 57" fill="none" xmlns="http://www.w3.org/2000/svg">
<path d="M28.5869 1C24.9642 1 21.3769 1.71356 18.0299 3.09993C14.6829 4.48631 11.6417 6.51835 9.08005 9.08003C6.51837 11.6417 4.48634 14.6829 3.09997 18.0299C1.7136 21.3769 1.00005 24.9642 1.00005 28.5869C1.00006 32.2097 1.71362 35.797 3.1 39.144C4.48638 42.491 6.51842 45.5321 9.08011 48.0938C11.6418 50.6555 14.683 52.6875 18.03 54.0739C21.377 55.4603 24.9643 56.1738 28.587 56.1738" stroke="#CDCC42"/>
<path d="M17.6615 29.1332H50.9843M17.6615 29.1332L26.633 20.1196M17.6615 29.1332L26.633 38.1467" stroke="#14120B"/>
</svg>
