<svg width="51" height="58" viewBox="0 0 51 58" fill="none" xmlns="http://www.w3.org/2000/svg">
<path d="M22.4132 1C26.0359 1 29.6232 1.71356 32.9702 3.09993C36.3172 4.48631 39.3584 6.51835 41.9201 9.08003C44.4818 11.6417 46.5138 14.6829 47.9002 18.0299C49.2865 21.3769 50.0001 24.9642 50.0001 28.5869C50.0001 32.2097 49.2865 35.797 47.9001 39.144C46.5137 42.491 44.4817 45.5321 41.92 48.0938C39.3583 50.6555 36.3172 52.6875 32.9702 54.0739C29.6231 55.4603 26.0359 56.1738 22.4131 56.1738" stroke="#CDCC42" stroke-width="2"/>
<path d="M33.3387 29.1332H0.0158691M33.3387 29.1332L24.3671 20.1196M33.3387 29.1332L24.3671 38.1467" stroke="#14120B" stroke-width="2"/>
</svg>
