<svg width="51" height="57" viewBox="0 0 51 57" fill="none" xmlns="http://www.w3.org/2000/svg">
<path d="M22.4132 1C26.036 1 29.6233 1.71356 32.9703 3.09993C36.3173 4.48631 39.3585 6.51835 41.9201 9.08003C44.4818 11.6417 46.5138 14.6829 47.9002 18.0299C49.2866 21.3769 50.0001 24.9642 50.0001 28.5869C50.0001 32.2097 49.2866 35.797 47.9002 39.144C46.5138 42.491 44.4818 45.5321 41.9201 48.0938C39.3584 50.6555 36.3172 52.6875 32.9702 54.0739C29.6232 55.4603 26.0359 56.1738 22.4131 56.1738" stroke="#CDCC42"/>
<path d="M33.3386 29.1332H0.0158081M33.3386 29.1332L24.3671 20.1196M33.3386 29.1332L24.3671 38.1467" stroke="#14120B"/>
</svg>
