<svg width="52" height="59" viewBox="0 0 52 59" fill="none" xmlns="http://www.w3.org/2000/svg">
<path d="M29.571 2.00002C25.9482 2.00002 22.3609 2.71357 19.0139 4.09995C15.6669 5.48632 12.6257 7.51836 10.0641 10.08C7.50238 12.6417 5.47034 15.6829 4.08398 19.0299C2.69761 22.3769 1.98405 25.9642 1.98406 29.587C1.98407 33.2097 2.69763 36.797 4.08401 40.144C5.47039 43.491 7.50243 46.5322 10.0641 49.0938C12.6258 51.6555 15.667 53.6875 19.014 55.0739C22.361 56.4603 25.9483 57.1738 29.571 57.1738" stroke="white" stroke-width="3"/>
<path d="M18.6456 30.1332H51.9684M18.6456 30.1332L27.6171 21.1196M18.6456 30.1332L27.6171 39.1467" stroke="white" stroke-width="3"/>
</svg>
