<svg width="52" height="57" viewBox="0 0 52 57" fill="none" xmlns="http://www.w3.org/2000/svg">
<path d="M23.3658 1.00002C26.9886 1.00002 30.5759 1.71357 33.9229 3.09995C37.2699 4.48632 40.311 6.51836 42.8727 9.08005C45.4344 11.6417 47.4664 14.6829 48.8528 18.0299C50.2392 21.3769 50.9527 24.9642 50.9527 28.587C50.9527 32.2097 50.2391 35.797 48.8528 39.144C47.4664 42.491 45.4343 45.5322 42.8726 48.0938C40.311 50.6555 37.2698 52.6875 33.9228 54.0739C30.5758 55.4603 26.9885 56.1738 23.3657 56.1738" stroke="#CDCC42"/>
<path d="M34.2912 29.1332H0.968384M34.2912 29.1332L25.3197 20.1196M34.2912 29.1332L25.3197 38.1467" stroke="#CDCC42"/>
</svg>
