<svg width="51" height="58" viewBox="0 0 51 58" fill="none" xmlns="http://www.w3.org/2000/svg">
<path d="M28.5868 1C24.9641 1 21.3768 1.71356 18.0298 3.09993C14.6828 4.48631 11.6416 6.51835 9.07993 9.08003C6.51825 11.6417 4.48621 14.6829 3.09985 18.0299C1.71348 21.3769 0.999923 24.9642 0.999929 28.5869C0.999935 32.2097 1.7135 35.797 3.09988 39.144C4.48626 42.491 6.5183 45.5321 9.07999 48.0938C11.6417 50.6555 14.6828 52.6875 18.0298 54.0739C21.3769 55.4603 24.9641 56.1738 28.5869 56.1738" stroke="#CDCC42" stroke-width="2"/>
<path d="M17.6613 29.1332H50.9841M17.6613 29.1332L26.6329 20.1196M17.6613 29.1332L26.6329 38.1467" stroke="#14120B" stroke-width="2"/>
</svg>
