<svg width="53" height="59" viewBox="0 0 53 59" fill="none" xmlns="http://www.w3.org/2000/svg">
<path d="M23.3817 2.00002C27.0044 2.00002 30.5917 2.71357 33.9387 4.09995C37.2857 5.48632 40.3269 7.51836 42.8886 10.08C45.4503 12.6417 47.4823 15.6829 48.8687 19.0299C50.255 22.3769 50.9686 25.9642 50.9686 29.587C50.9686 33.2097 50.255 36.797 48.8686 40.144C47.4822 43.491 45.4502 46.5322 42.8885 49.0938C40.3268 51.6555 37.2857 53.6875 33.9387 55.0739C30.5917 56.4603 27.0044 57.1738 23.3816 57.1738" stroke="white" stroke-width="3"/>
<path d="M34.307 30.1332H0.984253M34.307 30.1332L25.3355 21.1196M34.307 30.1332L25.3355 39.1467" stroke="white" stroke-width="3"/>
</svg>
