<svg width="72" height="72" viewBox="0 0 72 72" fill="none" xmlns="http://www.w3.org/2000/svg">
<rect x="1.41162" y="0.960693" width="70.5882" height="70.5882" fill="white"/>
<path d="M4.51486 43.4892C3.73382 44.2703 3.73382 45.5366 4.51486 46.3177C5.29591 47.0987 6.56224 47.0987 7.34329 46.3177L4.51486 43.4892ZM46.126 28.4986C46.9071 27.7175 46.9071 26.4512 46.126 25.6701C45.345 24.8891 44.0786 24.8891 43.2976 25.6701L46.126 28.4986ZM7.34329 46.3177L18.9274 34.7336L16.0989 31.9051L4.51486 43.4892L7.34329 46.3177ZM21.7558 34.7336L26.5808 39.5585L29.4092 36.7301L24.5842 31.9052L21.7558 34.7336ZM35.066 39.5585L46.126 28.4986L43.2976 25.6701L32.2376 36.7301L35.066 39.5585ZM26.5808 39.5585C28.9239 41.9017 32.7229 41.9017 35.066 39.5585L32.2376 36.7301C31.4566 37.5112 30.1902 37.5112 29.4092 36.7301L26.5808 39.5585ZM18.9274 34.7336C19.7084 33.9525 20.9747 33.9525 21.7558 34.7336L24.5842 31.9052C22.2411 29.562 18.4421 29.562 16.0989 31.9051L18.9274 34.7336Z" fill="#CDCC42"/>
<path d="M48.7775 31.1498L40.6464 23.0187C39.8258 22.1982 40.407 20.7952 41.5674 20.7952L48.001 20.7952C49.6579 20.7952 51.001 22.1383 51.001 23.7952V30.2288C51.001 31.3892 49.598 31.9704 48.7775 31.1498Z" fill="#CDCC42"/>
<path d="M5.9292 15.5017V55.0076C5.9292 56.1122 6.82463 57.0076 7.9292 57.0076H53.3645" stroke="#959439" stroke-width="4" stroke-linecap="round" stroke-linejoin="round"/>
</svg>
