<svg width="75" height="72" viewBox="0 0 75 72" fill="none" xmlns="http://www.w3.org/2000/svg">
<rect x="3.55469" y="0.960693" width="70.5882" height="70.5882" fill="white"/>
<path d="M23.0591 24.7766C21.866 24.9723 20.7636 25.5348 19.9028 26.3871C19.042 27.2394 18.465 28.3398 18.2507 29.5377C18.0364 30.7356 18.1953 31.9724 18.7056 33.0788C19.216 34.1851 20.0528 35.107 21.1016 35.7181C22.1503 36.3292 23.3598 36.5997 24.5643 36.4926C25.7688 36.3855 26.9095 35.9059 27.8302 35.1196C28.7508 34.3334 29.4065 33.2788 29.7075 32.1002C30.0084 30.9217 29.9398 29.6769 29.5111 28.5362C29.0284 27.2581 28.1223 26.1855 26.9465 25.5003C25.7706 24.8151 24.3972 24.5595 23.0591 24.7766ZM38.2195 26.8042C38.3822 27.4258 38.503 28.0576 38.5811 28.6952L43.4298 30.7866C43.6431 30.8855 43.8149 31.0571 43.9148 31.2711C44.0146 31.485 44.0361 31.7274 43.9753 31.9551L41.9591 39.571C41.8965 39.7972 41.7565 39.9935 41.5638 40.1254C41.3712 40.2574 41.1382 40.3164 40.9059 40.2921L36.5 39.7439C36.2573 39.7146 36.0115 39.7465 35.7845 39.8365C35.5574 39.9265 35.3564 40.072 35.1993 40.2597C34.7057 40.8432 34.1686 41.3879 33.5928 41.8892C33.4118 42.0471 33.2724 42.2476 33.1869 42.4729C33.1013 42.6983 33.0723 42.9416 33.1024 43.1814L33.6515 47.6133C33.6729 47.8495 33.6121 48.0854 33.4797 48.2808C33.3473 48.4762 33.1514 48.619 32.9255 48.6847L25.3552 50.7131C25.1307 50.7691 24.8937 50.7463 24.6832 50.6486C24.4727 50.5508 24.3012 50.3839 24.1971 50.1753L22.4593 46.0686C22.3632 45.8438 22.2136 45.6461 22.0237 45.4931C21.8338 45.3402 21.6094 45.2367 21.3707 45.1919C20.6226 45.0472 19.887 44.8424 19.171 44.5794C18.9419 44.4958 18.696 44.4708 18.4554 44.5068C18.2148 44.5427 17.9871 44.6383 17.7928 44.7851L14.252 47.4617C14.0631 47.5989 13.8319 47.6644 13.5992 47.6467C13.3664 47.629 13.147 47.5291 12.9796 47.3647L7.42553 41.7773C7.25888 41.6106 7.15617 41.3899 7.13568 41.1546C7.1152 40.9194 7.17827 40.6847 7.31367 40.4925L9.97816 36.9101C10.1237 36.7122 10.2177 36.4807 10.2517 36.2365C10.2856 35.9923 10.2584 35.7431 10.1726 35.5117C10.0411 35.1482 9.92214 34.7823 9.82246 34.4103C9.72278 34.0383 9.64336 33.6676 9.57858 33.2948C9.53517 33.0536 9.43288 32.8267 9.28093 32.6348C9.12898 32.4428 8.93215 32.2917 8.70815 32.1952L4.61119 30.4244C4.40046 30.3242 4.23119 30.1526 4.13306 29.9397C4.03492 29.7269 4.01416 29.4863 4.07443 29.2602L6.0907 21.6443C6.1533 21.4182 6.29327 21.2218 6.48594 21.0899C6.67861 20.958 6.91161 20.899 7.14388 20.9233L11.5498 21.4715C11.7924 21.5007 12.0383 21.4689 12.2653 21.3788C12.4923 21.2888 12.6934 21.1434 12.8505 20.9556C13.3441 20.3721 13.8812 19.8274 14.457 19.3261C14.638 19.1682 14.7774 18.9678 14.8629 18.7424C14.9484 18.517 14.9775 18.2737 14.9474 18.0339L14.3982 13.602C14.3769 13.3659 14.4376 13.13 14.5701 12.9346C14.7025 12.7392 14.8984 12.5964 15.1242 12.5307L22.6946 10.5022C22.9191 10.4462 23.1561 10.469 23.3666 10.5668C23.5771 10.6645 23.7485 10.8314 23.8527 11.04L25.5905 15.1467C25.6865 15.3716 25.8362 15.5693 26.0261 15.7222C26.216 15.8752 26.4403 15.9787 26.6791 16.0235C27.4272 16.1682 28.1628 16.373 28.8788 16.636C29.1079 16.7196 29.3538 16.7445 29.5944 16.7086C29.835 16.6727 30.0627 16.577 30.2569 16.4302L33.7978 13.7536C33.9867 13.6164 34.2179 13.5509 34.4506 13.5686C34.6834 13.5864 34.9028 13.6863 35.0702 13.8506L40.6243 19.438C40.7909 19.6048 40.8936 19.8254 40.9141 20.0607C40.9346 20.296 40.8715 20.5306 40.7361 20.7228L38.0716 24.3052C37.9251 24.5029 37.8302 24.7344 37.7955 24.9789C37.7608 25.2233 37.7873 25.4729 37.8728 25.7048C38.0009 26.0663 38.1198 26.4322 38.2195 26.8042Z" fill="#CDCC42" stroke="#CDCC42" stroke-width="1.5" stroke-linecap="round" stroke-linejoin="round"/>
<path d="M49.0298 48.8431C48.406 48.7832 47.7783 48.9122 47.2328 49.2124C46.6873 49.5126 46.2507 49.9694 45.9826 50.5202C45.7145 51.071 45.6281 51.6889 45.7352 52.2893C45.8423 52.8897 46.1377 53.4432 46.581 53.874C47.0243 54.3049 47.5937 54.5921 48.2114 54.6962C48.829 54.8003 49.4647 54.7164 50.0313 54.4558C50.598 54.1952 51.0679 53.7707 51.3768 53.2404C51.6857 52.7102 51.8184 52.1001 51.7568 51.4937C51.6865 50.814 51.3767 50.1787 50.8797 49.6956C50.3827 49.2125 49.7291 48.9113 49.0298 48.8431ZM56.3508 51.7842C56.3489 52.1055 56.3246 52.4262 56.2781 52.7443L58.426 54.3818C58.5195 54.4571 58.5825 54.5623 58.6038 54.6785C58.6251 54.7948 58.6033 54.9146 58.5424 55.0168L56.5104 58.434C56.4487 58.5352 56.3523 58.6119 56.2381 58.6506C56.1239 58.6894 55.9992 58.6878 55.8862 58.646L53.7531 57.8111C53.6354 57.7655 53.508 57.7491 53.3822 57.7632C53.2565 57.7773 53.1362 57.8215 53.0324 57.8919C52.7068 58.1098 52.3647 58.3034 52.009 58.471C51.8972 58.5238 51.8005 58.6026 51.7274 58.7003C51.6543 58.7981 51.6072 58.9119 51.59 59.0316L51.2703 61.2431C51.2493 61.3599 51.1872 61.466 51.0947 61.5432C51.0021 61.6205 50.8849 61.6641 50.7629 61.6666H46.6991C46.5791 61.6645 46.4635 61.6229 46.3712 61.5484C46.2788 61.474 46.2154 61.3712 46.1912 61.257L45.872 59.0487C45.854 58.9276 45.8056 58.8128 45.731 58.7144C45.6564 58.6159 45.558 58.5369 45.4444 58.4844C45.0891 58.3177 44.7482 58.1236 44.4249 57.9039C44.3213 57.8339 44.2015 57.79 44.0762 57.7762C43.9509 57.7624 43.824 57.7792 43.707 57.8249L41.5744 58.6594C41.4614 58.7012 41.3368 58.7029 41.2226 58.6642C41.1084 58.6255 41.0119 58.5489 40.9501 58.4479L38.9182 55.0306C38.8571 54.9285 38.8353 54.8087 38.8566 54.6924C38.8779 54.5761 38.941 54.4709 39.0346 54.3956L40.8499 53.0103C40.9493 52.9335 41.0275 52.8339 41.0773 52.7203C41.127 52.6068 41.1469 52.4829 41.1349 52.3601C41.1178 52.1675 41.1074 51.9754 41.1074 51.7828C41.1074 51.5903 41.1173 51.4009 41.1349 51.2125C41.1456 51.0904 41.1248 50.9676 41.0744 50.8552C41.0241 50.7428 40.9458 50.6444 40.8465 50.5688L39.0322 49.1834C38.9401 49.1077 38.8784 49.0029 38.8578 48.8874C38.8372 48.7719 38.8591 48.6531 38.9196 48.5517L40.9515 45.1344C41.0132 45.0333 41.1097 44.9565 41.2239 44.9178C41.3381 44.879 41.4627 44.8806 41.5758 44.9224L43.7089 45.7574C43.8265 45.8029 43.954 45.8193 44.0797 45.8052C44.2055 45.7911 44.3257 45.7469 44.4296 45.6765C44.7552 45.4586 45.0972 45.2651 45.4529 45.0975C45.5648 45.0446 45.6615 44.9658 45.7346 44.8681C45.8076 44.7703 45.8548 44.6565 45.872 44.5368L46.1917 42.3253C46.2127 42.2085 46.2748 42.1024 46.3673 42.0252C46.4598 41.948 46.5771 41.9044 46.6991 41.9019H50.7629C50.8828 41.9039 50.9985 41.9455 51.0908 42.02C51.1831 42.0945 51.2466 42.1973 51.2708 42.3115L51.59 44.5198C51.6079 44.6408 51.6564 44.7556 51.731 44.8541C51.8055 44.9525 51.904 45.0315 52.0176 45.0841C52.3729 45.2508 52.7138 45.4449 53.0371 45.6645C53.1406 45.7346 53.2605 45.7784 53.3858 45.7922C53.5111 45.806 53.638 45.7893 53.755 45.7435L55.8876 44.909C56.0006 44.8672 56.1252 44.8655 56.2394 44.9042C56.3536 44.9429 56.4501 45.0195 56.5119 45.1205L58.5438 48.5378C58.6049 48.6399 58.6267 48.7598 58.6054 48.876C58.5841 48.9923 58.521 49.0975 58.4274 49.1728L56.6121 50.5582C56.5122 50.6346 56.4336 50.7342 56.3834 50.8478C56.3332 50.9613 56.313 51.0853 56.3247 51.2084C56.3404 51.3995 56.3508 51.5916 56.3508 51.7842Z" fill="#959439"/>
<path d="M56.0884 16.3726C55.4646 16.3127 54.8369 16.4417 54.2914 16.7419C53.7459 17.0422 53.3093 17.499 53.0412 18.0498C52.7731 18.6006 52.6867 19.2185 52.7938 19.8188C52.9009 20.4192 53.1963 20.9727 53.6396 21.4036C54.0829 21.8345 54.6523 22.1216 55.27 22.2257C55.8876 22.3299 56.5233 22.2459 57.0899 21.9853C57.6566 21.7247 58.1265 21.3002 58.4354 20.77C58.7443 20.2397 58.877 19.6297 58.8154 19.0233C58.7451 18.3435 58.4353 17.7083 57.9383 17.2252C57.4413 16.7421 56.7877 16.4409 56.0884 16.3726ZM63.4094 19.3137C63.4075 19.635 63.3832 19.9558 63.3367 20.2738L65.4846 21.9113C65.5781 21.9867 65.6411 22.0918 65.6624 22.2081C65.6837 22.3243 65.6619 22.4442 65.6009 22.5463L63.569 25.9636C63.5073 26.0647 63.4109 26.1414 63.2967 26.1802C63.1825 26.219 63.0578 26.2173 62.9448 26.1755L60.8117 25.3406C60.694 25.2951 60.5666 25.2786 60.4408 25.2927C60.3151 25.3068 60.1948 25.351 60.091 25.4214C59.7654 25.6393 59.4233 25.8329 59.0676 26.0005C58.9558 26.0533 58.8591 26.1321 58.786 26.2299C58.7129 26.3277 58.6657 26.4414 58.6486 26.5611L58.3289 28.7726C58.3079 28.8894 58.2458 28.9955 58.1533 29.0728C58.0607 29.15 57.9434 29.1936 57.8215 29.1961H53.7577C53.6377 29.1941 53.5221 29.1524 53.4298 29.078C53.3374 29.0035 53.274 28.9007 53.2498 28.7865L52.9305 26.5782C52.9126 26.4572 52.8642 26.3423 52.7896 26.2439C52.715 26.1454 52.6166 26.0664 52.503 26.0139C52.1477 25.8472 51.8068 25.6531 51.4834 25.4334C51.3799 25.3634 51.2601 25.3195 51.1348 25.3057C51.0095 25.292 50.8826 25.3087 50.7656 25.3545L48.633 26.1889C48.5199 26.2307 48.3954 26.2325 48.2812 26.1938C48.167 26.1551 48.0705 26.0785 48.0087 25.9774L45.9768 22.5601C45.9157 22.4581 45.8939 22.3382 45.9152 22.2219C45.9365 22.1056 45.9996 22.0005 46.0932 21.9252L47.9085 20.5398C48.0079 20.4631 48.0861 20.3634 48.1359 20.2499C48.1856 20.1363 48.2055 20.0125 48.1935 19.8896C48.1764 19.697 48.166 19.5049 48.166 19.3124C48.166 19.1198 48.1759 18.9305 48.1935 18.7421C48.2041 18.6199 48.1834 18.4971 48.133 18.3848C48.0827 18.2724 48.0044 18.1739 47.9051 18.0983L46.0908 16.7129C45.9987 16.6372 45.937 16.5325 45.9164 16.417C45.8958 16.3015 45.9177 16.1826 45.9782 16.0812L48.0101 12.6639C48.0718 12.5628 48.1683 12.4861 48.2825 12.4473C48.3967 12.4085 48.5213 12.4102 48.6344 12.452L50.7675 13.2869C50.8851 13.3324 51.0125 13.3489 51.1383 13.3348C51.2641 13.3207 51.3843 13.2765 51.4882 13.2061C51.8137 12.9882 52.1558 12.7946 52.5115 12.627C52.6233 12.5742 52.7201 12.4954 52.7931 12.3976C52.8662 12.2998 52.9134 12.1861 52.9305 12.0664L53.2503 9.85486C53.2713 9.73806 53.3334 9.63198 53.4259 9.55474C53.5184 9.47751 53.6357 9.43391 53.7577 9.4314H57.8215C57.9414 9.43341 58.0571 9.47508 58.1494 9.54954C58.2417 9.62399 58.3052 9.7268 58.3294 9.84101L58.6486 12.0493C58.6665 12.1703 58.715 12.2852 58.7895 12.3836C58.8641 12.4821 58.9626 12.5611 59.0762 12.6136C59.4314 12.7803 59.7724 12.9744 60.0957 13.1941C60.1992 13.2641 60.3191 13.308 60.4444 13.3218C60.5697 13.3355 60.6966 13.3188 60.8136 13.273L62.9462 12.4386C63.0592 12.3968 63.1838 12.395 63.298 12.4337C63.4122 12.4724 63.5087 12.549 63.5704 12.6501L65.6024 16.0674C65.6635 16.1694 65.6853 16.2893 65.664 16.4056C65.6427 16.5219 65.5796 16.627 65.486 16.7023L63.6707 18.0877C63.5708 18.1642 63.4922 18.2637 63.442 18.3773C63.3918 18.4909 63.3716 18.6148 63.3833 18.7379C63.3989 18.9291 63.4094 19.1212 63.4094 19.3137Z" fill="#959439"/>
</svg>
