<svg width="75" height="72" viewBox="0 0 75 72" fill="none" xmlns="http://www.w3.org/2000/svg">
<rect x="4.0542" y="0.960693" width="70.5882" height="70.5882" fill="white"/>
<path fill-rule="evenodd" clip-rule="evenodd" d="M6.56009 6.6077L50.9601 6.6077L50.9601 65.9018H6.56009L6.56009 6.6077Z" fill="#CDCC42"/>
<path d="M50.9601 6.6077H52.9601C52.9601 5.50313 52.0647 4.6077 50.9601 4.6077V6.6077ZM6.56009 6.6077V4.6077C5.45552 4.6077 4.56009 5.50313 4.56009 6.6077L6.56009 6.6077ZM50.9601 65.9018V67.9018C52.0647 67.9018 52.9601 67.0064 52.9601 65.9018H50.9601ZM6.56009 65.9018H4.56009C4.56009 67.0064 5.45552 67.9018 6.56009 67.9018L6.56009 65.9018ZM2.64258 63.9018C1.53801 63.9018 0.642578 64.7973 0.642578 65.9018C0.642578 67.0064 1.53801 67.9018 2.64258 67.9018L2.64258 63.9018ZM54.8779 67.9018C55.9824 67.9018 56.8779 67.0064 56.8779 65.9018C56.8779 64.7973 55.9824 63.9018 54.8779 63.9018V67.9018ZM2.64258 4.60767C1.53801 4.60767 0.642578 5.5031 0.642578 6.60767C0.642578 7.71224 1.53801 8.60767 2.64258 8.60767L2.64258 4.60767ZM54.8779 8.60767C55.9824 8.60767 56.8779 7.71224 56.8779 6.60767C56.8779 5.5031 55.9824 4.60767 54.8779 4.60767V8.60767ZM50.9601 4.6077L6.56009 4.6077V8.6077L50.9601 8.6077V4.6077ZM52.9601 65.9018L52.9601 6.6077L48.9601 6.6077L48.9601 65.9018H52.9601ZM6.56009 67.9018H50.9601V63.9018L6.56009 63.9018L6.56009 67.9018ZM4.56009 6.6077L4.56009 65.9018H8.56009L8.56009 6.6077L4.56009 6.6077ZM2.64258 67.9018H54.8779V63.9018L2.64258 63.9018L2.64258 67.9018ZM2.64258 8.60767L54.8779 8.60767V4.60767L2.64258 4.60767L2.64258 8.60767Z" fill="#CDCC42"/>
<path d="M22.4072 55.196C22.4072 54.0915 23.3027 53.196 24.4072 53.196H33.1137C34.2182 53.196 35.1137 54.0915 35.1137 55.196V65.9019H22.4072L22.4072 55.196Z" fill="#959439" stroke="#959439" stroke-width="4" stroke-linecap="round"/>
<path d="M16.7603 16.49H19.5838" stroke="#959439" stroke-width="4" stroke-linecap="round" stroke-linejoin="round"/>
<path d="M28.0542 16.49H30.8777" stroke="#959439" stroke-width="4" stroke-linecap="round" stroke-linejoin="round"/>
<path d="M39.3486 16.49H42.1722" stroke="#959439" stroke-width="4" stroke-linecap="round" stroke-linejoin="round"/>
<path d="M16.7603 27.7839H19.5838" stroke="#959439" stroke-width="4" stroke-linecap="round" stroke-linejoin="round"/>
<path d="M28.0542 27.7839H30.8777" stroke="#959439" stroke-width="4" stroke-linecap="round" stroke-linejoin="round"/>
<path d="M39.3486 27.7839H42.1722" stroke="#959439" stroke-width="4" stroke-linecap="round" stroke-linejoin="round"/>
<path d="M16.7603 39.0781H19.5838" stroke="#959439" stroke-width="4" stroke-linecap="round" stroke-linejoin="round"/>
<path d="M28.0542 39.0781H30.8777" stroke="#959439" stroke-width="4" stroke-linecap="round" stroke-linejoin="round"/>
<path d="M39.3486 39.0781H42.1722" stroke="#959439" stroke-width="4" stroke-linecap="round" stroke-linejoin="round"/>
</svg>
