<svg width="74" height="72" viewBox="0 0 74 72" fill="none" xmlns="http://www.w3.org/2000/svg">
<rect x="2.91162" y="0.960693" width="70.5882" height="70.5882" fill="white"/>
<path fill-rule="evenodd" clip-rule="evenodd" d="M46.3424 31.2128H7.48047L11.1693 21.4517C12.3455 18.3393 15.3254 16.2798 18.6527 16.2798H35.1702C38.4975 16.2798 41.4774 18.3393 42.6537 21.4517L46.3424 31.2128Z" fill="#959439"/>
<path fill-rule="evenodd" clip-rule="evenodd" d="M4.43213 49.22V54.7972C4.43213 55.9017 5.32756 56.7972 6.43213 56.7972H12.2059C13.3105 56.7972 14.2059 55.9017 14.2059 54.7972V49.3641H5.50003C5.13019 49.3641 4.77208 49.3139 4.43213 49.22ZM39.6177 49.3641V54.7972C39.6177 55.9018 40.5131 56.7972 41.6177 56.7972H47.3914C48.496 56.7972 49.3914 55.9018 49.3914 54.7972V49.22C49.0515 49.3139 48.6934 49.3641 48.3236 49.3641H39.6177Z" fill="#959439"/>
<path d="M1.5 39.2129C1.5 34.7946 5.08172 31.2129 9.5 31.2129H44.3235C48.7418 31.2129 52.3235 34.7946 52.3235 39.2129V45.3641C52.3235 47.5733 50.5327 49.3642 48.3235 49.3642H5.5C3.29086 49.3642 1.5 47.5733 1.5 45.3642V39.2129Z" fill="#CDCC42" stroke="#CDCC42" stroke-width="3" stroke-linecap="round" stroke-linejoin="round"/>
<rect x="8.3418" y="37.6375" width="5.86425" height="6.05042" rx="2.93213" fill="#FAFAFA"/>
<rect width="5.86425" height="6.05042" rx="2.93213" transform="matrix(-1 0 0 1 45.4819 37.6375)" fill="#FAFAFA"/>
</svg>
