<svg width="25" height="14" viewBox="0 0 25 14" fill="none" xmlns="http://www.w3.org/2000/svg">
<path d="M1.71875 13H23.2812M1.71875 13C1.3218 13 1 12.7015 1 12.3333M1.71875 13H4.57401C4.58705 12.8906 4.59375 12.7793 4.59375 12.6667C4.59375 11.0098 3.14567 9.66667 1.35938 9.66667C1.2379 9.66667 1.11799 9.67288 1 9.68498V12.3333M1 12.3333V1.66667M23.2812 13C23.6782 13 24 12.7015 24 12.3333M23.2812 13H20.426C20.4129 12.8906 20.4062 12.7793 20.4062 12.6667C20.4062 11.0098 21.8543 9.66667 23.6406 9.66667C23.7621 9.66667 23.882 9.67288 24 9.68498V12.3333M24 12.3333V1.66667M23.2812 1H1.71875M23.2812 1C23.6782 1 24 1.29848 24 1.66667M23.2812 1H20.426C20.4129 1.10944 20.4062 1.22066 20.4062 1.33333C20.4062 2.99019 21.8543 4.33333 23.6406 4.33333C23.7621 4.33333 23.882 4.32712 24 4.31502V1.66667M1.71875 1C1.3218 1 1 1.29848 1 1.66667M1.71875 1H4.57401C4.58705 1.10944 4.59375 1.22066 4.59375 1.33333C4.59375 2.99019 3.14567 4.33333 1.35938 4.33333C1.2379 4.33333 1.11799 4.32712 1 4.31502V1.66667M9.78142 6.27872V7.72128C9.78142 8.52758 10.185 9.28818 10.8738 9.78001C11.881 10.4991 13.2839 10.4991 14.2911 9.78001C14.9799 9.28818 15.3835 8.52758 15.3835 7.72128V6.27872C15.3835 5.47242 14.9799 4.71182 14.2911 4.21999C13.2839 3.50086 11.881 3.50086 10.8738 4.21999C10.185 4.71182 9.78142 5.47242 9.78142 6.27872ZM4.73819 6.75957V7.24043C4.73819 7.50919 4.87272 7.76273 5.10233 7.92667C5.43805 8.16638 5.9057 8.16638 6.24142 7.92667C6.47103 7.76273 6.60556 7.50919 6.60556 7.24043V6.75957C6.60556 6.49081 6.47103 6.23727 6.24142 6.07333C5.9057 5.83362 5.43805 5.83362 5.10233 6.07333C4.87272 6.23727 4.73819 6.49081 4.73819 6.75957ZM18.3944 6.75957V7.24043C18.3944 7.50919 18.529 7.76273 18.7586 7.92667C19.0943 8.16638 19.5619 8.16638 19.8977 7.92667C20.1273 7.76273 20.2618 7.50919 20.2618 7.24043V6.75957C20.2618 6.49081 20.1273 6.23727 19.8977 6.07333C19.5619 5.83362 19.0943 5.83362 18.7586 6.07333C18.529 6.23727 18.3944 6.49081 18.3944 6.75957Z" stroke="#CDCC42" stroke-linecap="round" stroke-linejoin="round"/>
</svg>
