<svg width="73" height="72" viewBox="0 0 73 72" fill="none" xmlns="http://www.w3.org/2000/svg">
<rect x="1.91162" y="0.960693" width="70.5882" height="70.5882" fill="white"/>
<path fill-rule="evenodd" clip-rule="evenodd" d="M30.4561 7.71311C29.7127 7.00692 28.7267 6.61312 27.7014 6.61302L4.50043 6.6106C2.29113 6.61037 0.500005 8.40129 0.500005 10.6106L0.5 61.9048C0.5 64.114 2.29086 65.9048 4.5 65.9048H44.5C46.7091 65.9048 48.5 64.114 48.5 61.9048L48.5 26.5731C48.5 25.4767 48.05 24.4284 47.2551 23.6732L46.8104 23.2507C47.3638 23.8542 46.9415 24.8529 46.1 24.8529L33.3 24.8529C31.0909 24.8529 29.3 23.062 29.3 20.8529L29.3 8.88892C29.3 8.06165 30.2526 7.62119 30.8801 8.11598L30.4561 7.71311Z" fill="#CDCC42"/>
<path d="M46.76 23.199L30.953 8.17862C30.3295 7.58615 29.2998 8.02812 29.2998 8.88822L29.2998 20.8522C29.2998 23.0613 31.0907 24.8522 33.2998 24.8522L46.0998 24.8522C46.9655 24.8522 47.3876 23.7953 46.76 23.199Z" fill="#959439"/>
</svg>
