<svg width="20" height="17" viewBox="0 0 20 17" fill="none" xmlns="http://www.w3.org/2000/svg">
<path d="M19.4524 2.61415C18.7566 2.92248 18.0091 3.13082 17.2233 3.22498C18.0341 2.73981 18.6407 1.9762 18.9299 1.07665C18.1681 1.52914 17.3344 1.84765 16.4649 2.01832C15.8802 1.39404 15.1058 0.980255 14.2619 0.841211C13.4179 0.702168 12.5517 0.845642 11.7976 1.24936C11.0436 1.65308 10.4439 2.29445 10.0917 3.0739C9.73954 3.85335 9.65454 4.72727 9.84993 5.55998C8.30633 5.48248 6.79629 5.08127 5.41778 4.3824C4.03928 3.68353 2.82313 2.70262 1.84826 1.50332C1.51493 2.07832 1.32326 2.74498 1.32326 3.45498C1.32289 4.09415 1.48029 4.72352 1.78149 5.28726C2.0827 5.851 2.5184 6.33168 3.04993 6.68665C2.43349 6.66703 1.83066 6.50047 1.2916 6.20082V6.25082C1.29153 7.14727 1.60162 8.01613 2.16925 8.70998C2.73687 9.40383 3.52707 9.87992 4.40576 10.0575C3.83392 10.2122 3.23438 10.235 2.65243 10.1241C2.90034 10.8955 3.38326 11.57 4.03357 12.0533C4.68388 12.5365 5.46903 12.8043 6.2791 12.8191C4.90396 13.8987 3.20567 14.4842 1.45743 14.4816C1.14775 14.4817 0.838325 14.4636 0.530762 14.4275C2.30533 15.5685 4.37105 16.174 6.48076 16.1716C13.6224 16.1716 17.5266 10.2566 17.5266 5.12665C17.5266 4.95998 17.5224 4.79165 17.5149 4.62498C18.2743 4.07579 18.9299 3.39573 19.4508 2.61665L19.4524 2.61415Z" fill="#9B9B9B"/>
</svg>
