<svg width="34" height="44" viewBox="0 0 34 44" fill="none" xmlns="http://www.w3.org/2000/svg">
<path d="M31.4 13.9216C31.9739 13.9216 32.2693 13.2407 31.902 12.8155L32.0625 12.9775C32.6628 13.5834 33 14.4052 33 15.2622V39.7692C33 41.5535 31.5673 43 29.8 43H4.2C2.43269 43 1 41.5535 1 39.7692L1 4.2308C1 2.44634 2.4329 0.999804 4.20035 1L18.8737 1.00163C19.7222 1.00172 20.5359 1.34202 21.1359 1.9477L21.2827 2.09593C20.8609 1.74219 20.2 2.04026 20.2 2.61382M31.4 13.9216H23.4C21.6327 13.9216 20.2 12.4751 20.2 10.6908V2.61382M31.4 13.9216C31.9904 13.9216 32.2861 13.2003 31.8686 12.7788L21.3313 2.14013C20.9138 1.71862 20.2 2.01771 20.2 2.61382" stroke="#CDCC42" stroke-width="2" stroke-linecap="round" stroke-linejoin="round"/>
<path d="M12.3025 31.6524C12.3025 31.6524 5.81662 34.2868 7.19126 36.3819C9.01666 39.164 12.3025 31.6524 12.3025 31.6524ZM12.3025 31.6524C12.3025 31.6524 14.6561 30.6778 16.1359 30.2613C17.7343 29.8115 20.1519 29.5194 20.1519 29.5194M12.3025 31.6524C12.3025 31.6524 13.6918 29.5082 14.4018 28.0356C15.1268 26.5318 15.9534 24.048 15.9534 24.048M15.9534 24.048C15.9534 24.048 18.3233 17 15.6796 17C13.0359 17 15.9534 24.048 15.9534 24.048ZM15.9534 24.048C15.9534 24.048 16.7197 26.1809 17.5963 27.2937C18.4177 28.3365 20.1519 29.5194 20.1519 29.5194M20.1519 29.5194C20.1519 29.5194 26.8147 33.2289 26.9973 30.4468C27.1568 28.016 20.1519 29.5194 20.1519 29.5194Z" stroke="#CDCC42"/>
</svg>
