<svg width="13" height="13" viewBox="0 0 13 13" fill="none" xmlns="http://www.w3.org/2000/svg">
<path d="M6.50002 0C3.85199 0 1.69775 2.15424 1.69775 4.80226C1.69775 5.67401 2.08871 6.61158 2.1051 6.65113C2.23137 6.95085 2.48052 7.41638 2.66018 7.68927L5.95284 12.6782C6.08759 12.8828 6.28702 13 6.50002 13C6.71301 13 6.91245 12.8828 7.04719 12.6785L10.3401 7.68927C10.5201 7.41638 10.7689 6.95085 10.8952 6.65113C10.9116 6.61186 11.3023 5.67429 11.3023 4.80226C11.3023 2.15424 9.14804 0 6.50002 0ZM10.3743 6.43192C10.2616 6.70056 10.0297 7.13362 9.86838 7.37825L6.57544 12.3675C6.51047 12.4661 6.48985 12.4661 6.42487 12.3675L3.13194 7.37825C2.97064 7.13362 2.73871 6.70028 2.626 6.43164C2.6212 6.42006 2.26273 5.55706 2.26273 4.80226C2.26273 2.46582 4.16357 0.564972 6.50002 0.564972C8.83646 0.564972 10.7373 2.46582 10.7373 4.80226C10.7373 5.55819 10.378 6.42345 10.3743 6.43192Z" fill="#CDCC42"/>
<path d="M6.50002 2.26013C5.09804 2.26013 3.95764 3.40081 3.95764 4.8025C3.95764 6.2042 5.09804 7.34488 6.50002 7.34488C7.902 7.34488 9.0424 6.2042 9.0424 4.8025C9.0424 3.40081 7.902 2.26013 6.50002 2.26013ZM6.50002 6.77991C5.40991 6.77991 4.52262 5.8929 4.52262 4.8025C4.52262 3.71211 5.40991 2.8251 6.50002 2.8251C7.59014 2.8251 8.47743 3.71211 8.47743 4.8025C8.47743 5.8929 7.59014 6.77991 6.50002 6.77991Z" fill="#CDCC42"/>
</svg>
