<svg width="22" height="13" viewBox="0 0 22 13" fill="none" xmlns="http://www.w3.org/2000/svg">
<path d="M21.228 1.14073C21.3739 0.656356 21.228 0.301147 20.5385 0.301147H18.2541C17.6728 0.301147 17.4072 0.60844 17.2614 0.94594C17.2614 0.94594 16.0999 3.77823 14.4541 5.61469C13.9228 6.14906 13.6801 6.31781 13.3905 6.31781C13.2458 6.31781 13.0353 6.14906 13.0353 5.66469V1.14073C13.0353 0.559481 12.8676 0.301147 12.3833 0.301147H8.79367C8.43117 0.301147 8.21242 0.569898 8.21242 0.826148C8.21242 1.37615 9.03533 1.50323 9.11971 3.05323V6.41573C9.11971 7.15219 8.98742 7.28656 8.69575 7.28656C7.92179 7.28656 6.03846 4.44386 4.92075 1.18969C4.70304 0.557398 4.48325 0.30219 3.89992 0.30219H1.61659C0.96346 0.30219 0.833252 0.609481 0.833252 0.946981C0.833252 1.55323 1.60721 4.55323 4.43846 8.52094C6.32596 11.2303 8.98325 12.6991 11.4041 12.6991C12.8551 12.6991 13.0343 12.373 13.0343 11.8105V9.76261C13.0343 9.11052 13.1728 8.97927 13.6322 8.97927C13.9697 8.97927 14.551 9.15011 15.9062 10.4553C17.4541 12.0032 17.7103 12.698 18.5801 12.698H20.8635C21.5155 12.698 21.8416 12.372 21.6541 11.7282C21.4489 11.0876 20.7093 10.1553 19.728 9.05219C19.1947 8.42302 18.3978 7.74594 18.1551 7.4074C17.8166 6.97094 17.9145 6.77823 18.1551 6.39073C18.1562 6.39177 20.9385 2.47302 21.228 1.14073V1.14073Z" fill="#9B9B9B"/>
</svg>
