<svg width="15" height="14" viewBox="0 0 15 14" fill="none" xmlns="http://www.w3.org/2000/svg">
<path d="M7.49252 4.28571V9.52854M7.49252 9.52854L5 7M7.49252 9.52854L10 7M7.5 0.5L8.22777 0.540871L8.94639 0.662969L9.64681 0.864758L10.3202 1.1437L10.9582 1.49629L11.5527 1.9181L12.0962 2.40381L12.5819 2.94732L13.0037 3.54179L13.3563 4.17976L13.6352 4.85319L13.837 5.55361L13.9591 6.27223L14 7L13.9591 7.72777L13.837 8.44639L13.6352 9.14681L13.3563 9.82024L13.0037 10.4582L12.5819 11.0527L12.0962 11.5962L11.5527 12.0819L10.9582 12.5037L10.3202 12.8563L9.64681 13.1352L8.94639 13.337L8.22777 13.4591L7.5 13.5L6.77223 13.4591L6.05361 13.337L5.35319 13.1352L4.67976 12.8563L4.04179 12.5037L3.44732 12.0819L2.90381 11.5962L2.4181 11.0527L1.99629 10.4582L1.6437 9.82024L1.36476 9.14681L1.16297 8.44639L1.04087 7.72777L1 7L1.04087 6.27223L1.16297 5.55361L1.36476 4.85319L1.6437 4.17976L1.99629 3.54179L2.4181 2.94732L2.90381 2.40381L3.44732 1.9181L4.04179 1.49629L4.67976 1.1437L5.35319 0.864758L6.05361 0.662969L6.77223 0.540871L7.5 0.5Z" stroke="#CDCC42" stroke-linecap="round" stroke-linejoin="round"/>
</svg>
