<svg width="23" height="26" viewBox="0 0 23 26" fill="none" xmlns="http://www.w3.org/2000/svg">
<path d="M7.45831 3.79597C9.84506 2.66546 12.6549 2.66546 15.0417 3.79597C17.4457 4.93467 19.219 7.11923 19.8203 9.71047C20.409 12.2472 19.8321 14.9142 18.2477 16.9808L17.4718 17.993C17.0842 18.4985 16.655 18.9708 16.1886 19.4047L11.4479 23.8158C11.3364 23.9196 11.1636 23.9196 11.0521 23.8158L6.31139 19.4047C5.84503 18.9708 5.41581 18.4985 5.02823 17.993L4.2523 16.9808C2.66793 14.9142 2.09105 12.2472 2.67971 9.71047C3.28102 7.11923 5.05427 4.93467 7.45831 3.79597Z" fill="#CDCC42" stroke="#CDCC42" stroke-width="4" stroke-linecap="round" stroke-linejoin="round"/>
<path d="M9.58302 7.39373C10.6386 6.89569 11.8615 6.89569 12.9171 7.39373L12.9759 7.42147C14.0183 7.9133 14.7787 8.8547 15.0402 9.97724C15.305 11.114 15.0195 12.3206 14.2827 13.2258C13.5551 14.1197 12.4546 14.6497 11.3021 14.6497H11.1981C10.0455 14.6497 8.94507 14.1197 8.21747 13.2258C7.48067 12.3206 7.19516 11.114 7.45998 9.97724C7.72148 8.8547 8.48183 7.9133 9.52423 7.42147L9.58302 7.39373Z" fill="white" stroke="white" stroke-width="4" stroke-linecap="round" stroke-linejoin="round"/>
</svg>
