<svg width="21" height="17" viewBox="0 0 21 17" fill="none" xmlns="http://www.w3.org/2000/svg">
<path d="M19.4 0.22357L19.6061 0.679119C19.8694 0.560015 20.0347 0.623426 20.112 0.698116C20.1959 0.779277 20.3249 1.01811 20.1959 1.53546L20.1938 1.54403L20.1919 1.55267L17.1753 15.7696L17.1749 15.7713C17.0834 16.2102 16.9357 16.3317 16.8645 16.3638C16.7922 16.3963 16.6146 16.4202 16.2667 16.2348L11.6993 12.8612L11.358 12.609L11.0537 12.9049L8.84579 15.0519C8.84553 15.0522 8.84527 15.0524 8.84501 15.0527C8.83905 15.0584 8.83322 15.0641 8.8275 15.0696L9.07191 11.4174L17.4448 3.86094C17.4453 3.86042 17.4459 3.85989 17.4465 3.85936C17.5682 3.75099 17.7397 3.55976 17.7497 3.29334C17.7554 3.14176 17.7057 2.99545 17.6082 2.87925C17.5173 2.77096 17.4051 2.71198 17.3127 2.68025C17.1336 2.61878 16.9435 2.62847 16.7857 2.66117C16.6183 2.69585 16.4434 2.76517 16.2744 2.86802L16.2743 2.86796L16.2675 2.8723L5.93897 9.3889L1.61095 8.03877L1.61095 8.03877L1.60872 8.03808C1.4281 7.98267 1.3248 7.92238 1.2733 7.88045C1.28624 7.86487 1.30514 7.84483 1.33251 7.82063C1.42951 7.73486 1.59927 7.62833 1.86712 7.52045L19.5799 0.690086L19.4 0.22357Z" fill="#9B9B9B" stroke="#9B9B9B"/>
</svg>
