<svg width="21" height="15" viewBox="0 0 21 15" fill="none" xmlns="http://www.w3.org/2000/svg">
<path d="M20.3334 2.92252C20.2201 2.51855 19.9995 2.15281 19.695 1.86419C19.3819 1.56669 18.9982 1.35389 18.58 1.24586C17.015 0.833356 10.745 0.833356 10.745 0.833356C8.13113 0.803617 5.51788 0.934418 2.92003 1.22502C2.50185 1.34103 2.11883 1.55859 1.80503 1.85836C1.49669 2.15502 1.27336 2.52086 1.15669 2.92169C0.876437 4.43147 0.740269 5.96447 0.750026 7.50002C0.740026 9.03419 0.875859 10.5667 1.15669 12.0784C1.27086 12.4775 1.49336 12.8417 1.80253 13.1359C2.11169 13.43 2.49669 13.6425 2.92003 13.755C4.50586 14.1667 10.745 14.1667 10.745 14.1667C13.3622 14.1965 15.9788 14.0657 18.58 13.775C18.9982 13.667 19.3819 13.4542 19.695 13.1567C20.0034 12.8625 20.2225 12.4967 20.3325 12.0984C20.6201 10.5891 20.7599 9.05551 20.75 7.51919C20.7717 5.97636 20.632 4.43549 20.3334 2.92169V2.92252ZM8.75169 10.3534V4.64752L13.9684 7.50085L8.75169 10.3534Z" fill="#9B9B9B"/>
</svg>
