<svg width="1920" height="1340" viewBox="0 0 1920 1340" fill="none" xmlns="http://www.w3.org/2000/svg">
<rect width="1920" height="1340" fill="#14120B"/>
<line x1="342.5" y1="2.06152" x2="342.5" y2="1340" stroke="white" stroke-opacity="0.06"/>
<line x1="716.5" y1="2.06152" x2="716.5" y2="1340" stroke="white" stroke-opacity="0.06"/>
<line x1="1203.5" y1="2.06152" x2="1203.5" y2="1340" stroke="white" stroke-opacity="0.06"/>
<line x1="1578.5" y1="2.06152" x2="1578.5" y2="1340" stroke="white" stroke-opacity="0.06"/>
<path d="M716.536 407.154V410.798M716.536 414.443V410.798M716.536 410.798L713 410.798L720.071 410.798" stroke="white"/>
<path d="M1578.54 723.6V727.244M1578.54 730.889V727.244M1578.54 727.244L1575 727.244L1582.07 727.244" stroke="white"/>
<path d="M1202.54 1303.92V1307.57M1202.54 1311.21V1307.57M1202.54 1307.57L1199 1307.57L1206.07 1307.57" stroke="white"/>
<path d="M342.536 183.477V187.121M342.536 190.766V187.121M342.536 187.121L339 187.121L346.071 187.121" stroke="white"/>
<path d="M342.536 857.6V861.244M342.536 864.889V861.244M342.536 861.244L339 861.244L346.071 861.244" stroke="white"/>
</svg>
