<svg width="26" height="32" viewBox="0 0 26 32" fill="none" xmlns="http://www.w3.org/2000/svg">
<path fill-rule="evenodd" clip-rule="evenodd" d="M18.0553 1.61887C14.5689 -0.124257 10.4653 -0.124257 6.97884 1.61887C3.63434 3.29103 1.2244 6.38478 0.421524 10.0368L0.31351 10.5281C-0.51107 14.2789 0.308457 18.2032 2.56521 21.3105L3.64508 22.7973C4.21619 23.5836 4.85171 24.3211 5.54506 25.0021L12.2358 31.5737C12.392 31.727 12.6422 31.727 12.7983 31.5737L19.4891 25.0021C20.1825 24.3211 20.818 23.5836 21.3891 22.7973L22.469 21.3104C24.7257 18.2032 25.5452 14.2789 24.7207 10.5281L24.6126 10.0368C23.8098 6.38478 21.3998 3.29103 18.0553 1.61887ZM14.9652 6.97997C13.4232 6.212 11.6102 6.212 10.0682 6.97997C8.58261 7.71987 7.51124 9.0919 7.15355 10.7126L7.10512 10.9321C6.74329 12.5715 7.12661 14.2871 8.15184 15.6166L8.22844 15.716C9.25371 17.0456 10.8377 17.8244 12.5167 17.8244C14.1957 17.8244 15.7798 17.0456 16.805 15.716L16.8816 15.6166C17.9069 14.2871 18.2902 12.5715 17.9283 10.9321L17.8799 10.7126C17.5222 9.0919 16.4509 7.71987 14.9652 6.97997Z" fill="white"/>
</svg>
