<svg width="11" height="19" viewBox="0 0 11 19" fill="none" xmlns="http://www.w3.org/2000/svg">
<path d="M3.42082 11.0889L2.54094 13.991C2.45923 14.2605 2.29057 14.4981 2.05936 14.6693L0.536703 15.7966C-0.0651942 16.2422 -0.177794 17.0731 0.285203 17.6524C0.748201 18.2317 1.61147 18.3401 2.21337 17.8944L3.73602 16.7671C4.42967 16.2536 4.93564 15.541 5.18078 14.7324L5.46785 13.7856L4.49896 12.48C4.02068 12.1019 3.65438 11.6223 3.42082 11.0889Z" fill="#9B9B9B"/>
<path d="M3.9949 4.84C4.4636 4.51782 5.02516 4.34463 5.60111 4.34463C6.72101 4.34463 7.73019 4.99511 8.15659 5.99179L8.63472 7.10939C8.7547 7.38982 8.9711 7.62208 9.24772 7.7673L10.2832 8.3109C10.9498 8.66088 11.1955 9.46474 10.8319 10.1064C10.4682 10.748 9.63302 10.9844 8.96637 10.6344L7.93091 10.0908C7.67865 9.95842 7.44309 9.80186 7.22727 9.62445L6.94976 11.2288L8.03402 12.6898C8.33484 13.0951 8.55371 13.5513 8.67922 14.0345L9.41186 16.8554C9.59601 17.5644 9.14809 18.2829 8.41138 18.4602C7.67468 18.6374 6.92817 18.2063 6.74402 17.4973L6.01138 14.6764C5.96954 14.5153 5.89658 14.3633 5.79631 14.2281L4.49896 12.48C3.63811 11.7995 3.14004 10.79 3.12577 9.73021L2.74532 10.3812C2.37303 11.0182 1.53469 11.2441 0.872839 10.8858C0.210989 10.5275 -0.023746 9.72061 0.348545 9.0836L1.59517 6.95056C1.89175 6.44308 2.30068 6.00461 2.79297 5.66621L3.9949 4.84Z" fill="#9B9B9B"/>
<path d="M5.38112 3.89982C5.89062 4.13597 6.48411 4.13597 6.99361 3.89982C7.5031 3.66367 7.87314 3.21707 7.99898 2.68644C8.12481 2.15581 7.99275 1.59891 7.64017 1.17338C7.28759 0.747845 6.75286 0.5 6.18737 0.5C5.62187 0.5 5.08715 0.747845 4.73456 1.17338C4.38198 1.59891 4.24992 2.15581 4.37575 2.68644C4.50159 3.21707 4.87163 3.66367 5.38112 3.89982Z" fill="#9B9B9B"/>
</svg>
